<svg id="Layer_1" data-name="Layer 1" xmlns="http://www.w3.org/2000/svg" viewBox="0 0 434.66 434.71"><path d="M312.51,461.59c-2.38,2.26-4.45,4.14-6.43,6.11l-180,179.93Q110.93,662.8,100,652.08q-11.3-11,4.37-26.68Q194,535.67,283.73,446c2-2,4.32-3.68,7.1-6-2.65-2.83-4.48-4.88-6.42-6.82Q194.2,342.81,104,252.47c-3-3-6.09-6.71-7.2-10.63-2-7.08.48-13.26,7.25-17.12,6.15-3.51,13.65-2.24,19.69,3.76q35.22,35,70.27,70.19,56.25,56.24,112.5,112.45c1.8,1.8,3.71,3.49,5.95,5.6,2.27-2.11,4.36-3.94,6.32-5.9q90-90,180-180A59.88,59.88,0,0,1,505,225a15.27,15.27,0,0,1,20.46,1.54,15.11,15.11,0,0,1,1.29,19.86,75.79,75.79,0,0,1-7.39,7.94q-89.4,89.46-178.82,178.9c-1.79,1.8-3.46,3.71-5.52,5.93,2.16,2.31,4,4.39,6,6.35q89.71,89.72,179.44,179.4a56.58,56.58,0,0,1,6.77,7.44,15.38,15.38,0,0,1-21.36,21.37,46.56,46.56,0,0,1-6.32-5.69Q409.17,557.84,318.9,467.61C316.94,465.65,314.85,463.8,312.51,461.59Z" transform="translate(-95.24 -221.79)"/></svg>