<svg id="Layer_1" data-name="Layer 1" xmlns="http://www.w3.org/2000/svg" viewBox="0 0 526 306.07"><defs><style>.cls-1{fill:#ffe5b3;}.cls-2{fill:#171b32;}.cls-3{fill:#ffe5b5;}.cls-4{fill:#17484c;}.cls-5{fill:#ee7449;}.cls-6{fill:#fee5b3;}.cls-7{fill:#361436;}.cls-8{fill:#f49f67;}.cls-9{fill:#173541;}.cls-10{fill:#451438;}.cls-11{fill:#578883;}.cls-12{fill:#461438;}.cls-13{fill:#5c948c;}.cls-14{fill:#86baaa;}.cls-15{fill:#6ba99e;}.cls-16{fill:#ee855a;}.cls-17{fill:#457975;}.cls-18{fill:#e86848;}.cls-19{fill:#f2985f;}.cls-20{fill:#487171;}.cls-21{fill:#497674;}.cls-22{fill:#548784;}.cls-23{fill:#f09b6c;}.cls-24{fill:#58908a;}.cls-25{fill:#73aa9d;}.cls-26{fill:#1a1b31;}.cls-27{fill:#9ec1ba;}.cls-28{fill:#6fa49b;}.cls-29{fill:#59263c;}.cls-30{fill:#234d4f;}.cls-31{fill:#e3e8dd;}.cls-32{fill:#c5dcd9;}.cls-33{fill:#ef976d;}.cls-34{fill:#72a098;}.cls-35{fill:#e37751;}.cls-36{fill:#c3dadc;}.cls-37{fill:#588782;}.cls-38{fill:#80aea8;}.cls-39{fill:#79a79f;}.cls-40{fill:#672f44;}.cls-41{fill:#7a5756;}.cls-42{fill:#2e5656;}.cls-43{fill:#7eaa9e;}.cls-44{fill:#d5e6e5;}.cls-45{fill:#dfa68c;}.cls-46{fill:#c9d0e3;}.cls-47{fill:#429e8b;}.cls-48{fill:#1d5f57;}.cls-49{fill:#61513f;}.cls-50{fill:#f5f5f2;}.cls-51{fill:#403c3f;}.cls-52{fill:#318275;}.cls-53{fill:#9f5734;}.cls-54{fill:#f3a36b;}.cls-55{fill:#ea6547;}.cls-56{fill:#4a414d;}.cls-57{fill:#f6f0e6;}.cls-58{fill:#8b605a;}.cls-59{fill:#5d434d;}.cls-60{fill:#ca694f;}.cls-61{fill:#e96241;}.cls-62{fill:#ebbbb1;}.cls-63{fill:#cfb0ac;}.cls-64{fill:#d7dadf;}.cls-65{fill:#885359;}.cls-66{fill:#e4764e;}.cls-67{fill:#79787c;}.cls-68{fill:#a25d62;}.cls-69{fill:#b06464;}.cls-70{fill:#da9886;}.cls-71{fill:#635463;}.cls-72{fill:#205953;}.cls-73{fill:#164348;}.cls-74{fill:#fdfdfa;}.cls-75{fill:#f9c28a;}.cls-76{fill:#40283a;}.cls-77{fill:#a8a073;}.cls-78{fill:#30766d;}.cls-79{fill:#f5a167;}.cls-80{fill:#eb6747;}.cls-81{fill:#152a3b;}.cls-82{fill:#5b2828;}.cls-83{fill:#935556;}.cls-84{fill:#dbc1a8;}.cls-85{fill:#66384f;}.cls-86{fill:#6a373b;}.cls-87{fill:#823344;}.cls-88{fill:#6daa9b;}.cls-89{fill:#e65d40;}.cls-90{fill:#dd5c3f;}.cls-91{fill:#b2d3c5;}.cls-92{fill:#3e726f;}.cls-93{fill:#988f87;}.cls-94{fill:#cea588;}.cls-95{fill:#c9dbdd;}.cls-96{fill:#836f52;}.cls-97{fill:#f2f2eb;}.cls-98{fill:#e0a989;}.cls-99{fill:#7f7b6b;}.cls-100{fill:#ec9161;}.cls-101{fill:#a4cab9;}.cls-102{fill:#e9e0c7;}.cls-103{fill:#f0f2e7;}.cls-104{fill:#1f4d4d;}.cls-105{fill:#2a5a56;}.cls-106{fill:#235754;}.cls-107{fill:#649593;}.cls-108{fill:#79a69a;}.cls-109{fill:#cbe2df;}.cls-110{fill:#edede6;}.cls-111{fill:#104043;}.cls-112{fill:#132337;}.cls-113{fill:#af4432;}.cls-114{fill:#b35e44;}.cls-115{fill:#ba7545;}.cls-116{fill:#ac4926;}.cls-117{fill:#345c54;}.cls-118{fill:#f5cba2;}.cls-119{fill:#855138;}.cls-120{fill:#cc4534;}.cls-121{fill:#aa5048;}.cls-122{fill:#f8d5a3;}.cls-123{fill:#815b55;}.cls-124{fill:#184046;}.cls-125{fill:#40273a;}.cls-126{fill:#f4a268;}.cls-127{fill:#1a2437;}.cls-128{fill:#215955;}.cls-129{fill:#e96547;}.cls-130{fill:#b14435;}.cls-131{fill:#702826;}.cls-132{fill:#15293a;}.cls-133{fill:#284749;}</style></defs><path class="cls-1" d="M385,134.86c1,2.72,2.41.74,3.45.23,12.33-6.08,24.46-12.57,37-18.28,13.24-6,26.74-11.55,40.26-16.94,18.35-7.32,37.15-13.33,56.69-16.51,8.14-1.32,16.4-2.31,24.72-.43,9.88,2.24,16.4,10.77,17.06,22.46,1.05,18.36-2.29,36-8.28,53.25a291.52,291.52,0,0,1-19,44.18c-9.88,18.15-20.2,36.12-32.79,52.63-4.31,5.65-8.57,11.33-12.7,17.1-1.15,1.61-2.1,2.56-4,1.23-1.56-1.54-.76-3.43-.73-5.18.11-6.42-1.6-8.45-8.14-8.34-7.76.13-15.49,1-23.25,1.42-6.09.36-12.13,1.51-18.26,1.17-2.93-.76-3.4-3.39-4.16-5.7a493.5,493.5,0,0,0-22.18-54.69,10.29,10.29,0,0,1-.55-1.39c-1.16-3.48-2.86-6.73-4.2-10.14-3.07-7.79-8.26-13.61-16-16.94-5.8-2.49-10.66-6.9-17-8.26-7.27-2.55-8-2.27-11.81,4.75-.55,1-1.08,2.3-2.47.76-1.22-2.86-.52-5.88-.72-8.82a13.9,13.9,0,0,0-.53-4.67,34.78,34.78,0,0,1-.49-7.69c4.47-3.94,10.21-5.7,15.14-8.85,4.08-1.14,9-.52,11.27-5.45A1.71,1.71,0,0,1,385,134.86Z" transform="translate(-38.37 -67.74)"/><path class="cls-2" d="M134.51,249.92c-3.58-16-7.24-32.08-10.72-48.15-2.55-11.76-3.16-9.09,7.26-12s20.93-5.36,31.33-8.25c3.15-.88,4.38-.28,5.22,3,6.18,24,12.56,47.89,18.89,71.81.07.26.45.44.68.66a7.11,7.11,0,0,1,2.3,4c3.06,12.45,6.74,24.74,10.06,37.13.72,3.22,1.83,6.34,2.62,9.54.45,2,1,3.91,1.34,5.89a37,37,0,0,0,1.3,5.79c2.23,3.89,5.91,1.26,8.84,2,17.58.18,35.12,1.52,52.7,1,14.13.61,28.27,1,42.42,1,2,0,4.31,0,5,2.39.71,2.57-1.37,3.85-3.16,5.1a15.13,15.13,0,0,1-9,2.52c-34.48,0-69,.08-103.44,0-4.33,0-8.61-.87-12.91-1.33-7.43-1.34-15-1.45-22.47-2.71a36.94,36.94,0,0,1-6.74-1.44,6.24,6.24,0,0,1-3.13-2.71,3,3,0,0,1,.1-3,46.35,46.35,0,0,1,13.65-7.3c-5.21,1.29-9.49,4-13.54,7.19-3.72-1.4-4.55-4.5-1.94-7.89,2.27-2.95,5.41-4.85,8.68-6.55,1.89-1,3.83-1.9,6.69-3.4-5.42,2.64-9.91,4.69-13.7,8-1.89,1.64-3.59,1.7-4.57-1-1.49-4.16,1.51-6.27,4-8.63,3.17-3.06,7.12-4.81,11.06-6.57a66.08,66.08,0,0,1,11-3.25c1.73-.53.82-1.34,1.17-.78-4.08,1.59-8.49,2.11-12.53,3.85-4,1.49-7.44,4-10.77,6.66-1.56,1.13-2.71,4.13-4.57,3.22-2.34-1.15-.82-3.93-.28-5.9,1-3.71,2.11-7.37,1.28-11.28.41-3.91,4-5.45,6.1-8.41-2.19.83-3.68,2.39-5.3,3.78-1.18,1-2.09,2.76-4.16,2a4.76,4.76,0,0,1-.64-5.14c2.44-6.52,3.21-13.47,5.49-20,2.68-7.31,2.31-14.64-.1-22.83-.57,3.16-.05,5.65-.67,8-.77,2.85-2.08,2.62-3.59.48-1.47-3-1.94-6.48-3.7-9.71-1.4,7.83.38,14.9,3.13,21.83a5.1,5.1,0,0,1,0,2.13c-1.81,3.2-5.08.07-7.27,1.66-1.8-.8-1.68-2.67-2.31-4.13a39.49,39.49,0,0,1-1.24-4.66C134.06,252.13,134.7,251.05,134.51,249.92Z" transform="translate(-38.37 -67.74)"/><path class="cls-3" d="M183.36,330.24a196.14,196.14,0,0,0,25.42,1.29q47-.13,93.91,0c3.44,0,6-1.47,8.73-2.89,1.18-.61,2.25-1.68,1.72-3.22s-2-.89-3-.9c-13.82-.23-27.63-.38-41.45-.58a22.81,22.81,0,0,1-2.47-.3c-.77-1.09-3,.37-3.14-1.82a1.69,1.69,0,0,1,1.62-.77,8.48,8.48,0,0,1,1.79.3c-.41-.83-1.32.07-1.81-.53-1.34-.44-3.27-.45-1.87-2.75,5-1.51,10,1.16,15-.16,13.45.28,26.81,2,40.25,2.34a8.26,8.26,0,0,1,4.75,1.23c2.56,2.31,2.33,6.58,5.8,8.25,2.18,1,4.48.39,6.72.6,1.85.18,4-.37,5.13,1.83-.87,1.94-2.69,2.45-4.49,2.69-9.36,1.23-18.54,3.52-27.19,4.29,35.9,0,72.55,0,109.2,0,6.48,0,13,.07,19.44.14,2.13,0,4.37-.3,6.19,1.31,1.64,6.43,2.42,12.83-.48,19.15a9.64,9.64,0,0,1-4.83.91l-292.11.12c-.83,0-1.66-.1-2.49-.15.39-3.35,3.16-2.34,5-2.4,7.32-.25,14.65-.1,22-.11q27.48,0,55,0a34.39,34.39,0,0,0,11.78-1.82c14.49-5.2,28.82-10.87,43.63-15.15.59-.34-.57-.82-.1-.35.22.23.16.36-.13.49a14,14,0,0,1-5.84.89q-68.21,0-136.4,0a35.46,35.46,0,0,1-4-.24c-5.38-1.15-9-5.15-13.3-8.14-1.19-.84-1.71-2.09.12-3a194.2,194.2,0,0,1,31-.09c3,1.38,2.14,4.86,3.72,6.81-.33-2.06-2.8-4.16-.23-6.54,3.35-1.3,6.85-.7,10.29-.76C171.86,330.13,177.61,330.91,183.36,330.24Z" transform="translate(-38.37 -67.74)"/><path class="cls-2" d="M443.11,359.78l0-19.08c-5.77-2-11.81-1-17.71-1.42-9.27-.71-18.5-1.85-27.78-2.41-2.13-.13-4.31-.58-5.9-2.32-1.23-2.14-1-4.51-1-6.82,0-11-.19-22,.2-33-.05-1.81.64-3.48.95-5.22,1.55-7.49,4.21-14.66,6.58-21.9,3.17-9.68,6-19.34,5.63-29.64.24-1.06.56-2.07,1.73-2.48,2.24.79,2.54,3,3.13,4.77a300.59,300.59,0,0,0,17.78,43.16c5.12,10,10.22,20.12,17.49,28.85,2.23,2.68,4.63,5,8.27,2,2.53-.28,2.87,1.78,3.6,3.39.94,2.1,1.14,4.51,2.76,6.46,1.57-.6,1.5-2.12,1.8-3.27,2.19-8.36,5.47-16.38,7.53-24.78a8.48,8.48,0,0,1,.88-2.32c.79-1.3,1.71-2.77,3.45-2.25,2,.61,1.37,2.42,1,3.8-1.5,5.79-2.65,11.67-4.44,17.38-1.39,4.46-2.1,8.52,3.66,10.44a1.15,1.15,0,0,1,.55,1.67c-2.08,8.32-4.11,16.66-6.25,25-.5,1.95-1.27,4-.61,5.84,1.85,5.14-1,5.32-4.73,5C455.48,359.94,449.23,361.5,443.11,359.78Z" transform="translate(-38.37 -67.74)"/><path class="cls-2" d="M385,134.86l-.94.95c-4.22,5.19-10.59,4.84-16.26,6.26-5.91-1.54-7,4.12-10,6.78-.43.25-.84.51-1.25.79a9,9,0,0,1-2.61,1.59c-4.75,1.16-9.48,1.86-13.93-1a19.6,19.6,0,0,0-3.75-2.63,21.79,21.79,0,0,1-8.19-18.41c.22-5.26-1.3-8.84-6-11.38-2.68-1.44-5.61-3.12-6.08-6.75,1-1.17,2.51-.44,3.19-1.08-1.13.31-2.89.08-4.11,1.46-4.49,1.22-7.84-1.31-11.31-3.44-3.31-1.68-6.9-.48-10.32-1-1.3-.18-3-.16-3.2-1.78-.18-1.21,1-2,2.09-2.55C303.77,96.87,313,88.33,321.76,79.1a9.13,9.13,0,0,1,6.53-3.28c5.3,1.3,8,5.7,11.06,9.55A35.48,35.48,0,0,1,346,100.82c.36,1.83.55,3.64-.7,5.25-2.48,1.72-5.21,3.1-6.24,4.79a19,19,0,0,1,8.23-5c7.58-2.54,7.57-2.54,4.48-10.31a62.29,62.29,0,0,0-3.24-7.28,91.78,91.78,0,0,0-9.27-13.22c-1-1.22-2.53-2.19-2.12-4.14,9.71,1.91,17.5,6.31,21.4,16.06,1.33,3.31,4.4,5.8,4.76,9.62,2.65,2.18,2.68,5.53,3.74,8.41,1.74,4.75,6.1,6.63,12.19,5.12,4.62-1.15,6.77-4.71,5.9-9.79-.5-3-.5-3,1.18-4.56,5.38,1.75,7.49,6,8.52,11.09,1.8,8.9-1.78,20.32-7.64,24.1a8.7,8.7,0,0,1-5.58,1.35c-1.46.21-.61,1.19-.87.58-.11-.24,0-.41.27-.4,1.55.05,3.5-1.25,4.33,1.26Z" transform="translate(-38.37 -67.74)"/><path class="cls-4" d="M105.82,360.34c-3.7,3.9-6.75,8.46-11.43,11.38-5.62,3.51-7.14,2.82-8.21-3.77-.42-6.83-1.64-13.59,2.1-20.16,2.26-4,1.21-4.72-5.34-4.74-5.31-.39-9.52-3.95-14.6-5-.9-4.13,2.16-7,3.34-10.47,3.39-2.13,7.41-2.49,11.12-3.88-.4-1.34-1.74-1.42-2.54-2.13a23.79,23.79,0,0,1-5.53-4.29,13.47,13.47,0,0,1-2.53-3.51c-2.32-4.08-4.45-8.23-5-13-.09-2.07-.23-4.15,1.28-5.88a5.1,5.1,0,0,1,1.32-.76c4.89-.14,9.28,1.53,13.54,3.7,4.94,2.94,9.78,6,13.68,10.35,1.57,1.49,2.47,3.5,4.26,5.39,2.75-4.45,2-9.7,4-14.12,1-2.63,1.59-5.45,3.12-7.89a30.34,30.34,0,0,1,3.45-4.54c3.35-2.49,5.18-7.41,10.59-6.59a6.93,6.93,0,0,1,1.8,2.39,13.89,13.89,0,0,1,1.42,5.86,74.49,74.49,0,0,0,1.09,7.81c.81,4.35.44,8.07-2.73,11.41-1.56,1.64-1.65,3.89-1.34,6.1a60.16,60.16,0,0,1-8.34,9.67c-5.06,4.6-5.23,9.95-4.4,15.85.37,2.61,1.23,5.15,1.15,7.83C109.8,351.87,109.67,356.86,105.82,360.34Z" transform="translate(-38.37 -67.74)"/><path class="cls-5" d="M133.35,340.82c5.48-.11,11-.32,16.46-.32q63.44,0,126.87,0h6.59c-.28,2.06-1.89,1.82-3,2.2q-21.6,7.77-43.24,15.43a31.57,31.57,0,0,1-10.76,1.79q-38.7-.09-77.42,0c-1.73,0-3.66-.8-5.21.7a1.29,1.29,0,0,1-.68.28c-.68,1.65-1.25.09-1.3-.2-1.13-6.91-4.62-12.74-8.34-18.47A1.78,1.78,0,0,1,133.35,340.82Z" transform="translate(-38.37 -67.74)"/><path class="cls-6" d="M198.52,298.8c-3.79-12.59-7.42-25.21-10.22-38.06,1.34-1.36.88-2.7,0-4,15.24-12.47,31.91-22.9,48.06-34.08,19.07-13.18,38.59-25.64,58.3-37.83a10.56,10.56,0,0,1,4.49-2,9.25,9.25,0,0,1,3.95,4.45c1,6.85-1.07,13.28-3.53,19.37-3.79,9.39-7.7,18.72-11,28.32-2.36,6.86-5.63,13.53-12.75,17.07-2.06-1.22-1.33-4-3.3-5.33,1.45,1.51,1.44,3.77,2.94,5.26-.05,3-2.46,4.11-4.48,5.4-6,3.85-11.48,8.1-14.44,15-.86,2-2.09,4.81-5.48,3.54-3.47-2.55-5.84-6.16-9.49-8.73-4.65-3.28-3-16.37,1.75-19.87,2-1.5,4.28-2.57,6.34-4,.41-.28,1-.49,1.19-.89,3.1-5.5,6.74-9.79,14-9.77,2.19,0,2.58-3.57,3-5.86,1.44-7.82,5-10.17,12.52-7.44,3.14,1.15,4.65,1.15,4.86-2.59.14-2.65,1.81-4.51,3.59-6.36,3.08-3.19,2.13-7.65-2.23-11.35-2.56-2.17-5.57-1.76-8.09,1.71-1.89,2.6-4.43,3.66-7.11,5.06-5.49,2.86-11.7,5.22-13.51,12.29-.3,1.17-1.64,2.47-2.58,1.57-4.45-4.24-7.44.15-11,1.25.08.64.31.72.74.67,2.32-.27,5.55-2.27,6.53,1,1.11,3.73-3.05,3.52-5.2,4.64-1.16.61-2.78,1.61-3.75,1-4.41-2.76-6.41.07-8.64,3.11-.88,1.19-2.57,1.47-4,2-5.21,1.82-17.8,10.59-21.85,15.21,1.72,1.09,3.15-.44,4.72-.5s2.74.17,3.33,1.6a2.43,2.43,0,0,1-1.54,3.26,32.39,32.39,0,0,0-8.4,5.15c-2,1.54-4.1.46-5.63-1.46-1.9-2.37-3.09-1.63-3.39,1a26,26,0,0,1-3,9.46c-.4.74-1,1.76-.59,2.34,3.24,4.76,1.58,11.16,5.37,15.73,1.77,2.14,2.79,4.61,1.58,7.41-.7,1.61-.35,3.28-.55,4.92C199.79,298.17,199.4,298.75,198.52,298.8Z" transform="translate(-38.37 -67.74)"/><path class="cls-7" d="M473.23,324.78c-7.51-4.09-7.49-4.08-5.31-12.65,1.66-6.53,3.27-13.07,5.14-20.53-3,1.17-3.3,3.16-3.86,5.12q-4.11,14.29-8.37,28.53c-.22.71-.83,1.68-1.43,1.84-1.28.33-1.43-1.08-1.93-1.86-2.1-3.28-1.63-7.75-4.85-10.52-2.91-3.4-2.95-7.91-4.44-11.85-4.49-11.82-8-24-12.28-35.88-.62-1.74-1.22-3.52.37-5.12,13.87-1,27.72-2.26,41.61-3,9.51-.52,12.09,3,9.91,12.51-.18.79-.27,1.6-.41,2.41q-6.54,24.14-13.1,48.27C474,323,473.58,323.87,473.23,324.78Z" transform="translate(-38.37 -67.74)"/><path class="cls-8" d="M337,146.85c-6.74-6-8.72-13.8-7.91-22.38.26-2.76-.31-4.1-2.79-5.37a29.72,29.72,0,0,1-10.38-8.26l-.63,0a16.56,16.56,0,0,1-11.17-4.18c-5.15-.89-10.39.33-15.55-.79-1.7-.37-3.1.73-4,2.23-1.22,2.86-2.14,5.73-.38,8.72.21,1.77.24,3.57.5,5.33.45,1.05.65,2.16,1.07,3.28a6.41,6.41,0,0,0,.71,1.32c1.08,1,2.69,1.68,2.33,3.44.06.12.12.24.17.36a8.42,8.42,0,0,0,1.27,2c.14,1.69,2,2.78,1.63,4.64,0,.74.37,1.68.12,2.22a10.73,10.73,0,0,1,.1,1.14c.06.18.12.35.17.53.42,1.58.36,3.22.86,4.78.89,2.8,2.53,5.37,3.89,8,1.47,1.29,1.25,3.43,1.94,4.68a1.06,1.06,0,0,1,.23.26h-.07a2.5,2.5,0,0,0,.22.24,12.61,12.61,0,0,1,.87,2.05l4.11,9.7c2.28,4,5.88,1,8.8,1.64,3.3-.36,5.65-2.55,8.27-4.24,1.64-2.77,4.16-4.69,6.62-6.6,3.43-2.67,6.56-5.56,8.69-9.37C337.61,150.5,339,148.76,337,146.85Z" transform="translate(-38.37 -67.74)"/><path class="cls-8" d="M300.5,159.48h.07C300.55,159.69,300.53,159.64,300.5,159.48Z" transform="translate(-38.37 -67.74)"/><path class="cls-9" d="M133.35,340.82c4.81,5.95,8.64,12.36,9.65,20.12.75,11.89-.06,12.36-11.31,8A52.2,52.2,0,0,1,117,360.1c-3.76-3.22-6.83-6.82-6.74-12.17-.63-3.41-1.34-6.8-1.88-10.21-1.82-11.66,6.8-17.2,13.93-23.6.29-1,1.1-1.26,1.93-1.52a37.44,37.44,0,0,1,9.46,0,13.67,13.67,0,0,0,7.79-.87c3-1.4,4.77-.22,5.3,3,1.2,3,2.87,6.05-.7,8.67-8,5-16.35,8.64-26.08,7.68C123.75,335.22,129,337.42,133.35,340.82Z" transform="translate(-38.37 -67.74)"/><path class="cls-10" d="M304.14,106.61a56.36,56.36,0,0,1-11.83-.09c-2.66-.32-5.33-.37-7.09,2.25-6.65-1.72-10.74-9.54-8.49-16.23a21,21,0,0,1,2.5-4.79,15.26,15.26,0,0,1,7.76-6.1c1.5.51,2.72-.07,4.09-.72,1.2-.57,2.69-2.58,3.84-1.06,1.36,1.8-1.25,2.56-2.06,3.81a1.56,1.56,0,1,0-.22.27c2.84-3.22,7.1-5.39,11.59-7.19l6.94-4.17a18.29,18.29,0,0,1,13.4.15c1.82.71,3.72,1.45,3.94,3.85-3.35.57-5.58,2.84-7.71,5.19-8.52,9.42-18.17,17.37-30.44,23.1C295.26,107,300,104.58,304.14,106.61Z" transform="translate(-38.37 -67.74)"/><path class="cls-11" d="M80.41,320.61c2.09.56,3.74,1.82,5.9,3.62l-13.92,3.52c-3.21,5.22-7.07,10-10.55,15a3.26,3.26,0,0,0-.27,1.28,121.52,121.52,0,0,0-11.08,15.81c-.55.93-1.1,2.4-2.49,2s-.86-2-.78-3c.6-7.38,4.11-13.5,8.54-19.2,1.1-1.42,2.69-2.5,3.26-4.65-3.69.23-6.74,2.82-10.86,2.55,1.27-3.82,4.5-5.08,7.17-6.9,2.27-1.25,4.18-3.1,6.65-4,3.31-1.59,6.92-2.11,10.44-2.81-4.3-5.92-8.85-11.55-10-19-.18-2.69-4.07-5.36-.06-8.08a9.52,9.52,0,0,1,5.83,3.95c.79,4.78,3.21,8.94,5.07,13.32a9.36,9.36,0,0,0,2.5,5.11C77.08,320.23,78.49,321.2,80.41,320.61Z" transform="translate(-38.37 -67.74)"/><path class="cls-12" d="M386.35,95.78c-.85.53-.82,1.19-.59,2.12,2.43,10-1.76,14.82-12.05,13.86-4.06-.37-7.33-1.63-7.93-6.57-.35-2.92-1.59-5.73-2.44-8.59,4.54-2.57,9-4.69,14.59-4.88C382,91.59,384.54,92.31,386.35,95.78Z" transform="translate(-38.37 -67.74)"/><path class="cls-13" d="M73.19,246.9c-1.29-2-.8-4.05-.29-6.16.58-2.46,1.82-4.56,4.41-4.46,2.4.09,2.8,2.5,3,4.51.14,1.54.18,3.21,2,3.53,2.39.42,1.86-1.85,2.34-3,2-4.92,3.75-9.93,5.82-14.81.51-1.2.82-4.39,3.5-1.65,0,10.65-4.86,19.71-8.94,29.16-4.25,9.88-2.32,20.2.06,30.32.44,1.86,1.72,3.74,0,5.61-4.66-.29-5.36-4.62-7.58-7.4a6.92,6.92,0,0,1-.43-1.62c-1.48-7.73.56-15.48-.16-23.21C77.27,253.55,73.2,250.93,73.19,246.9Z" transform="translate(-38.37 -67.74)"/><path class="cls-14" d="M122.21,280.69c-4.37.81-6.49,4.71-9.72,7.08a2.26,2.26,0,0,1-.93-1c-1.07-4.39-2.44-8.59-6.6-11.14-1.9-.66-2.22-3.31-4.48-3.52-6.93,1-6.92,1-4.54-5.49A7.13,7.13,0,0,1,97.08,264c7.13-2.76,7.86-2.34,14,8.72-.81-5.56-2.54-9.79-4.1-14-1.14-3.08-1.28-5.73,1.44-8,5.73-.58,8.18,1.56,9.19,8,0,4.44,0,8.89,0,13.34,0,5.92,0,5.92,5.37,5.41C124.29,278.87,123.31,279.79,122.21,280.69Z" transform="translate(-38.37 -67.74)"/><path class="cls-15" d="M62.4,304.76c1.81,3.31,3.7,6.57,5.4,9.93s3.44,6.79,7.6,9.08c-4.61,2.16-9.24,1.78-13,4-4-.22-8.05-.43-12.05-.87a19.86,19.86,0,0,1-7.81-3.11c-3.75-2.45-3.49-4.91.64-6.79,3.77-1.71,7.75-1.52,11.74-1.11,1.33.14,3,1.37,3.48-1.14,2.69.77,4.8,2.74,7.81,3.75C63.75,315,62.83,311,60.2,308a1.18,1.18,0,0,1,.27-1.25C62,306.94,62.28,305.93,62.4,304.76Z" transform="translate(-38.37 -67.74)"/><path class="cls-16" d="M122.21,280.69l.61-3c1.72-4.3-1.41-7.47-2.61-11.08-.7-2-2.23-3.6-3.07-5.54-.4-.75-.15-1.68-.68-2.39.29-5.62-3.82-6.87-8-8.06l-.48-.87c-1.08-1.89-4.45-3.76-2.73-5.64,1.94-2.11,4.64.51,6.53,1.93,6.11,4.59,10.39,10.69,13.55,17.6.77.61,1.83.61,1.63-.43-.4-2.15.6-4.46-.79-6.46v0c2.22-3,4.56-5.76,8.93-4.06.47,1.68.93,3.36,1.4,5,.82,3.61,1,7.14-1.35,10.34-5.31,1.47-6.35,6.36-8.44,10.45-.82,1.6-.79,4-3.39,4.18Z" transform="translate(-38.37 -67.74)"/><path class="cls-17" d="M84.28,289.75c.75-5.46-1.87-10.4-2.48-15.68-.9-7.76-.58-15.29,2.63-22.35,3.71-8.14,8.36-15.88,8-25.28,0-1,.74-1.4,1.6-1.62.44,6,2.38,11.89.35,17.9a.92.92,0,0,1-.94.42c-2.08,4.11-4.55,8-5.49,12.62a4.67,4.67,0,0,1-1.12,2.37c-1.21,1.14-1.09,2.54-.79,4a3.56,3.56,0,0,1-.45,1.92c-1.78,6.88-1.52,13.53,2.07,19.84a5.34,5.34,0,0,1,1.17,2.47c-.06,1.51-.09,3,1.17,4.16,1.27,1.68,3.62,1.81,4.92,3.44a5,5,0,0,1,.15,4.17A2,2,0,0,1,94,299c-.54.24-1.59-.48-1.57.4,0,.64.85,1.46,1.75.35.32-.39.86-.3,1.31,0,1.43,2.91,2.27,5.86.76,9-3.93-3.84-8.52-6.84-13-10,2.36-2.21,2.28-4.62.57-7.15A1.87,1.87,0,0,1,84.28,289.75Z" transform="translate(-38.37 -67.74)"/><path class="cls-18" d="M328.51,76.59c-5-4.67-11.23-4.09-17.34-4,1.41-2.12,3.69-2.46,5.92-2.91,10.13-.09,17,5.91,22.85,13,2.62,3.17,5.14,5.46,9.43,5,2.91,4.45,4.45,9.46,6,14.49.76,2.49.51,3.86-2.48,3.51-2-.23-3.87.6-5.76,1.15-1.16.45-2.41,1.17-2.82-.85,1.66-4.08.11-7.82-1.36-11.49C340,87.08,335.4,80.88,328.51,76.59Z" transform="translate(-38.37 -67.74)"/><path class="cls-19" d="M349.37,87.69c-2.7,1.31-5.31,2.52-7.58-.84-6-8.9-14.14-14.79-24.7-17.17,6.94-3.51,13.55-1.76,20.09,1.24C341.53,76.3,346.53,81.21,349.37,87.69Z" transform="translate(-38.37 -67.74)"/><path class="cls-20" d="M83.34,341.68c8.64,0,9.51,1.33,5,9.35-3.09,5.49-1.16,11.32-2.15,16.92-1.47-2.71-.34-5.81-1.34-9.28a52.82,52.82,0,0,1-11.59,8.87c-2.5,1.09-2.34-.47-1.88-2,.57-1.9,2-3.39,2.94-5.09,2.86-5,5.73-10,7-15.67A6.49,6.49,0,0,1,83.34,341.68Z" transform="translate(-38.37 -67.74)"/><path class="cls-21" d="M67.17,369.59c-1.3.35-1.61,3.3-3.6,1.61-3.63-3.08-3.6-3.18-2.36-5.89A48.74,48.74,0,0,1,71,350.61c3.08-5.65,4.71-6.45,8.83-4.35.79,2.52-.73,4.47-1.72,6.5C75.18,358.82,72.38,365,67.17,369.59Z" transform="translate(-38.37 -67.74)"/><path class="cls-22" d="M79.4,346.8c-2.49-2.23-4.1-.15-5.64,1.32-.9.85-1.23,2.29-2.73,2.49-.5-.37-1-1.11-1.48-1.05-4.47.69-6.56-1.93-8-5.54l-.33-.54c1.82-2.66,2.54-6.68,7.2-5.86a11,11,0,0,1,7.91,2,9.58,9.58,0,0,0,7,2l-1,3.05C81.32,345.39,81.13,347.18,79.4,346.8Z" transform="translate(-38.37 -67.74)"/><path class="cls-23" d="M135.1,252.76c-3.88-.63-5.68,3.32-8.93,4.06-3.72-9.75-6.12-19.95-10.32-29.53-.45-1-.81-2.55.3-3.2,1.51-.89,2.41.6,3.15,1.64,4.1,5.8,6.22,12.42,7.65,19.29.24,1.14.47,2.28.61,3.43.46,3.66,1.86,5,5.13,2.24a6.93,6.93,0,0,1,1.82-.77C135.38,250.73,135.11,251.77,135.1,252.76Z" transform="translate(-38.37 -67.74)"/><path class="cls-24" d="M87.28,284.7c-2.55-.28-2.25-2.62-2.76-4.17-1.66-5-1-10.16-1.17-15.28,0-1.58.46-2.18,2-1.55,3.18-.22,6.74,1.12,9.18-2.2l1.87,2.21c-.54,6.46-3,9.3-8.14,9.46.21,4.1,4.46,2.57,6.2,4.47.15,2.44-2.65,1.71-3.38,3.19.1,2.22,2.23,1.43,3.29,2.21s1.62,1.62,0,2.51A7.73,7.73,0,0,1,87.28,284.7Z" transform="translate(-38.37 -67.74)"/><path class="cls-25" d="M78.24,256.6q0,12.6,0,25.2a1,1,0,0,1-1.33-.36,2.74,2.74,0,0,1-.55-1.34c.22-4.94-2.37-6.65-7-6.13a6.43,6.43,0,0,1-1.94-.22c-1.31-.4-2.56-.88-3-2.35-.48-7.41,1.34-8.21,11.62-5,.39-2.63,1.19-5.25-1.77-7a2.71,2.71,0,0,1-1.32-2.93,1.45,1.45,0,0,1,2.71,0C76.55,259.14,77.44,256,78.24,256.6Z" transform="translate(-38.37 -67.74)"/><path class="cls-26" d="M304.3,170.75c2.94,2.19,6.15-.41,9.17.51,0,1.77-.43,3.51-.23,5.29-1,3.54-.08,8.09-4.9,9.7-2.41-.82-4-3-6.91-3.31-3.09-.35-1.29-3.34-1.42-5.23A8.88,8.88,0,0,1,304.3,170.75Z" transform="translate(-38.37 -67.74)"/><path class="cls-27" d="M69.11,293.47c1-3.16-.73-4.61-3.43-5.49-7.89-2.59-15.75-1.1-23.63.06-1.07.16-2.15,1.06-3.68-.52,8.42-5.84,17.22-4.19,26.63-2.1a46.47,46.47,0,0,0-10.55-8.74c.73-2.61,2.46-1.36,3.71-.78A28.55,28.55,0,0,1,72.69,290,6.75,6.75,0,0,1,70.11,294,.71.71,0,0,1,69.11,293.47Z" transform="translate(-38.37 -67.74)"/><path class="cls-28" d="M73.33,256.68l.9,2.7.1.34a22.4,22.4,0,0,1-10,.07,5.45,5.45,0,0,1-1.95-.09c-3-1.34-6.61-2.94-5.63-6.77,1-4,4.75-2.29,7.51-1.77a25.73,25.73,0,0,1,4.14,1.51C70.52,253.41,72.6,254.21,73.33,256.68Z" transform="translate(-38.37 -67.74)"/><path class="cls-29" d="M279.23,87.75c-3.67,8.62-2,15.72,6,21-.35,2.66-.69,5.32-1,8a32.65,32.65,0,0,1-8.13-9.71C273,101.61,273.64,91.63,279.23,87.75Z" transform="translate(-38.37 -67.74)"/><path class="cls-30" d="M94.34,277.84c-6.83-.12-7.32-.59-7.48-7.71,3.64,4,5.6,1.63,7.51-1.51.95-1.56.48-3.65,2-4.91a1.32,1.32,0,0,1,.66.24c1.33,3.19-.93,5.27-2.86,7.86,2.79.46,4.66-2,7-1.08,1.64,2.17-.44,3.48-1.17,5.11a6.34,6.34,0,0,1-1.58,1.52C97.13,278,95.84,278.89,94.34,277.84Z" transform="translate(-38.37 -67.74)"/><path class="cls-31" d="M72.47,290.61c-4-5.64-8.35-11-15-13.78-.94-.4-1.94-1.57-3-.15l-4.05-3.05c6.91-3,12.9-.43,18.74,3.06a3.22,3.22,0,0,1,.73,1.3,6.55,6.55,0,0,0,1.73,6.26,9.36,9.36,0,0,1,2.84,5.09C74.64,290.79,74.08,291.66,72.47,290.61Z" transform="translate(-38.37 -67.74)"/><path class="cls-27" d="M65.34,294.73c-5.23-2.44-10.27-.17-15.37.61-2.66.4-5.17,1.94-8.22,1.27,5.12-6.73,15.71-7.84,27.36-3.14l.36.34c.25.24.32.46.22.67s-.21.3-.3.3h0C68,295.52,66.67,296,65.34,294.73Z" transform="translate(-38.37 -67.74)"/><path class="cls-32" d="M73.33,256.68l-4.94-4c2.1-2.34,1.7-3.48-2.07-5.86,1.61-2.64-2.72-4.3-1.14-6.93.76,0,1.6.84,2.25-.22,2.2-.16,1.59,2.31,2.85,3,.17,1.55,0,3.26.62,4.62.68,1.55,1.86,1.74,2.29-.4,1.06,3.56,5.47,5.37,5,9.7C76.66,260.41,74.94,255.42,73.33,256.68Z" transform="translate(-38.37 -67.74)"/><path class="cls-33" d="M69.15,277.91a31.12,31.12,0,0,0-18.75-4.28c-.61-2.55,1.24-3.29,3-3.59,3.75-.65,7.55-1,11,1.36l3.28,1.45c1.4,1.21,3.75,1.34,4.18,3.66C71.54,278.14,70.63,278.58,69.15,277.91Z" transform="translate(-38.37 -67.74)"/><path class="cls-34" d="M65.18,239.88a10.38,10.38,0,0,0,2.74,4.52c2.44,2.84-.54,2-1.6,2.41-1.94-.43-3.91-.77-5.82-1.31-2.09-.59-3.44-1.87-3.4-4.28a4.31,4.31,0,0,1,2.34-4.08c2.15-1.12,3.35.44,4.61,1.79A10.33,10.33,0,0,0,65.18,239.88Z" transform="translate(-38.37 -67.74)"/><path class="cls-35" d="M110.22,347.93c1.6,4.42,4.41,8.17,6.75,12.18-3.7.81-7.43.31-11.15.24Z" transform="translate(-38.37 -67.74)"/><path class="cls-36" d="M79.4,346.8c1-.66,1.22-2.4,2.92-2.07-.94,7.36-5.2,13.17-8.79,19.32-.49.84-3.47,2.13-.28,3.49-1.5,2.25-4.33.55-6.08,2C71.66,362.22,76.39,355,79.4,346.8Z" transform="translate(-38.37 -67.74)"/><path class="cls-37" d="M60.51,307.58c2.89.28,2.7,3,3.65,4.73,1.32,2.44,2.56,4.91,4.08,7.83-4-1-7.68-1.79-9.86-5.42a4.39,4.39,0,0,1-.88-4.29C58.18,309.14,57.37,306.27,60.51,307.58Z" transform="translate(-38.37 -67.74)"/><path class="cls-38" d="M93.35,242.76c.33,0,.66,0,1,0a17.82,17.82,0,0,1-.22,2.93c-.53,2.33-3.41,5.08,1.29,6.41a9,9,0,0,1-.15,1.85c-1.44,1.94-.94,4.9-3.32,6.35-2.21-.05-4.73.59-5.57-2.5l1-1.94C89.37,251.46,90.79,246.85,93.35,242.76Z" transform="translate(-38.37 -67.74)"/><path class="cls-39" d="M70.28,242.68c-2.34.3-1.53-2.36-2.85-3-1.32-2.76-1.23-5.74-1.24-8.68,0-1.63.69-3.08,2.5-3.08s2.67,1.34,2.57,3C71,234.84,70.61,238.76,70.28,242.68Z" transform="translate(-38.37 -67.74)"/><path class="cls-40" d="M304.23,76.76c-4.57,3.75-10.31,5.88-14.37,10.44.46-3,3.57-4.25,5.38-7.82C292.77,81,291,81.6,289.9,82.87,287.24,86,288,82,287,81.65,292.2,78.13,298.41,78.13,304.23,76.76Z" transform="translate(-38.37 -67.74)"/><path class="cls-41" d="M300,177.71c.35,2.21-.63,5.36,3.84,4.07,3-.88,3.06,2.66,4.53,4.11-.09,2.53-1.83,2.79-3.79,2.75-1.13-.13-1.72-1-2.4-1.77a5.84,5.84,0,0,1-3.07-4.06C299.48,181.12,298.69,179.23,300,177.71Z" transform="translate(-38.37 -67.74)"/><path class="cls-42" d="M92.07,259.6c1.26-1.79.93-4.47,3.19-5.69.89,2.64-1.56,5-.71,7.59-1.7,6.42-5.57,3.76-9.18,2.2v-1.91C87.07,259.41,90.42,262.11,92.07,259.6Z" transform="translate(-38.37 -67.74)"/><path class="cls-43" d="M65.34,294.73l4,0c-1.93,1.63-1,3.86-1.21,5.85-2.68-.24-3.9-2.61-5.83-3.95Z" transform="translate(-38.37 -67.74)"/><path class="cls-44" d="M50.33,326.87c4,.44,8.16-1.16,12.05.87-2.35.95-4.29,2.92-7.05,2.85.38-1.12,3.13-2.89-.82-2.81C53.07,327.81,51.5,328.14,50.33,326.87Z" transform="translate(-38.37 -67.74)"/><path class="cls-23" d="M126.18,256.78c2.07,2.24.91,5.31,2,7.83a1.16,1.16,0,0,1-1.16,1.67c-1.36-.18-1.69-1.36-1.69-2.61C127.42,261.59,125.57,259,126.18,256.78Z" transform="translate(-38.37 -67.74)"/><path class="cls-45" d="M60.51,307.58c-2-.11-2,1.95-3,2.85.24-1.73-3.24-2.57-1.38-4.38,1.13-1.1,3-.62,4.35.65A2.37,2.37,0,0,0,60.51,307.58Z" transform="translate(-38.37 -67.74)"/><path class="cls-1" d="M188.27,256.7c1.08.16,2.6-.25,2.8,1.33.24,1.91-1.12,2.54-2.77,2.71a6.67,6.67,0,0,1-1.13-3.77Z" transform="translate(-38.37 -67.74)"/><path class="cls-32" d="M64.32,259.79l10-.07A11.49,11.49,0,0,1,64.32,259.79Z" transform="translate(-38.37 -67.74)"/><path class="cls-46" d="M385.38,133.76c-1.25-2.36-3.88.24-5.35-1.62l7.2-1.17Z" transform="translate(-38.37 -67.74)"/><path class="cls-47" d="M436.27,261.86c-.45,1.92.49,3.55,1.08,5.25,4.65,13.61,9.34,27.2,13.91,40.84a52.53,52.53,0,0,1,1.36,6.76c-1.7,4-4.2,3.84-7,1.24-4.56-4.26-7.67-9.62-10.8-14.91a313.49,313.49,0,0,1-28.72-65.15c-1.87-2.86-1.81-6.48-3.58-9.39a27.42,27.42,0,0,1,2.64,11.26c.92,9.46-1.59,18.36-4.42,27.22-2.62,8.19-5.16,16.4-7.74,24.6-3.67.8-2.95-2.22-3.21-4-1.45-9.67-2.54-19.39-3.75-29.09-1.93-15.45-4.76-30.81-4.32-46.48a38.76,38.76,0,0,1,1.17-9.35c.44-1.56.77-3.58,2.72-3.71,1.69-.11,2.05,1.88,2.85,3.06a18.3,18.3,0,0,1,1.15,2.73,81.39,81.39,0,0,0,5.45,9.79,13.66,13.66,0,0,1,2.09,4.06,10.82,10.82,0,0,0-2.07-4,96.13,96.13,0,0,1-5-9c-.92-3.94-4.38-6.64-5.21-10.63,3-3.79,5.9-2.2,8.74.16,1.69,1.4,3,3.74,5.75,2.12a3.87,3.87,0,0,1,1.35.27c3.59,2,7.05,4.15,10.67,6.05a421.17,421.17,0,0,1,22.78,55.44C434.72,258.62,434.88,260.51,436.27,261.86Z" transform="translate(-38.37 -67.74)"/><path class="cls-47" d="M373.07,164.74c5.85.56,9.92,5,15.13,6.95,13.59,5.06,18.77,16.68,22.91,29.14-4.17-.53-7.18-3.56-10.9-5.07h0c-4.62-1.27-8.2-5.16-13.27-5.31-2-1-1.95-3-2.11-4.75a16.9,16.9,0,0,0-8.08-13.51,13.32,13.32,0,0,1-3.86-3.84,4.24,4.24,0,0,1-.51-1.46A2.62,2.62,0,0,1,373.07,164.74Z" transform="translate(-38.37 -67.74)"/><path class="cls-48" d="M373.07,164.74c0,.69,0,1.39,0,2.09-1.43,10.43-3.54,20.78-4.09,31.33-3.61,2.94-7.81,5.19-10.71,9-.68.9-1.93,1.37-2.74-.19a259.44,259.44,0,0,1,3.84-35.51C361.36,163.14,366.13,160.79,373.07,164.74Z" transform="translate(-38.37 -67.74)"/><path class="cls-49" d="M359.41,171.49a10.91,10.91,0,0,1,.7,6.35c-2.63,9.8-1.92,20-3.76,29.89.84,3.34,1.1,6.58-1.73,9.24-2.69-2.21-1.76-5.16-1.26-7.77,1.47-7.63,1.53-15.39,2.71-23.16-1.79,0-1.91,5.28-4.63,1.37-.48-3.31,1.36-6,2.38-8.91s2.24-5.86.85-9a3.1,3.1,0,0,1,.17-1.38c.65-.91,1.47-.55,2.25-.3.62-2-1.22-4.85,1.89-6.08C359.12,165,359.27,168.23,359.41,171.49Z" transform="translate(-38.37 -67.74)"/><path class="cls-50" d="M357.08,149c1.4-2.36,2.8-4.72,4.22-7.06,1.54-2.53,3.88-.38,5.76-1,1.59,1.06,3.78-.6,5.21,1.15-4.55,3.4-9.69,5.72-14.87,8A.85.85,0,0,1,357.08,149Z" transform="translate(-38.37 -67.74)"/><path class="cls-51" d="M372.27,142.09l-5.22-1.15c6.11-.29,11.66-2.45,17-5.13C382.55,142.4,376.89,141.26,372.27,142.09Z" transform="translate(-38.37 -67.74)"/><path class="cls-52" d="M400.21,195.76c4.18.5,7.26,3.39,10.9,5.07a.79.79,0,0,1,.26.66C406.77,201.3,403.48,198.55,400.21,195.76Z" transform="translate(-38.37 -67.74)"/><path class="cls-53" d="M359,161.71c-1.47,2.22-.13,4.79-.91,7.08a.49.49,0,0,1-.35.24,1.17,1.17,0,0,1-.44-.18c-1.41-1.9-1.48-4.09-1.34-6.32a8.79,8.79,0,0,1,.45-2.38,3.81,3.81,0,0,1,2-2.38A5.09,5.09,0,0,1,359,161.71Z" transform="translate(-38.37 -67.74)"/><path class="cls-49" d="M358.4,157.77l-.9,2c-2.32-3.36-2.33-7-1.25-10.75a1.19,1.19,0,0,1,.83-.06c.11.37.21.74.32,1.1C358.49,152.53,358.33,155.16,358.4,157.77Z" transform="translate(-38.37 -67.74)"/><path class="cls-54" d="M198.52,298.8c.25-.37.51-.73.77-1.1,2.2-6.42,7.47-9.61,13.28-11.77,7.92-2.94,15.85-5.87,23.91-8.42,4-1.27,8.08-2.15,11.81.88-1,6.52-6.72,11.49-14.54,12.67-4.39.7-8.71,1.71-13,2.82a8.09,8.09,0,0,0-5.24,3.38,11.28,11.28,0,0,1-.84,1.12,45.69,45.69,0,0,1-6.57,6.17c-2.15,1.12-3.56,3.71-6.5,3.24C199.43,305.18,199.45,301.82,198.52,298.8Z" transform="translate(-38.37 -67.74)"/><path class="cls-55" d="M201.58,307.79l5.54-4c3.68-.52,5-3.78,7.17-6.12l0,0c1.75-2.95,4.5-4.19,7.78-4.54.86-.1,2.18.11,2.05.73-.31,1.51-.15,1,.88.61,3.09-1.23,6-4.73,9.66-1.17a6.79,6.79,0,0,1-2.73,5.94c-.73.39-2.15.32-2.25.79-1,5-5.33,6.3-9.14,8.16-3.74-.83-6.29.44-7.76,4.07a13.42,13.42,0,0,1-3.89,5c-5.38,3.79-4.74-1.8-6.27-4C201.67,311.53,200.93,309.79,201.58,307.79Z" transform="translate(-38.37 -67.74)"/><path class="cls-56" d="M145.32,315.71c.2-2.85-.16-4.7-3.69-2.67-5.63,3.24-11.58-.52-17.34.58.83-2.85,3.26-1.91,5.17-2.21.76-.56,2.6,1.25,2.42-.58-.37-3.75,2.46-4.34,4.71-5.47,2.81-1.4,5.57-2.73,7-6.34-4.34.9-6.37,5.55-10.76,5.23a3.07,3.07,0,0,1-2-4.22c1.81-2,4.74-2.15,6.53-4.14,1.19-4.18,6.14-3.6,8.27-6.58,1.07-.87,2-2.08,3.64-1.7,2.28,3.94.67,7.67-.53,11.45-.59,1.85-.9,3.79-1.43,6.07,2.43-.54,3.17-2.72,4.88-3.52a.75.75,0,0,1,.19,1.26c-1.63,2.4-4.73,4.22-3.09,7.89C148.3,312.7,148.56,315.6,145.32,315.71Z" transform="translate(-38.37 -67.74)"/><path class="cls-57" d="M202.59,313.24l1.83-2c1.11,2.12-3.26,8.35,3.85,5.43,2-1.2,4.13-2.24,6.53-.9a5.88,5.88,0,0,0,2.38.43c8,0,16.08.31,24.12.05,5.32,0,10.66-.41,15.93.62,1.78.35,3.69.39,5,1.9l2.94,1.69c-2.82,1.86-5.89,1.82-9.05,1.21a30.92,30.92,0,0,0-12.85.05c-4.53,1-8.92-.32-13.36-.58-7.16-.4-14.28.58-21.43.57-1.92,0-4.14.42-5-2.16C203.46,317.39,201.86,315.48,202.59,313.24Z" transform="translate(-38.37 -67.74)"/><path class="cls-58" d="M134.12,268.69c.32-3.74,3.27-6.9,2.38-10.89.56,1.36,1.11,2.72,1.67,4.09,1.92,6.7,2.73,13.73,5.79,20.12.28,2.09-.65,3.89-1.52,5.65-2.15,4.3-4.34,4.69-8.54,1.68C133.22,282.45,131.46,275.54,134.12,268.69Z" transform="translate(-38.37 -67.74)"/><path class="cls-59" d="M134.22,289.6c6.33,1.14,5.42,2.31,9-7.94-1.18-3.39.87-6.3,1.49-9.4a76.76,76.76,0,0,0,1.48-8.12c.42-1.69.74-3.45,2.32-4.55a10.38,10.38,0,0,0,2.79,1.22c-2.26,6.67-2.94,13.76-5.6,20.33-.6,1.49-1,3.2.56,4.54.83,1.34.5,2.69,0,4a17.56,17.56,0,0,0-2.38,3c-1.54,3.21-2.42.17-3.63-.5-.81,1.53.54,4-2.14,4.35a57.5,57.5,0,0,1-7-2.1c-1.64-.71-3.68-1.25-3.34-3.6s2.37-2.32,4.21-2.35A3.28,3.28,0,0,1,134.22,289.6Z" transform="translate(-38.37 -67.74)"/><path class="cls-60" d="M120,331c9.2-.64,17.5-3.94,25.37-8.52,3-.55,5.55.77,8.06,2.13l1.92,2.06c-.2,1.77.34,3.68-.92,5.27a1.16,1.16,0,0,1-1.26-.19q-13.9-.13-27.8-.28C123.54,331.48,121.69,332,120,331Z" transform="translate(-38.37 -67.74)"/><path class="cls-61" d="M147.49,263.83c-.08,6.26-2.56,11.95-4.26,17.83a31.92,31.92,0,0,1-5.06-19.78c1.86-3.39,4.6,0,6.79-.87C146.67,261.17,146.64,262.89,147.49,263.83Z" transform="translate(-38.37 -67.74)"/><path class="cls-62" d="M144.36,258.77c-3.75-7.82-5.64-15.84-2.62-25.93,2.94,4.67,3.81,8.71,4.64,12.76,1,3.14,2.94,6.1,2,9.65C147.74,257.21,146.93,259,144.36,258.77Z" transform="translate(-38.37 -67.74)"/><path class="cls-63" d="M147.28,255.71c.65-3.45-1.28-6.68-.9-10.11.69.25,1.42,3.68,2.05,0,.59-3.49-1-7.24,1.46-11.46,4,9.24,4.67,17.81,1.42,26.64-1.44,1-2.15.69-2-1.13-2.21-2.21.15-4.59-.35-6.23.18-1.3-1.05-.65-.39-.74.08,0,.11.09.09.32C148.58,254.12,149.59,255.77,147.28,255.71Z" transform="translate(-38.37 -67.74)"/><path class="cls-64" d="M263.18,322.14c.87.77,2.4.24,3,1.53-18,.73-35.92-.83-53.88-1-.11-1.1.59-1.28,1.48-1.46a52.16,52.16,0,0,1,19.25-.41c3,.52,6.1,1,8.88.27,6.84-1.73,13.5.41,20.24.19C262.8,321.25,262.92,321.76,263.18,322.14Z" transform="translate(-38.37 -67.74)"/><path class="cls-65" d="M153.4,324.64c-3.12.91-5.42-1.24-8.06-2.13,3.53-2.28,1.46-4.54,0-6.8l3.93-4.95c1.13,3.26,2.43.82,3.53,0,4.84-3.43,9.85-6.49,15.77-8.2,0,2.25-1.85,2.18-2.86,2.91a26,26,0,0,1-4,2.05c-3.46,1.65-6.79,3.54-9.28,6.49-2.28,2.7-2.91,5.51.87,7.67l0,0Z" transform="translate(-38.37 -67.74)"/><path class="cls-66" d="M154.34,331.49c1-1.46-2-3.75,1-4.79l28.06,3.55c-9.36,2.66-19,.56-28.4,1.5C154.64,332,154.43,331.88,154.34,331.49Z" transform="translate(-38.37 -67.74)"/><path class="cls-67" d="M263.18,322.14c-7.11-.46-14.19-1.45-21.38-.62a44.25,44.25,0,0,1-11.92-.46,36.28,36.28,0,0,0-17.58,1.62c-3.13-.5-7.68,2.94-8.79-3.16,2.79,2.41,6.11,1.23,9,.87,8-1,15.88-.25,23.83-.22,9.6,0,19.21.13,28.82.26l2.27.53-.09.64Z" transform="translate(-38.37 -67.74)"/><path class="cls-68" d="M146.31,289.72c-1-1.33-.73-2.68,0-4,2.81-3.43,5.69-6.76,10.92-8-1.75,4.58-5.67,6.6-8,9.91Z" transform="translate(-38.37 -67.74)"/><path class="cls-65" d="M153.32,321.72c3.75-5.46,9.29-7.52,15.41-8.46l.7,1.37L153.3,321.7Z" transform="translate(-38.37 -67.74)"/><path class="cls-69" d="M162.29,294.8c4.54-1.92,9.07-3.84,14.9-2.81-4.59,3-9.44,3.35-13.85,4.9-.75.38-1.58.44-2-.33S161.58,295.18,162.29,294.8Z" transform="translate(-38.37 -67.74)"/><path class="cls-70" d="M147.28,255.71c1.63-.83.5-2.73,2-4.55v8.52c-1.43,1-1,2.87-1.82,4.15-1.45-.4-1.94-1.65-2.53-2.82l-.6-2.24A6.25,6.25,0,0,0,147.28,255.71Z" transform="translate(-38.37 -67.74)"/><path class="cls-71" d="M162.29,294.8c-.76,1.25-.41,1.95,1.05,2.09q-5.51,3-11,6c-.07-.42-.13-.84-.19-1.26A22.8,22.8,0,0,1,162.29,294.8Z" transform="translate(-38.37 -67.74)"/><path class="cls-72" d="M322.93,322.87c-1.25-1.52-3-1.1-4.61-1.18-12.28-.62-24.56-1.27-36.85-1.84a7.05,7.05,0,0,1-4.13-1.44c-3.47-3.83-2.54-8.67-3-13.18.9-2.62.24-5-1-7.38-.85-4.54-.52-9.1-.31-13.66.59-3.79,3-4.85,6.48-4.28s7.2,1.24,10.72,2.17a18.35,18.35,0,0,0,8.83.32c5,3.17,10.94,2.91,16.45,4.24,3.9.68,7.76,1.63,11.75,1.71,5.25.74,9.94-1.76,14.91-2.62,3.71,0,4.63,1.93,4.64,5.45a36.26,36.26,0,0,1-3.2,15.41,8.13,8.13,0,0,0,1.57,9.67c1.11,1.17,2.83,2.51,2,4.23-.91,1.88-3.16,1.46-5,1.54-5.63.24-11.3-.49-16.92.47A7.61,7.61,0,0,1,322.93,322.87Z" transform="translate(-38.37 -67.74)"/><path class="cls-73" d="M324.22,321.64c4.79-2,9.81-.52,14.71-.9,2.44-.18,4.91,0,7.27,0,.46-1.62-.61-2.17-1.28-2.75-4-3.42-5.13-7.86-2.45-12.06,3.27-5.13,1.75-10.89,3.32-16.19.58-1.94-1.37-3.17-3.58-3-.23-.24-.57-.52-.55-.79C343,273.3,344,260.64,348,248.47a7.48,7.48,0,0,1,.84-1.31c4.6-4,7.6-4.07,12.17-.47-.12,5.77-2.6,11-4,16.42-.94,3.71-1.8,7.46-3,11.09-1.11,3.35-1.05,5.51,3.38,5.34a6.24,6.24,0,0,1,5.51,2.92c.67,1,1.25,2.14.24,3.17-.85.87-1.93.41-2.72-.22-2.8-2.22-5.58-1.61-8.38-.05s-3.3,3.86-.79,6a119.54,119.54,0,0,0,14.35,10c1.74,1.07,2.83.19,3.38-1.53a64.79,64.79,0,0,0,1.91-8.27c2.61-14.73,1.62-29.54.48-44.26-.51-6.59.31-13,.68-19.4.44-7.8,1.7-15.54,1.89-23.37a7.31,7.31,0,0,1,.42-2.46c.43-1.1,1-2.25,2.4-2.11,1.21.12,1.39,1.31,1.6,2.25a16,16,0,0,1,.2,5.48c-1.12,8.92-1.43,17.91-2.58,26.83a77.4,77.4,0,0,0-.07,16.46,181.92,181.92,0,0,1-.4,39.86c-.59,4.48-2,8.76-3,13.14-.56,2.38-1.59,5.29,1.27,6.73a7,7,0,0,0,8.31-1.44c2.45-2.35,3.78-5.42,5.36-8.36,1.34-2.5,1.42-5.95,4.75-7.14q.06,20.46.1,40.93c-1.9,1.95-4.28,1.41-6.58,1.22-13.09-1.08-26.14-2.88-39.32-2.63-2.13,0-4.38.26-6.16-1.4-4.2-1.17-8.65.84-12.79-1.05,2-2,4.68-1.29,7.1-1.5,2.07-.17,4.19-.23,4.1-3.12s-2.26-2.77-4.28-3C330.93,322.77,327.28,324.16,324.22,321.64Z" transform="translate(-38.37 -67.74)"/><path class="cls-74" d="M340.18,331.81c15.14-1.06,30.11,1.26,45.13,2.42,2.31.18,4.62.26,6.93.39,15.32,1.41,30.64,2.77,45.95,4.28,1.68.17,4.11-1,4.89,1.8H300.63c3.18-2.63,5.69-2.63,8.13-3C319.26,335.88,330,335.07,340.18,331.81Z" transform="translate(-38.37 -67.74)"/><path class="cls-75" d="M275,304.93q1.14,6.74,2.3,13.48c-2.51,2.46-5.58,1.38-8.3.92a33,33,0,0,0-6.78-.59l-21-1.08c-2.69-1-5.48-.4-8.22-.42-3.33,0-5.35-1.19-5.31-4.8,4.18-1.68,6-5,6.56-9.29a4,4,0,0,1,2.19-3.12,6.69,6.69,0,0,1,3.19-.47A237.17,237.17,0,0,0,275,304.93Z" transform="translate(-38.37 -67.74)"/><path class="cls-76" d="M324.22,321.64c4.16,0,8.33.22,12.48,0,3.55-.17,3.62,1.93,3.57,4.47s.3,4.8-3.39,4.6c-3.16-.16-6.33,0-9.49,0-2.62-2-3.6-4.9-4.46-7.89Z" transform="translate(-38.37 -67.74)"/><path class="cls-77" d="M154.34,331.49a2.53,2.53,0,0,0,.64.26c.29,2,1.77,3.84,1.09,6.49-2.09-1.89-2-4.4-2.93-6.46Z" transform="translate(-38.37 -67.74)"/><path class="cls-48" d="M392.14,293.69c-2.34,4.87-4.08,10.05-7.21,14.53-2.11,3-4.66,4.86-8.72,4.58-5.09-.36-7-2.17-5.73-7.16,1.62-6.42,3.51-12.73,4.12-19.39a178.25,178.25,0,0,0,0-33.79c-1-10,.26-19.84,1.07-29.75.6-7.33,2-14.66,1.44-22.23-2.23.66-1.83,2.18-1.86,3.41-.3,11.26-2.22,22.4-2.76,33.61-.46,9.38.79,18.84,1.24,28.27a114.79,114.79,0,0,1-4,36.79c-.68,2.43-2.31,1.95-3.85.91-5.34-3.63-10.74-7.18-15.94-11-3.33-2.44-3.07-5.66.28-7.73,5.83-3.6,7.16-3.56,12.88.7-1.44-4-4-5.41-7.39-4.62-5.52,1.31-4.78-1.29-3.69-4.92,2.81-9.36,5.41-18.78,8.07-28.19a9.25,9.25,0,0,0,.13-2c-1.44-2.16-.16-4.21.39-6.2,3.49-12.5,7-25,7.71-38.05,1.42-3.17.73-6.55.94-9.84.52-8.09,1.49-16.11,4-23.87,2.07,1.63,4.08,3.33,6.21,4.86,4.53,3.24,6.22,7.85,6.62,13.15.1,1.4-.53,3,1.08,4,.59,1.72-1.83,1.63-1.8,3,1.43,3.73,4.85,6.58,4.85,11l0,0c-2.7-1.21-2-4.92-5-6.31-2.82,8.9-2.52,18-1.49,27.16,2,17.89,4.21,35.76,6.68,53.6.52,3.8-.65,8.17,2.61,11.39C392.73,291,392.44,292.32,392.14,293.69Z" transform="translate(-38.37 -67.74)"/><path class="cls-78" d="M405.18,237.76l-3.93-13.31c3.31,3.2,4.4,7.2,4.87,11.44C405.81,236.52,405.49,237.14,405.18,237.76Z" transform="translate(-38.37 -67.74)"/><path class="cls-79" d="M357.15,161.94l.12,6.91-2-1.36c-5.13-3.53-5.62-4.7-4.34-10.38-2.83,5.43,2,8.17,4.17,11.84a5,5,0,0,1,1.23,6.2c-1.58,3.78-2.83,7.7-4.22,11.56-.28,4.24-2.92,7.41-4.9,10.89-.82,1.35-1.64,2.69-3.37,3-5.79-1.06-9.23-5.74-10-13.62a133.27,133.27,0,0,1,2.44-31.65c.47-2.36-.19-6,3.93-6.36,4.4,3.11,9.15,2.21,13.91,1.23C357.61,153.48,355.84,158.11,357.15,161.94Z" transform="translate(-38.37 -67.74)"/><path class="cls-80" d="M360.17,116.86c6.31,7.56,5.72,14.34-2,22.84-2.16-.34-2.16-.34-2.88-2.85-.45,4.56-1.77,5.6-5.6,4.4-6.48-2-10.15-7.78-9.68-15.09.11-1.74.95-3.46.22-5.24,4.9-9.5,10.89-12,19-8.12C360.59,113.92,359.34,115.63,360.17,116.86Z" transform="translate(-38.37 -67.74)"/><path class="cls-81" d="M340.18,149c-2.3.5-1.71,2.53-2.07,4-2.75,11.47-2.42,23.21-3,34.87-1.55,5.82-2.59,11.87-7.13,16.39-3.3,0-3.77-2.07-3.39-4.65.32-2.11,1.31-4.08,1.49-6.23,7.44-9.69,1.24-16.81-4.55-24a3.84,3.84,0,0,1-.75-1.94c-1.54-1.69.43-1.87,1.13-2.4a63.29,63.29,0,0,0,12.35-11.5c1.53-2,3.17-3.91,2.76-6.69C338.25,147.32,339.61,147.6,340.18,149Z" transform="translate(-38.37 -67.74)"/><path class="cls-82" d="M340.22,120.92c1.79.38,1.36,1.26,1.09,2.74-1.35,7.23,1.39,13,7.17,15.9,1.65.81,3.55,1.89,5.17.87s.24-3.06.45-4.63c.11-.87-.87-1.91.36-2.62,3,1.19-.06,5.78,3.7,6.52-1.25,2.57-7.3,4.28-11.05,2.81C340.85,140.05,334.52,129.71,340.22,120.92Z" transform="translate(-38.37 -67.74)"/><path class="cls-83" d="M344.3,106c.73,1,1.89.54,2.83.85a57.57,57.57,0,0,0-9.12,5.53C338.83,109,341.13,107.07,344.3,106Z" transform="translate(-38.37 -67.74)"/><path class="cls-84" d="M357.15,161.94l-3.06-11.71,2.16-1.22q.63,5.38,1.25,10.75C357.38,160.49,357.27,161.21,357.15,161.94Z" transform="translate(-38.37 -67.74)"/><path class="cls-85" d="M319.88,106.89,328,103c.18.36.36.73.55,1.09A15.62,15.62,0,0,1,319.88,106.89Z" transform="translate(-38.37 -67.74)"/><path class="cls-86" d="M360.17,116.86c-2.61-.83-.82-2.66-.92-4.06,1.84.12,3.33,1.14,3.52,2.81C362.9,116.79,360.57,115.36,360.17,116.86Z" transform="translate(-38.37 -67.74)"/><path class="cls-87" d="M315.94,110.84l-.33.15-.3-.2a8.28,8.28,0,0,1,7.56-1.63C320.73,111.79,318.14,110.49,315.94,110.84Z" transform="translate(-38.37 -67.74)"/><path class="cls-88" d="M94.21,298.77l.13-5c-.35-.85.16-1.26.81-1.6a3.05,3.05,0,0,1,2,.1c7.33.28,7.33.28,9.15,7.45-1.7,5.31-1.5,11.19-4.86,16.36l-5.21-7.23c-1.36-2.9-.08-6.33-1.85-9.14a.6.6,0,0,1-.31-.56C94.1,298.88,94.15,298.77,94.21,298.77Z" transform="translate(-38.37 -67.74)"/><path class="cls-89" d="M134.22,289.6l-1.83,0a7.51,7.51,0,0,0-5.08.11,3.14,3.14,0,0,1-2.77-1q-.6-3-1.22-5.93c1.73-3.77,3.45-7.54,5.2-11.3,1.12-2.41,2.43-4.49,5.6-2.78C134.17,275.66,135.08,282.62,134.22,289.6Z" transform="translate(-38.37 -67.74)"/><path class="cls-43" d="M69.39,294.78a2.28,2.28,0,0,1,.08-1c1.21-.86.76-3.29,3-3.2,2.29-.17,1.14-1.51.62-2.28a41.73,41.73,0,0,0-4.38-5.75c-1.73-1.77-1-2.69.65-3.67,5.09.56,6.84,4.67,8.88,8.43,1,1.78,1.2,4.33,4.25,3.65a2.89,2.89,0,0,1,1.92.61c3.22,1,1.61,4,2.13,5.94.32,1.19-2,1.06-3.29,1.27A52.26,52.26,0,0,0,69.39,294.78Z" transform="translate(-38.37 -67.74)"/><path class="cls-90" d="M124.54,288.7l2.8,0c.74,4.13,2,8.14,2.75,12.27.73,1.9,1.64,3.76,1.59,5.87,0,1.9.83,4-1.35,5.41-1.92.91-4.25-.13-6,1.33l-2,.49c-3.75-1.39-1.24-4.24-.38-5.08,5.93-5.73,3.59-12.33,2.54-18.84A6.32,6.32,0,0,1,124.54,288.7Z" transform="translate(-38.37 -67.74)"/><path class="cls-91" d="M106.3,299.67a2.64,2.64,0,0,1-1.83-2.1c-.56-3.76-1.84-5.87-6-3.39-2.27,1.34-1.24-.74-1.28-1.6,1-3.07,3.84-1.45,5.72-2.28l1.22-.49a5,5,0,0,1,2.56-.65,3.26,3.26,0,0,1,2.73,2.68Z" transform="translate(-38.37 -67.74)"/><path class="cls-92" d="M68.44,337.62c-3.45.67-4.95,3.72-7.2,5.86-1.23-3.24,2.12-4.25,3.27-6.25a33.31,33.31,0,0,1,7.88-9.48A44.84,44.84,0,0,1,68.44,337.62Z" transform="translate(-38.37 -67.74)"/><path class="cls-93" d="M80.41,320.61c-2.48,3.47-3.73.73-5.17-1-.71-1.09-.8-2.1.34-3Z" transform="translate(-38.37 -67.74)"/><path class="cls-94" d="M109.37,291.84l-3-2.21a1.9,1.9,0,0,1-.42-2.46c1.6-1.19,3.7.86,5.22-.81a1.29,1.29,0,0,1,1.19.29c.05.38.09.75.14,1.12Z" transform="translate(-38.37 -67.74)"/><path class="cls-95" d="M75.58,316.59c-.11,1-.23,2-.34,3-3.31-.94-2-3.51-2-5.62Z" transform="translate(-38.37 -67.74)"/><path class="cls-1" d="M248.16,278.78c-4.59-1.66-9-1.17-13.49.65a152.87,152.87,0,0,1-16.82,5.86,34.75,34.75,0,0,0-18.56,12.41c-.3-2-1.31-3.77.24-6.08,1.78-2.65-.36-5.2-2.49-6.68a3.52,3.52,0,0,1-1.72-3.71,13.08,13.08,0,0,0-2.67-9.79c-.2-.26-.47-.65-.41-.89,1.66-5.71,3-11.54,5.25-17,.67-1.69,2.9-.51,3.7,1.35,1.85,4.33,4.09,3.91,6.34.38,1.35-2.11,3.29-2.46,5.54-2.67,1.27-.12,2.85-1,2.44-2.54-.45-1.69-2-1.3-3.32-.72-.31.13-.6.3-.9.43-1.81.76-4.35,2.18-5.31.12s1.77-3.3,3.33-4.78c3.37-3.18,7.69-4.86,11.13-7.88,2.57-2.26,5.24-4.49,8.91-5,2.9-.44,5.28-1.77,6-5.09.52-2.24,2.79-3.27,4.15-1.74,4.13,4.65,7.1-.76,10.61-.81.69,0,1-.8.86-1.53a1.48,1.48,0,0,0-1.91-1.13c-1.3.23-2.55.69-3.84,1s-3,1.84-3.7-.42c-.57-1.83,1.25-2.51,2.61-3.09,2-.86,4-1.43,5.66-3a2.66,2.66,0,0,1,4.28.59c.55.91.51,2.61,2.18,1.93,1-.4,1.12-1.61.71-2.62-.58-1.44.38-2.21,1.23-3,4.45-4,8.77-8.18,14.85-9.48a4.5,4.5,0,0,0,3.61-3,7.4,7.4,0,0,1,7-4.78c2.62,0,4.21,2.81,6.09,5,4.55,5.24,3.07,8.37-1.81,11.8-1.63,1.15-1.81,3.44-1.73,5.52.15,3.66-1.27,5.38-4.65,2.86-2.28-1.7-4.65-1.45-7.11-1.51-3.5-.08-5,1.6-5.26,5.12-.54,8.19-1.59,9.17-9.41,9.88-1.87.17-4.08.38-4.36,2.52-.65,4.91-4.37,6.78-8,8.84A14.83,14.83,0,0,0,241.57,266c.15.29.3.68.56.8,2.59,1.25,7,.49,6.13,5.55,3.74-1,2.88,1.88,3.16,3.79C251.12,278,250.4,279.3,248.16,278.78Z" transform="translate(-38.37 -67.74)"/><path class="cls-96" d="M248.16,278.78l3.26-2.66a9.84,9.84,0,0,0,4.64-5c2.79-7.36,9-11.29,15-15.36a19,19,0,0,0,4.36-3.87l0,0c7.69-6.37,11.89-14.88,14.47-24.24,1.94-7,5.35-13.43,8-20.14s4.62-13.39,4.3-20.63l2.18.92c1.15,7.5-.94,14.53-4,21.12A234.65,234.65,0,0,0,291,233,49.87,49.87,0,0,1,272,258.66c-5.46,3.86-10.75,7.68-13.76,14a16,16,0,0,1-6,6.57c-4.64,3.32-7,8.91-11.85,12a8.7,8.7,0,0,1-4.22.94c-1.18-.56-3.15-.23-2.84-2.5C241.32,290.15,244.19,283.72,248.16,278.78Z" transform="translate(-38.37 -67.74)"/><path class="cls-1" d="M291.88,190.77c2.21.94,4.75,2.71,6.26-1.13.06-.15,1.16-.16,1.24,0,1.33,2.94-1.24,5.12-1.74,7.73-.33,1.68-2.25.6-3.12-.35a7.51,7.51,0,0,0-3.72-2.22c-1.1-.29-3.23.61-3-1.43C288.06,191.61,290.15,191.33,291.88,190.77Z" transform="translate(-38.37 -67.74)"/><path class="cls-1" d="M275.4,251.86c-2.84-.55-2.64-3.94-4.83-5.22-.6-.35-.48-2,.6-2.53s1.77.27,2.34,1.18a11.57,11.57,0,0,1,1.87,6.59Z" transform="translate(-38.37 -67.74)"/><path class="cls-1" d="M252.51,266.94c.31.29,1.06.67,1.1,1.12a2,2,0,0,1-1.68,2,1.12,1.12,0,0,1-1.34-1.07C250.44,267.88,251.1,267.24,252.51,266.94Z" transform="translate(-38.37 -67.74)"/><path class="cls-97" d="M320.78,167.44a2.17,2.17,0,0,1,1.59,1.56c.94,2.64-1.46,3-2.83,3.72-2.38,1.26-4.35,3.57-7.42,3.28-.12-1.74-2.06-4,1.35-4.74C316.22,170.59,318.35,168.73,320.78,167.44Z" transform="translate(-38.37 -67.74)"/><path class="cls-98" d="M82.58,291.88c-3.25,2.18-4.11-.6-4.8-2.62-1.54-4.55-4.55-7.76-8.42-10.35l-.21-1c1.09-.19,2.07-.53,2.16-1.88,3.84-.24,4.1,3.44,5.93,5.4l1,.38a2.34,2.34,0,0,0,.19.86C79.64,285.79,82.6,288.16,82.58,291.88Z" transform="translate(-38.37 -67.74)"/><path class="cls-99" d="M82.58,291.88a24,24,0,0,1-4.2-9.22l5.9,7.09c0,.62.09,1.24.13,1.85Z" transform="translate(-38.37 -67.74)"/><path class="cls-100" d="M111.36,286.7c-1.63,3.67-3.37,2.16-5.12.11l-.6-.37c-1.92-2.23-3.39-4.82-5.52-6.89a3.33,3.33,0,0,1-1-4c.48-1.69,2.12-2.88,2-4.81,2.88,0,2,3.78,4.38,4.35C108.5,278.46,111,282,111.36,286.7Z" transform="translate(-38.37 -67.74)"/><path class="cls-101" d="M116.46,258.71l.92,1.84c2.49,5.08.72,10.27.43,14.95,1.24-2.76-.76-7,3-9.44,1.06,2.06,2.05,4.17,3.21,6.17,1.32,2.28,1,4.07-1.24,5.49a12,12,0,0,0-1.78.83c-1.21.81-2.43,2.28-3.88,1.59-1.62-.76-.79-2.68-.8-4.07C116.31,270.28,116.41,264.5,116.46,258.71Z" transform="translate(-38.37 -67.74)"/><path class="cls-102" d="M111.36,286.7l-5.79-11.62c4.89,2.32,6.3,6.67,6.78,11.57C112,286.68,111.69,286.7,111.36,286.7Z" transform="translate(-38.37 -67.74)"/><path class="cls-103" d="M120.85,266.06,118,276.47h-.62v-15.9A8.85,8.85,0,0,1,120.85,266.06Z" transform="translate(-38.37 -67.74)"/><path class="cls-104" d="M95.28,292.67l-.94,1.05c-2.06-.18-4.26-.13-4.86-2.82.65-1.69-.1-3-1-4.35l-1.17-1.85h8.06c5.74-.06,8.22,1.6,9,6.05l-.18-.12C101.49,292.47,97.68,289.53,95.28,292.67Z" transform="translate(-38.37 -67.74)"/><path class="cls-105" d="M93.35,242.76c-1.63,4.51-1.93,9.63-5.94,13.06-1.15-.66-.87-1.48-.41-2.47,1.82-3.81,3.57-7.65,5.35-11.47.05-.11.21-.17.32-.25Z" transform="translate(-38.37 -67.74)"/><path class="cls-24" d="M92.07,259.6c-.74,5.32-4.78.49-6.7,2.19-1.37-1.77-1.94-3.33,1-4C88,259.13,90.18,259,92.07,259.6Z" transform="translate(-38.37 -67.74)"/><path class="cls-106" d="M94.21,298.77a5.38,5.38,0,0,1,.17.89c-.6.6,1.07,3.65-1.7,1.78-1.31-.88-3.11-1.91-3-4.18C91.61,296.78,92.76,298.25,94.21,298.77Z" transform="translate(-38.37 -67.74)"/><path class="cls-107" d="M88.45,286.55c1.3.55,3.22.6,3.46,2.22.17,1.12-1.52,1.48-2.43,2.13C86.68,290,86.76,288.49,88.45,286.55Z" transform="translate(-38.37 -67.74)"/><path class="cls-108" d="M104.36,290.74c-1.48-4.31-5.7-4.5-9-6.05-1.67-2.05-7.21.58-6-5,2.94-.5,6.27,1.71,8.87-1.25,4.38,1.12,5.53,5.37,8,8.3v0l.12,2.82Z" transform="translate(-38.37 -67.74)"/><path class="cls-109" d="M98.3,278.73c-2.27,6.7-5.94.95-9,1,1.24-1.76,3.73-.21,5-1.89l3.81-1.14A1.25,1.25,0,0,1,98.3,278.73Z" transform="translate(-38.37 -67.74)"/><path class="cls-110" d="M77.24,281.42c-3-.65-3.3-4.32-5.93-5.4a6.38,6.38,0,0,1-3.65-3.17c.49,0,1-.07,1.47-.06C77.6,273,77.6,273,77.24,281.42Z" transform="translate(-38.37 -67.74)"/><path class="cls-6" d="M312.12,176c3-2.9,7.58-3.58,10.25-7a31.55,31.55,0,0,0,3.27,4.21c6.56,6,7,12.48,1.58,19.45-.74,1.26-.7,2.94-2.08,3.86-4.93,3.29-6.73,8.44-8.17,13.8-2.73,8.12-5.41,16.26-6.85,24.74-3.1,13.54-6,27.11-8.2,40.84-.38,2.4-.49,5-2.69,6.72-1,2.29-2.8,2.25-4.89,1.79-4.95-1.09-10-1.81-14.88-3.15-3.09-.84-4.62.09-5.5,2.88-4.44,2.05-20.08-1.59-22.76-5.31a30.67,30.67,0,0,0,8-10c2-4.25,5.9-6.69,9.62-9.2,10.72-7.24,18.23-16.77,21.84-29.35a97.32,97.32,0,0,1,7.25-18.53c3.93-7.48,5.15-15.71,6.45-23.92,1.44-.4,3.21-.14,4-1.9C311.7,183.38,311.16,179.4,312.12,176Z" transform="translate(-38.37 -67.74)"/><path class="cls-94" d="M98.3,278.73l-.15-2c.34-.39.68-.77,1-1.16,1.28,4.44,6.42,6.43,7.09,11.24C102.94,284.75,102.05,280.33,98.3,278.73Z" transform="translate(-38.37 -67.74)"/><path class="cls-52" d="M385.36,192.82c-.56-1.7,1.26-2,1.8-3,5.22.1,9.37,2.54,13.07,6-2.66,3.49-4.53,1.2-6.37-.9C391.5,192.17,388.9,190.56,385.36,192.82Z" transform="translate(-38.37 -67.74)"/><path class="cls-48" d="M395.21,212.77c-2.69-2.44-4.76-5.22-5-9l0,0a20.18,20.18,0,0,1,5,9Z" transform="translate(-38.37 -67.74)"/><path class="cls-48" d="M395.23,212.75c2.41,1.32,2.73,3.9,3.46,6.23a11.56,11.56,0,0,1-3.48-6.21Z" transform="translate(-38.37 -67.74)"/><path class="cls-111" d="M373.25,167.76c-1.61,10.72-3.76,21.39-3.13,32.34,0,.55-.54,1.14-.84,1.71a3,3,0,0,1-1.08-3.1c-.93-10.18,2.43-19.93,3.07-30a1.85,1.85,0,0,1,1.84-1.92A3.22,3.22,0,0,1,373.25,167.76Z" transform="translate(-38.37 -67.74)"/><path class="cls-112" d="M368.2,198.71c1.19.75.95,2,1.08,3.1.09,15.28-5.18,29.45-9.07,43.91-3.73.42-7.89-1.67-11.09,1.88a4.42,4.42,0,0,1-.69-4.2c1.63-7.38,2.71-14.86,3.85-22.33.25-1.6.6-3.25,2.06-4.33.67-3,1.34-6,2-9C360.06,204.41,362.09,198.89,368.2,198.71Z" transform="translate(-38.37 -67.74)"/><path class="cls-113" d="M354.34,216.74l-5.22,30.86h0c-4.35,2.82-9.49,1.22-14.11,2.51-8.54-.28-9.58-1.77-10.18-10.32-.57-8.27,3.27-14.72,7.37-21.11S340,206,345,200.38a5.38,5.38,0,0,0,1.53-3.55l5.64-10.12c.32.42.19,2.25,1.23.61,1.17-1.84,1.95-3.92,3.38-5.76C357.76,193.48,354.41,205,354.34,216.74Z" transform="translate(-38.37 -67.74)"/><path class="cls-53" d="M355.1,169c-7-6.12-7.68-10-2.26-15.47-2.76,5.38-2.3,10.11,2.43,14Z" transform="translate(-38.37 -67.74)"/><path class="cls-114" d="M233.37,289.72c.49,1.39,2.26.73,2.91,1.85-.22,1.17-.17,2.66-2.13,1.89-1.75-1.61-3.33-.35-5,.25-2,.73-4,1.91-6,1.84-5.5-.22-5.49-.44-8.85,2.15.62-3.35,3.23-4.36,6-5C224.64,291.63,229,290.7,233.37,289.72Z" transform="translate(-38.37 -67.74)"/><path class="cls-115" d="M238.38,281.87l-24.21,8c7.41-4.83,16.07-6,23.84-9.71Z" transform="translate(-38.37 -67.74)"/><path class="cls-116" d="M214.29,297.68c-1.57,3-2.67,6.55-7.17,6.12Z" transform="translate(-38.37 -67.74)"/><path class="cls-117" d="M234.15,293.46l2.13-1.89,4.15-1a4.29,4.29,0,0,1,6,1.24c.71,2.19.73,4.29-.9,6.14-1.8,1.61-4.53,1-6.32,2.68l-3.13.53a8.18,8.18,0,0,1-1.4,0c-1.31-.6-3.56.11-3.42-2.49C233.13,297.42,232.8,295,234.15,293.46Z" transform="translate(-38.37 -67.74)"/><path class="cls-118" d="M213.93,316.66c-1.88-1.62-3.77.62-5.66,0,1.4-2,3.22-3.84,4.1-6.06,1.69-4.25,4.44-4.72,8.17-3.17A52.43,52.43,0,0,1,213.93,316.66Z" transform="translate(-38.37 -67.74)"/><path class="cls-119" d="M213.93,316.66c.42-4.35,3.72-6.65,6.61-9.25,3.08-2.72,7.91-3.62,8.9-8.57,0-.17,1.22-.11,1.86-.16.84,1.58,3.16.45,3.93,2.15a41,41,0,0,0-7.27,4.84c-5,3.12-10,6.15-12.47,11.9Z" transform="translate(-38.37 -67.74)"/><path class="cls-120" d="M130.33,312.29c.4-1.51,1.26-3,0-4.52.76-1.54.37-4,3.07-4,3.06-1.33,5.53-3.52,8.06-5.61,1-.87,2.16-2,3.37-.72,1,1.09.53,2.62-.4,3.64a19.14,19.14,0,0,1-7.55,5.51c-2,.73-5.21.89-3.64,5C133.81,313.14,131.39,312.18,130.33,312.29Z" transform="translate(-38.37 -67.74)"/><path class="cls-121" d="M129.34,301.7c-2-4.11-2.23-8.5-2-13,1.74-.1,3.55-.6,5,.83-1.36.48-3.73-.85-3.9,1.64-.14,2,2.18,1.45,3.31,2.18,2,1.3,5.36,0,6.36,3.23-2,1.55-3.82,3.69-6.82,3.21C130.6,300.37,130.22,301.3,129.34,301.7Z" transform="translate(-38.37 -67.74)"/><path class="cls-59" d="M129.34,301.7c.12-1.21.58-2.05,2-1.87-.16,1.74.27,3.17,2,3.92l-3.07,4C130.21,305.71,130.5,303.59,129.34,301.7Z" transform="translate(-38.37 -67.74)"/><path class="cls-122" d="M215.49,317.57c-.39-4.35,2.89-6.36,5.66-8.58,1.9-1.52,4.09-2.69,6.14-4,1.52,2.07,2.26,4.26,1,6.74.46,3.8,2.54,5.28,6.38,5.08,2.18-.12,4.62-.91,6.61.87Z" transform="translate(-38.37 -67.74)"/><path class="cls-123" d="M137.65,329.46c2.64-3.36,5.75-2.88,8.77-2.49.48.06.86.82,1.29,1.26-.47.41-.93,1.15-1.41,1.17C143.6,329.52,140.9,329.46,137.65,329.46Z" transform="translate(-38.37 -67.74)"/><path class="cls-124" d="M299.23,282.62c3.13-16.08,5.29-32.35,9.87-48.14,4.51-.85,6-3.65,6.45-8.12a61.08,61.08,0,0,1,2.69-11.48c.75-2.47.23-4.12-2.13-5.15.72-7.63,5.89-12.36,11.11-17.07.37,2.52-.68,4.76-1.46,7-.85,2.42-.11,3.74,2.43,4.05,1.55,2.15.21,4.16-.38,6.14-2.85,9.53-5.92,19-8.16,28.71-1,4.26-.66,8.6-1.55,12.83-2.32,9.49-.93,19.15-1.34,28.72-.11,2.59.55,5.36-1.5,7.57-4.48-.68-8.95-1.38-13.44-2C300,285.4,299.39,284.24,299.23,282.62Z" transform="translate(-38.37 -67.74)"/><path class="cls-125" d="M334.16,248.79l14.95-1.2c-3.76,12.78-4.09,26.16-6.9,39.11-4.86,1.65-9.6,3.89-15,3a5.49,5.49,0,0,1-1.29-3.17,95.28,95.28,0,0,0-6.77-24.39,35,35,0,0,1-2.38-9.61c1.7-2.54,4.84-1.75,7.08-3C327.18,247.41,330.82,250.56,334.16,248.79Z" transform="translate(-38.37 -67.74)"/><path class="cls-126" d="M246.32,292.66c-1.53-1.9-3.76-1.85-5.89-2.07,4.13-3.44,6.16-8.78,10.77-11.76,7.06,4.05,15.17,3.57,22.76,5.3l.36,14.52c-5.09,4.14-10.59,3.82-16.31,1.56a40.36,40.36,0,0,1-5.42-2.42C250.53,296.05,247.59,295.37,246.32,292.66Z" transform="translate(-38.37 -67.74)"/><path class="cls-2" d="M317.28,251.69c2.56,10.39,7.88,19.9,9.42,30.63a73.26,73.26,0,0,1,.53,7.36,39.91,39.91,0,0,1-12-2c.43-11.72-1.06-23.51,1-35.18a8.29,8.29,0,0,1,.76-1.77c.3.15.43.34.4.56S317.36,251.69,317.28,251.69Z" transform="translate(-38.37 -67.74)"/><path class="cls-127" d="M252.59,296.48c6.94,3.77,14.07,5.55,21.73,2.17,3.18,1.75,2.32,4,.72,6.28-6.51,2.35-12.84-.13-19.21-.8a86.72,86.72,0,0,1-16.58-3.48c.65-3.71,4-2.06,6-3a3.09,3.09,0,0,1,2.35-.57Z" transform="translate(-38.37 -67.74)"/><path class="cls-128" d="M358.78,320.74a28.5,28.5,0,0,1-10.67-2.31c-3.94-1.59-5.81-6.55-4.61-11,2.73-10.11,4.89-10.77,12.35-3.53a58.66,58.66,0,0,0,10.35,8.49c1.13.69,3.09,1.18,2.82,3.08a4.85,4.85,0,0,1-3.52,3.86C363.15,320,360.79,321,358.78,320.74Z" transform="translate(-38.37 -67.74)"/><path class="cls-129" d="M228.28,311.71l-1-6.74c2.32-2,4.2-4.86,7.94-4.14a2.55,2.55,0,0,1,.89.35c-.87,3-1.66,5.94-2.61,8.86S230.77,313.5,228.28,311.71Z" transform="translate(-38.37 -67.74)"/><path class="cls-130" d="M317.28,251.69a1.6,1.6,0,0,0-.22-.93c.08-15.52,6.26-29.61,10.37-44.18.27-.94.51-1.89.76-2.84q3.45-7.94,6.92-15.86c.85,5.7,3,10.39,9.11,12.19-2.23,5.8-6.71,10.17-9.76,15.44-3.72,6.42-8.53,12.28-9.49,20.08a27.84,27.84,0,0,0,.67,9.87c.51,2.16.71,3.91-1.46,5.16C321.85,250.78,319.87,253.21,317.28,251.69Z" transform="translate(-38.37 -67.74)"/><path class="cls-131" d="M324.18,250.62c1.25-1.62,1.15-3.31.46-5.14-2.53-6.72-.78-13,2.27-19,4.76-9.45,11-17.94,17.31-26.4l2.26-3.23c1,2.63-.9,4.38-2.12,6.09-5.58,7.86-10.94,15.85-15.75,24.2-3.28,5.69-2.84,11.88-2,18,.63,4.54,4.54,3.42,7.54,3.68C331.12,251,327.22,248.43,324.18,250.62Z" transform="translate(-38.37 -67.74)"/><path class="cls-17" d="M95.28,292.67c0-1.39-1.27-3.75,2-2.44,2.22.88,4.56.49,6.86.39-1.8,2.62-5.14-.3-7,2Z" transform="translate(-38.37 -67.74)"/><path class="cls-132" d="M316.11,209.73c3.75-1.3,4.72-.06,3.82,3.72-1.42,5.93-3.44,11.72-3.81,17.9-.31,5.13-4.44,2.58-7,3.13A100.52,100.52,0,0,1,316.11,209.73Z" transform="translate(-38.37 -67.74)"/><path class="cls-133" d="M252.59,296.48c-1,.47.42,3.13-2.16,2.26a45.1,45.1,0,0,0-5.19-1.09l1.08-5Z" transform="translate(-38.37 -67.74)"/></svg>