<svg width="93" height="70" viewBox="0 0 93 70" fill="none" xmlns="http://www.w3.org/2000/svg">
<g clip-path="url(#clip0_7_206)">
<path d="M71.7845 34.154L55.4103 46.3862C52.7761 48.3549 50.1216 50.2975 47.5339 52.3217C46.7788 52.9041 46.3142 52.9041 45.5532 52.3217C37.8512 46.4794 30.1278 40.6623 22.3831 34.8704C22.0375 34.6112 21.6658 34.387 21.3056 34.1453C21.1311 34.0767 20.9869 33.9475 20.8995 33.7812C20.8121 33.6149 20.7871 33.4227 20.8293 33.2395C20.777 24.9012 20.8061 16.563 20.8148 8.22181C20.8148 7.63933 20.8148 7.05685 21.2621 6.58795C27.6863 11.3915 34.1095 16.1941 40.5318 20.9957C42.1582 22.2102 43.8252 23.378 45.3819 24.677C46.2532 25.3963 46.8108 25.3614 47.7053 24.677C55.5177 18.7415 63.3544 12.837 71.2152 6.96365C71.4069 6.82094 71.616 6.70444 71.8193 6.57629C72.313 7.07432 72.2724 7.72379 72.2753 8.34413C72.2927 16.3047 72.2927 24.2702 72.2753 32.2405C72.2788 32.7243 72.2222 33.2066 72.1068 33.6763C72.0457 33.8625 71.9341 34.0279 71.7845 34.154Z" fill="#E9473B"/>
<path d="M71.7844 34.1539L71.8977 33.8627C72.0051 33.3443 72.3827 33.056 72.769 32.7647C77.9066 28.999 82.9658 25.1254 88.0715 21.3131C89.2332 20.4394 90.36 19.5453 91.5566 18.7181C91.9777 18.4269 92.3611 17.99 92.9709 18.1648C92.9845 26.6516 92.9981 35.1393 93.0116 43.628C93.0116 50.2247 93.029 56.8213 93.0116 63.4325C93.0116 67.2769 90.3833 69.9359 86.5642 69.9709C82.1119 70.0117 77.6626 69.9447 73.2046 70.0117C72.1097 70.0291 71.8396 69.7204 71.8425 68.6428C71.8832 57.7271 71.8686 46.8142 71.8657 35.8985C71.8454 35.3189 71.8077 34.7364 71.7844 34.1539Z" fill="#17A74C"/>
<path d="M20.9513 33.6413L21.3056 34.1364C21.2824 37.8206 21.2417 41.5048 21.2388 45.189C21.2388 52.9972 21.2127 60.8083 21.2591 68.6165C21.2591 69.7029 20.9832 70.0116 19.8883 69.997C15.3896 69.9329 10.8851 69.997 6.39226 69.9533C2.88101 69.9155 0.121974 67.2885 0.113261 63.8372C0.0813143 48.6053 0.113262 33.3763 0.127783 18.1472C1.62347 18.3016 2.55864 19.4432 3.63612 20.2587C9.05255 24.3594 14.498 28.4135 19.8999 32.5229C20.324 32.8287 20.8787 33.0122 20.9513 33.6413Z" fill="#3B7ABE"/>
<path d="M92.9506 18.1648C86.6697 22.8596 80.3878 27.5554 74.1049 32.2522C73.376 32.7997 72.6325 33.3298 71.8977 33.8686C71.8783 26.271 71.859 18.6735 71.8396 11.076C71.8396 9.57607 71.8222 8.07617 71.8135 6.57628C74.041 4.88708 76.1699 3.06682 78.5136 1.5378C81.595 -0.480509 84.9029 -0.460127 88.0976 1.3048C91.2923 3.06972 92.9158 5.82487 92.971 9.45957C93.0232 12.3603 92.9652 15.264 92.9506 18.1648Z" fill="#FBBB10"/>
<path d="M20.9512 33.6414C15.6364 29.6688 10.3197 25.6982 5.00105 21.7296C3.38338 20.5238 1.7541 19.3385 0.127716 18.1444C0.127716 14.7572 -0.258552 11.3381 0.293256 7.98879C0.54173 6.4295 1.17833 4.95825 2.14417 3.71111C3.11001 2.46397 4.3739 1.48124 5.8189 0.853822C7.26391 0.226405 8.84336 -0.0254292 10.4112 0.121611C11.979 0.268651 13.4845 0.809811 14.7884 1.69504C17.0305 3.19494 19.1099 4.9424 21.262 6.57918C21.262 15.1475 21.262 23.7158 21.262 32.2842C21.2736 32.756 21.3839 33.2802 20.9512 33.6414Z" fill="#E5201E"/>
</g>
<defs>
<clipPath id="clip0_7_206">
<rect width="93" height="70" fill="white"/>
</clipPath>
</defs>
</svg>
