<svg width="78" height="78" viewBox="0 0 78 78" fill="none" xmlns="http://www.w3.org/2000/svg">
<g clip-path="url(#clip0_7_164)">
<path d="M37.5179 77.9195C29.2586 77.5759 21.794 74.9514 15.2607 69.8778C6.75035 63.2811 1.65778 54.5716 0.336489 43.9102C-1.07256 32.5226 1.98201 22.2926 9.49532 13.5368C15.9458 6.02145 24.1733 1.57169 33.9636 0.333749C44.607 -1.01141 54.3387 1.58387 62.8516 8.20003C71.2888 14.7553 76.1546 23.4452 77.6466 33.9897C78.1684 37.5186 78.1191 41.1085 77.5003 44.6218C75.6768 42.3872 73.5291 40.4645 71.4985 38.4321C68.3293 35.2447 65.1943 32.0011 61.9106 28.9282C61.6083 28.6553 61.3694 28.3239 61.0866 28.0339C59.1607 26.0844 56.484 26.1843 54.702 28.2898C54.4582 28.5676 54.2754 28.8868 53.9292 29.0525C53.3514 29.1646 53.0589 28.7211 52.7103 28.4019C51.801 27.5489 50.977 26.6059 50.0287 25.8017C49.2218 24.8757 48.4002 23.9716 47.1692 23.5939C46.194 23.4647 45.4798 22.9432 44.8215 22.2487C43.7123 21.0814 42.5568 19.9629 41.4086 18.8371C41.0698 18.5008 40.765 18.106 40.2312 18.0524C36.9572 18.3838 33.7588 19.1587 30.5214 19.6827C25.7604 20.4527 21.014 21.3422 16.2724 22.1756C14.5806 22.4729 14.5099 22.5655 14.5099 24.3103C14.5099 34.0384 14.5099 43.7648 14.5099 53.4897C14.499 53.9359 14.53 54.3822 14.6025 54.8226C14.6805 55.3904 15.1071 55.7292 15.4753 56.0971C22.3011 62.9204 29.114 69.7437 35.9138 76.567C36.4087 77.0788 37.2058 77.2079 37.5179 77.9195Z" fill="#7C7BB9"/>
<path d="M40.687 17.782C42.0107 19.0662 43.3685 20.331 44.6508 21.6445C45.409 22.4145 46.1428 23.1748 47.2666 23.3673C46.857 23.8279 46.2915 23.6939 45.7893 23.7231C43.7074 23.8401 42.7323 24.8538 42.725 26.9423C42.725 27.5076 42.725 28.0762 42.725 28.6481C42.725 30.8949 44.1876 32.2011 46.4524 31.9817C47.0469 31.9202 47.622 31.7348 48.1404 31.4372C48.6588 31.1397 49.109 30.7368 49.4618 30.2545C49.8147 29.7722 50.0625 29.2213 50.1891 28.6373C50.3157 28.0534 50.3183 27.4493 50.1968 26.8643C50.1115 26.4451 49.8482 26.0211 50.1773 25.5898L53.8194 29.0014C54.2095 29.4888 53.9364 30.0225 53.9169 30.5245C53.8413 32.2693 54.4825 33.6218 56.0232 34.4674C57.4615 35.2545 58.9169 35.1984 60.2796 34.2822C61.7691 33.2684 62.3298 31.8453 62.0275 30.059C61.9568 29.635 61.7471 29.1915 62.0933 28.7821C62.3563 28.9648 62.6079 29.1633 62.8466 29.3767C67.4947 34.0165 72.1419 38.6588 76.7884 43.3035C77.1711 43.6861 77.5197 44.059 77.4954 44.6463C76.6446 51.3526 74.0483 57.3522 69.9382 62.6671C63.3927 71.1304 54.7458 76.0943 44.1803 77.6613C41.9763 77.9981 39.7413 78.0847 37.5178 77.9196C36.7935 77.6889 36.1444 77.2681 35.6383 76.7011C28.8563 69.8957 22.0654 63.0976 15.2655 56.3068C14.951 55.9924 14.6683 55.6488 14.3708 55.3198C14.8584 54.8325 15.4289 55.0104 15.9798 55.1103C23.125 56.4116 30.2873 57.6105 37.4325 58.8875C40.6333 59.4601 40.2871 59.5211 40.2896 56.5164C40.3026 44.3027 40.3075 32.089 40.3042 19.8753C40.3042 19.1686 40.1263 18.4034 40.687 17.782Z" fill="#6863AA"/>
<path d="M40.687 17.782L40.6577 57.6885C40.6577 58.0541 40.6285 58.4196 40.6577 58.7851C40.7333 59.5698 40.3603 59.8037 39.6436 59.6746C34.8752 58.829 30.1118 57.9688 25.341 57.1451C21.6843 56.514 18.0276 55.9267 14.3709 55.3174C13.9979 54.9446 14.149 54.4718 14.149 54.0429C14.149 43.8519 14.1612 33.6608 14.1149 23.4721C14.1149 22.4218 14.4562 22.0734 15.4142 21.9077C23.5078 20.517 31.5964 19.1036 39.6802 17.6675C40.0312 17.6114 40.3871 17.4287 40.687 17.782Z" fill="#303086"/>
<path d="M62.0957 28.7675C62.5151 30.4514 62.7686 32.1207 61.5302 33.6072C60.0675 35.3593 57.9588 35.8126 55.9622 34.8256C54.1022 33.8996 53.2002 31.9014 53.6536 29.7082C53.7024 29.4645 53.7658 29.2378 53.8218 29.0015C55.4527 26.1332 58.3025 25.7945 60.3088 27.0032C61.0572 27.437 61.5789 28.0949 62.0957 28.7675Z" fill="#303086"/>
<path d="M50.1798 25.58C51.033 27.7537 50.7941 29.7033 48.9609 31.3019C47.347 32.7177 44.4802 32.6202 42.9712 31.124C42.8718 31.051 42.7887 30.958 42.7274 30.851C42.1071 29.0051 42.0721 27.0128 42.6274 25.1463C43.115 23.6062 44.8556 23.1846 46.5279 23.3722C46.7714 23.3882 47.0158 23.3882 47.2593 23.3722C48.5391 23.7182 49.4192 24.576 50.1798 25.58Z" fill="#303086"/>
<path d="M42.4178 43.8568C42.4178 41.1396 42.4422 38.4201 42.4032 35.7029C42.391 34.8866 42.5958 34.5503 43.4831 34.5698C45.9551 34.6234 48.4319 34.6112 50.9063 34.5698C51.6376 34.5698 51.8936 34.7964 51.8814 35.5445C51.8546 39.7628 51.9521 43.9835 51.8448 48.2017C51.7229 52.8732 47.213 55.488 43.2442 53.3192C42.9712 53.2016 42.7421 53.0011 42.5894 52.7461C42.4367 52.4911 42.3682 52.1946 42.3934 51.8985C42.4398 49.2179 42.4178 46.5373 42.4178 43.8568Z" fill="#303086"/>
<path d="M53.8267 43.7519C53.8267 42.0096 53.8487 40.2648 53.8267 38.5224C53.8145 37.823 53.9876 37.4989 54.7702 37.5086C57.403 37.5476 60.0383 37.5379 62.6735 37.5086C63.3195 37.5086 63.6194 37.667 63.6291 38.3859C63.6633 40.7741 63.8217 43.1598 63.8144 45.5455C63.8144 49.3202 61.2425 51.8156 57.6443 51.6523C56.3279 51.5939 55.2553 50.9651 54.2509 50.1902C53.8438 49.8759 53.834 49.4396 53.834 48.9718C53.8316 47.2391 53.8267 45.4943 53.8267 43.7519Z" fill="#303086"/>
<path d="M26.2722 39.6117C26.2722 37.9887 26.2478 36.3633 26.2722 34.7379C26.2893 34.0921 26.0699 33.863 25.4361 33.9118C24.8705 33.9556 24.3 33.9118 23.7296 33.9118C22.479 33.9118 21.8744 32.9833 22.3644 31.8477C22.4912 31.5529 22.7155 31.5577 22.9519 31.5577C25.9537 31.5577 28.9562 31.5577 31.9596 31.5577C33.0737 31.5577 32.5374 32.4009 32.6056 32.8883C32.6739 33.3757 32.8104 33.9898 31.9133 33.9288C31.1454 33.8752 30.3677 33.9654 29.6023 33.9045C28.8368 33.8435 28.6418 34.1482 28.6491 34.8792C28.6856 38.0472 28.6076 41.2151 28.6954 44.3831C28.7246 45.5041 28.1908 45.4724 27.3839 45.5163C26.4697 45.5674 26.1893 45.2945 26.2357 44.3685C26.3307 42.7796 26.2722 41.1932 26.2722 39.6117Z" fill="#FEFEFF"/>
</g>
<defs>
<clipPath id="clip0_7_164">
<rect width="78" height="78" fill="white"/>
</clipPath>
</defs>
</svg>
