<svg width="64" height="71" viewBox="0 0 64 71" fill="none" xmlns="http://www.w3.org/2000/svg">
<g clip-path="url(#clip0_6_129)">
<path d="M25.5683 9.17893C25.5683 8.10728 25.5547 7.07334 25.5683 6.0394C25.6098 4.41504 26.3018 2.87169 27.4949 1.74198C28.688 0.612265 30.2868 -0.0133488 31.9468 -3.59452e-05C35.3468 0.0132766 38.1938 2.70018 38.2572 5.99059C38.2776 7.06003 38.2572 8.12946 38.2572 9.20778C43.6973 10.9473 47.8997 14.1245 50.8124 18.8837C52.8342 22.1957 53.9018 25.9818 53.9019 29.8399C53.945 33.7893 53.7795 37.7342 54.7179 41.637C55.9662 46.9465 58.5358 51.8717 62.198 55.9746C62.47 56.2837 62.7481 56.5862 63.0321 56.8821C63.7325 57.612 64.0862 58.4197 63.5943 59.3959C63.1409 60.2989 62.3612 60.5829 61.3616 60.5829C51.8037 60.5652 42.2458 60.5652 32.688 60.5829C22.7145 60.5829 12.7411 60.5829 2.76764 60.5829C1.6683 60.5829 0.727622 60.421 0.22895 59.3404C-0.269722 58.2599 0.292415 57.4545 1.01549 56.6779C6.99275 50.2103 9.99158 42.6221 9.92812 33.8825C9.90545 30.5987 9.76718 27.3039 10.7419 24.0978C13.0131 16.6406 18.0225 11.7771 25.5683 9.17893ZM34.0094 8.3469C33.819 6.91581 34.5965 5.28724 32.9056 4.49959C32.2981 4.21559 31.1987 4.31544 30.6389 4.6904C29.2585 5.60009 30.0155 7.07112 29.8478 8.3469H34.0094Z" fill="black"/>
<path d="M8.44344e-06 28.9525C0.376279 20.8563 3.35471 13.8361 9.13477 7.9875C10.0573 7.05563 11.0501 6.87813 11.9749 7.43504C12.3986 7.68656 12.7177 8.07667 12.8757 8.53634C13.0338 8.99601 13.0206 9.49558 12.8385 9.94666C12.6521 10.3483 12.3899 10.7119 12.0656 11.0183C8.06534 15.0382 5.45735 20.1873 4.61046 25.7375C4.43241 26.9793 4.3212 28.2295 4.27726 29.4828C4.20019 30.9848 3.37058 31.9811 2.1239 31.9478C0.87722 31.9145 -0.00679163 30.8384 8.44344e-06 29.4073C0.00227513 29.2476 8.44344e-06 29.1011 8.44344e-06 28.9525Z" fill="black"/>
<path d="M64 29.0657C63.8935 31.2489 62.3703 32.5114 60.7065 31.6638C59.8429 31.2201 59.5732 30.4857 59.5505 29.5538C59.4394 25.1806 58.5486 20.9583 56.2797 17.1709C54.9582 14.9633 53.2559 12.9664 51.6375 10.9429C50.9983 10.1419 50.6492 9.3676 51.0051 8.41131C51.5423 6.96913 53.4168 6.7184 54.6318 7.9365C58.5645 11.857 61.3367 16.4565 62.6944 21.7926C63.3064 24.1844 63.5784 26.6361 64 29.0657Z" fill="black"/>
<path d="M22.2974 64.8452H41.4736C40.5488 67.7451 36.811 70.8358 32.4069 70.9934C28.0027 71.1509 23.8614 68.6615 22.2974 64.8452Z" fill="black"/>
<path d="M34.0094 8.34695H29.8432C30.011 7.07117 29.2539 5.60015 30.6343 4.69046C31.1987 4.31549 32.2981 4.21564 32.901 4.49964C34.5965 5.2873 33.819 6.91586 34.0094 8.34695Z" fill="white"/>
</g>
<defs>
<clipPath id="clip0_6_129">
<rect width="64" height="71" fill="white"/>
</clipPath>
</defs>
</svg>
