<svg width="61" height="70" viewBox="0 0 61 70" fill="none" xmlns="http://www.w3.org/2000/svg">
<g clip-path="url(#clip0_4_68)">
<path d="M8.71086 32.7895C8.71086 23.4734 8.71086 14.1565 8.71086 4.83896C8.71086 1.88136 10.5541 0.0263067 13.5042 0.0263067C23.1825 0.0263067 32.8615 0.0263067 42.5412 0.0263067C42.9573 0.0263067 43.4127 -0.131197 43.7874 0.218814C43.9661 1.0479 43.8855 1.88792 43.8877 2.72358C43.8877 5.85617 43.8877 8.99096 43.8877 12.1301C43.8877 15.2255 44.8812 16.5053 47.8357 17.2468C48.3455 17.3978 48.6745 17.7937 49.0296 18.1503C52.7075 21.8386 56.3838 25.5268 60.0588 29.215C60.4261 29.563 60.7358 29.9677 60.976 30.4138C60.976 42.0984 60.976 53.7836 60.976 65.4696C60.9861 66.068 60.8759 66.6622 60.6519 67.2168C60.428 67.7714 60.0949 68.2749 59.6726 68.6973C59.2503 69.1196 58.7475 69.4521 58.1943 69.6748C57.641 69.8976 57.0488 70.0059 56.4528 69.9935C42.0582 69.9935 27.6636 69.9935 13.2689 69.9935C10.6544 69.9935 8.72175 68.0356 8.71304 65.3996C8.71304 64.0171 8.71304 62.6345 8.71304 61.2432C9.30785 60.751 10.0203 60.8976 10.6979 60.8976C23.0242 60.8888 35.3497 60.8888 47.6744 60.8976H48.5459C51.4241 60.8976 52.0211 60.2588 51.9187 57.3165C51.8773 50.3666 51.9187 43.4167 51.8991 36.4668C51.8991 33.6361 51.4634 33.1986 48.6026 33.1986C35.9554 33.1986 23.3067 33.1986 10.6565 33.1986C10.0072 33.1811 9.27517 33.3627 8.71086 32.7895Z" fill="#E2E5E6"/>
<path d="M8.71086 32.7894C9.90703 32.8026 11.1075 32.8244 12.2972 32.8244H49.3826C51.5614 32.8244 52.2717 33.5244 52.2717 35.6792C52.2717 42.8851 52.2674 50.0916 52.2586 57.2989C51.9057 58.7712 51.3109 59.2787 49.7879 59.4012C49.461 59.4296 49.1342 59.4274 48.8074 59.4274C36.0353 59.4274 23.2638 59.4274 10.4931 59.4274C9.88306 59.4274 9.24685 59.5237 8.71086 59.1037C6.68022 59.0906 4.65175 59.0818 2.61021 59.0665C0.801801 59.0534 -0.00435638 58.2724 -0.00435638 56.4852C-0.00435638 49.4602 -0.00435638 42.4351 -0.00435638 35.4101C-0.00435638 33.6229 0.801801 32.8441 2.61021 32.8288C4.65175 32.8113 6.6824 32.8026 8.71086 32.7894Z" fill="#EB5745"/>
<path d="M48.1363 17.54C45.2647 17.3671 43.5739 15.5711 43.5608 12.7032C43.5608 8.92167 43.5608 5.13936 43.5608 1.35633C43.5608 0.975688 43.4149 0.546924 43.7787 0.227539L60.7734 17.3037C60.6688 17.9118 60.1546 17.8528 59.7603 17.8593C56.2633 17.9075 52.7663 17.8943 49.2693 17.8747C48.8712 17.8513 48.4836 17.7368 48.1363 17.54Z" fill="#B0B8BE"/>
<path d="M8.71086 59.1016C10.7764 59.0885 12.8506 59.0688 14.9052 59.0666C26.3962 59.0666 37.8865 59.0666 49.3761 59.0666C50.7553 59.0666 51.7728 58.6597 52.2586 57.2903C52.2586 57.7628 52.2739 58.2353 52.2717 58.7078C52.2586 60.2872 51.3457 61.2388 49.7966 61.2388C36.1079 61.2388 22.4177 61.2388 8.72611 61.2388C8.71957 60.5301 8.71522 59.8147 8.71086 59.1016Z" fill="#CAD1D8"/>
<path d="M48.1363 17.5399C51.9732 17.5399 55.8101 17.5399 59.647 17.5137C60.0261 17.5137 60.4509 17.6602 60.7712 17.2949C61.1133 17.5749 60.9891 17.9665 60.9891 18.3121C60.9891 22.3446 60.9891 26.3762 60.9891 30.4072C60.05 29.5016 59.0914 28.6134 58.1741 27.6881C54.8144 24.3148 51.4685 20.9321 48.1363 17.5399Z" fill="#CAD1D8"/>
<path d="M21.1976 46.4311C21.1976 44.9392 21.1802 43.4473 21.1976 41.9554C21.215 40.8309 21.592 40.4437 22.7228 40.4241C24.1368 40.4044 25.5552 40.3803 26.9627 40.4569C30.1242 40.6275 32.3008 43.106 32.2964 46.453C32.2964 49.859 30.0719 52.3594 26.8756 52.4841C25.4637 52.541 24.0431 52.4973 22.6356 52.5038C21.6355 52.5038 21.1932 51.9963 21.1998 51.0119C21.2063 49.4872 21.1976 47.958 21.1976 46.4311Z" fill="white"/>
<path d="M9.53663 46.2714C9.53663 44.8167 9.52574 43.3619 9.53663 41.8963C9.5497 40.5662 9.84166 40.2687 11.1228 40.2578C12.3538 40.2578 13.587 40.2381 14.8268 40.2578C17.2627 40.3125 18.9382 42.0385 18.9861 44.5017C19.0362 47.0195 17.3978 48.844 14.9401 48.9774C14.2524 49.0255 13.5622 49.0255 12.8746 48.9774C12.0575 48.9052 11.6414 49.124 11.7852 50.034C11.8157 50.433 11.8157 50.8338 11.7852 51.2328C11.7852 51.9635 11.43 52.4425 10.6958 52.4513C9.9615 52.46 9.56495 52.0138 9.5606 51.2744C9.5497 49.6009 9.5606 47.9274 9.5606 46.2539L9.53663 46.2714Z" fill="white"/>
<path d="M34.6953 46.4487C34.6953 44.9939 34.6844 43.5392 34.6953 42.0735C34.7084 40.7873 35.0417 40.4307 36.2902 40.4154C38.14 40.3957 39.9941 40.4154 41.8352 40.4154C42.5956 40.4154 43.3016 40.6341 43.2798 41.5092C43.258 42.3207 42.6414 42.6707 41.8439 42.6686C40.5018 42.6686 39.1597 42.6926 37.8197 42.6554C37.2358 42.6401 37.007 42.7736 36.9961 43.4255C36.9634 45.4621 36.9329 45.4621 38.957 45.4621C39.7174 45.4621 40.4822 45.4621 41.2404 45.4621C41.9986 45.4621 42.6305 45.8318 42.6479 46.6521C42.6654 47.4725 41.9943 47.6934 41.2818 47.7C40.1205 47.7131 38.9614 47.7372 37.7957 47.7C37.177 47.6781 36.9678 47.8793 36.9983 48.5006C37.044 49.4085 37.0157 50.3207 36.9983 51.2307C36.9983 51.9329 36.7107 52.4579 35.935 52.4711C35.1594 52.4842 34.7127 52.0138 34.6996 51.2482C34.6691 49.6469 34.6888 48.0456 34.6888 46.4356L34.6953 46.4487Z" fill="white"/>
<path d="M23.5158 46.3874C23.5158 45.3702 23.5551 44.3508 23.5006 43.3379C23.4657 42.6445 23.7315 42.4476 24.3721 42.4979C25.2436 42.5657 26.1151 42.4979 26.9671 42.6248C28.9171 42.9004 30.122 44.5192 30.0174 46.5996C29.8976 48.7872 28.562 50.2222 26.5553 50.3447C23.5158 50.5285 23.5158 50.5285 23.5158 47.4812V46.3874Z" fill="#EB5745"/>
<path d="M13.526 46.8249C11.783 46.8249 11.783 46.8249 11.783 44.9151C11.783 42.4432 11.783 42.4432 14.1797 42.4563C15.8334 42.4563 16.8138 43.3029 16.7942 44.6898C16.7746 46.0024 15.7898 46.8161 14.1797 46.8249H13.526Z" fill="#EB5845"/>
</g>
<defs>
<clipPath id="clip0_4_68">
<rect width="61" height="70" fill="white"/>
</clipPath>
</defs>
</svg>
