<svg width="72" height="82" viewBox="0 0 72 82" fill="none" xmlns="http://www.w3.org/2000/svg">
<g clip-path="url(#clip0_7_199)">
<path d="M50.3148 81.9998C46.1321 81.2944 41.9494 80.5968 37.7692 79.8786C31.6217 78.8253 25.475 77.7617 19.3291 76.6879C13.2225 75.6346 7.11579 74.5829 1.00911 73.533C0.2017 73.3945 -0.0997994 73.0585 0.02029 72.1736C1.0287 64.7816 2.01071 57.387 2.96631 49.9898C3.87082 42.9722 4.72933 35.9495 5.62617 28.9319C5.82546 27.3673 6.13719 25.8207 6.30838 24.2535C6.4208 23.1814 7.02636 22.6761 7.94875 22.3837C10.4578 21.5937 12.9516 20.755 15.4812 20.0445C16.3576 19.788 16.6718 19.3546 16.8507 18.5056C17.8604 13.5528 20.075 8.92766 23.2972 5.0424C25.3413 2.60574 27.7456 0.697442 30.9778 0.128033C33.2442 -0.269527 35.2882 0.171635 36.9951 1.80548C37.271 2.06197 37.5061 2.33642 37.9634 2.33642C42.0133 2.33642 44.2975 4.80129 45.9021 8.15362C46.8526 10.144 46.8219 10.1671 48.9273 9.61562C49.3771 9.48487 49.8503 9.45683 50.3122 9.53354C50.9024 10.2286 50.7261 11.0725 50.7261 11.8676C50.7398 26.7748 50.7398 41.6821 50.7261 56.5893C50.7261 64.3199 50.7261 72.0505 50.7261 79.7812C50.7312 80.5455 50.8845 81.3457 50.3148 81.9998Z" fill="#95BF48"/>
<path d="M50.3149 82C50.3149 65.8274 50.3089 49.6548 50.297 33.4822C50.297 25.5037 50.3021 17.5243 50.3123 9.54399C50.808 9.51322 51.0584 9.89282 51.3574 10.1827C52.0626 10.8649 52.8623 11.4651 53.4449 12.25C55.2181 14.6199 57.5049 15.4099 60.4203 15.1663C63.0367 14.9483 63.0316 15.1304 63.4174 17.7312C64.8125 27.1675 66.228 36.6012 67.6256 46.04C68.6886 53.2884 69.7029 60.5445 70.7556 67.7955C71.1236 70.3245 71.5213 72.8484 71.9489 75.3671C72.1047 76.2726 71.9029 76.7009 70.9268 76.9343C64.0536 78.5912 57.1881 80.3071 50.3149 82Z" fill="#5F8F3E"/>
<path d="M15.0546 56.3767C17.2009 57.7258 19.2297 58.9595 21.6366 59.3699C23.1696 59.6264 24.5289 59.434 25.5203 58.1157C26.3328 57.0333 26.2689 55.2507 25.4079 53.8887C25.0227 53.2721 24.5303 52.7299 23.954 52.2882C23.1057 51.647 22.2779 50.9724 21.3989 50.3825C15.9719 46.7429 15.0444 41.5977 16.8994 35.8728C18.7978 30.0146 23.2539 27.0239 29.0872 25.903C31.5556 25.4119 34.0956 25.4067 36.566 25.8877C38.1246 26.198 38.2038 26.2929 37.8129 27.778C37.2047 30.0864 36.5353 32.3743 35.9911 34.7032C35.7688 35.6343 35.5031 35.8728 34.5142 35.5291C32.2325 34.734 29.8691 34.5211 27.4954 35.1829C25.9981 35.6009 24.9403 36.5038 24.6107 38.1017C24.2939 39.6073 25.0169 40.6923 26.131 41.5131C27.8761 42.7955 29.6902 43.9908 31.4711 45.2322C38.2268 49.9413 37.5216 58.7107 34.2664 63.2275C32.2504 66.0258 29.4807 67.4853 26.0645 67.7443C21.7004 68.0752 17.7324 67.0441 14.2191 64.3535C13.5497 63.8405 13.3606 63.343 13.5803 62.5196C14.1144 60.5216 14.5436 58.4696 15.0546 56.3767Z" fill="white"/>
<path d="M34.4912 3.27801C29.9201 6.27382 27.848 10.7162 26.5704 15.6588C26.3711 16.4283 26.0594 16.7745 25.2929 16.9823C23.4174 17.4953 21.5752 18.1288 19.6052 18.7521C19.6052 17.503 20.0651 16.495 20.4484 15.487C22.1194 11.0907 24.281 7.00482 28.1827 4.15264C30.3647 2.55471 32.5928 2.26744 34.4912 3.27801Z" fill="#F9FAFB"/>
<path d="M37.5395 11.4036C37.9432 12.7117 37.3351 13.3709 35.8889 13.712C33.9547 14.1686 32.0792 14.8637 30.1757 15.4562C29.7796 15.5793 29.192 15.8512 29.4577 15.0304C30.5717 11.5857 32.0383 8.34113 35.0789 6.12505C36.3053 5.23246 36.3335 5.25811 36.8087 6.72524C37.3098 8.23305 37.5568 9.81421 37.5395 11.4036Z" fill="#F9FAFB"/>
<path d="M39.1696 5.16577C40.8355 5.51203 41.8295 6.52004 42.6267 7.74863C43.0431 8.38473 43.337 9.10034 43.6947 9.77491C44.1597 10.6572 44.1597 11.1856 42.969 11.5242C40.2428 12.2936 40.276 12.3706 40.0767 9.47225C40.0131 8.75214 39.8996 8.03736 39.7368 7.33312C39.5989 6.65855 39.3945 6.01475 39.1696 5.16577Z" fill="#F8FAFA"/>
</g>
<defs>
<clipPath id="clip0_7_199">
<rect width="72" height="82" fill="white"/>
</clipPath>
</defs>
</svg>
