<svg id="Layer_1" data-name="Layer 1" xmlns="http://www.w3.org/2000/svg" viewBox="0 0 259.81 243.16"><path d="M285,332.84c-19,19-37.28,37.44-55.62,55.82-13,13.09-26,26.28-39.24,39.18-11.28,11-28.57,7-33.4-7.73-2.69-8.18-.26-15.24,5.84-21.31q37.88-37.71,75.61-75.55C248.8,312.66,259.36,302,270,291.47c9.21-9.13,20.87-9.13,30.09.07q54.07,54,108.08,108.06c6.08,6.07,8.45,13.15,5.78,21.37-2.53,7.82-8.32,12.35-16.35,13.61-7.12,1.12-12.93-1.83-17.89-6.81Q350,398.07,320.37,368.4C308.74,356.75,297.16,345.05,285,332.84Z" transform="translate(-155.22 -284.63)"/><path d="M285.63,424.36c-9.33,9.66-17.06,17.9-25,25.88q-35.32,35.34-70.82,70.5c-10.82,10.7-27.52,7.76-33-5.78-3.58-8.91-.91-16.47,5.72-23.09q45.47-45.33,90.84-90.78c5.53-5.54,11-11.11,16.61-16.6,9.25-9.1,20.9-9.13,30.1.07q54.1,54,108.11,108.14c8.73,8.75,9.1,20.75,1.1,29-8.14,8.36-20.39,8.22-29.3-.67q-45.32-45.17-90.45-90.52C288.16,429.09,287.36,427.12,285.63,424.36Z" transform="translate(-155.22 -284.63)"/></svg>