<svg width="62" height="62" viewBox="0 0 62 62" fill="none" xmlns="http://www.w3.org/2000/svg">
<g clip-path="url(#clip0_5_125)">
<path d="M27.5256 36.114L27.1734 36.3521C26.9538 35.997 26.7073 35.6592 26.4362 35.3417C24.1916 33.0752 21.9489 30.8009 19.6636 28.5672C18.2278 27.1678 16.1632 27.191 14.8009 28.5363C13.4387 29.8815 13.3516 31.9545 14.7699 33.3906C19.3469 38.027 23.951 42.6343 28.5821 47.2125C29.987 48.6023 31.9568 48.6216 33.3578 47.2377C38.0147 42.6388 42.642 38.0089 47.2396 33.3481C48.0697 32.51 48.4316 31.4357 48.1065 30.2376C47.3557 27.4794 44.3196 26.6162 42.2647 28.6117C39.9523 30.857 37.6999 33.1642 35.4186 35.4423C35.1573 35.7017 34.8806 35.9456 34.451 36.3501V4.24105C34.4623 3.88671 34.4552 3.53202 34.4298 3.17842C34.3853 2.6471 34.2188 2.13322 33.9432 1.67683C33.6676 1.22044 33.2904 0.83387 32.841 0.547254C32.3915 0.260639 31.8819 0.0817192 31.352 0.024437C30.822 -0.0328452 30.286 0.0330583 29.7857 0.217013C28.3383 0.745422 27.5392 2.04806 27.5372 3.90814C27.5372 14.2634 27.5372 24.618 27.5372 34.972L27.5256 36.114ZM30.9351 61.9789C36.6783 61.9789 42.4195 62.0447 48.1568 61.9615C53.8554 61.8783 58.0099 59.1879 60.6145 54.1186C62.236 50.9617 62.0735 47.5512 61.8684 44.1795C61.7677 42.5149 60.1268 41.2897 58.4975 41.2994C57.7003 41.3046 56.93 41.5884 56.3198 42.1016C55.7096 42.6148 55.2979 43.3251 55.1558 44.1098C55.0261 44.7989 55.059 45.5189 55.0261 46.2254C54.97 47.4138 55.1093 48.6487 54.8326 49.7829C54.0006 53.2186 51.4579 55.0496 47.7195 55.0535C36.5596 55.0625 25.4009 55.0625 14.2436 55.0535C13.5685 55.0682 12.8936 55.0143 12.2293 54.8928C9.32673 54.2793 6.84604 51.4843 6.92731 48.1648C6.99407 46.7809 6.94228 45.3939 6.77251 44.0188C6.53256 42.3891 4.94585 41.2336 3.3688 41.309C1.69308 41.3807 0.143124 42.6214 0.0792686 44.2801C-0.00393725 46.4964 -0.123908 48.7823 0.309537 50.9307C1.66986 57.6433 7.22336 61.9789 14.0985 61.9789H30.9351Z" fill="white"/>
<path d="M27.5257 36.1139V34.9719C27.5257 24.6179 27.5257 14.2633 27.5257 3.90801C27.5257 2.04794 28.3268 0.7453 29.7742 0.216891C30.2745 0.0329363 30.8105 -0.0329673 31.3404 0.0243149C31.8704 0.0815971 32.3799 0.260517 32.8294 0.547132C33.2789 0.833748 33.6561 1.22031 33.9317 1.6767C34.2073 2.13309 34.3738 2.64698 34.4182 3.1783C34.4437 3.5319 34.4508 3.88659 34.4395 4.24093V36.3558C34.8768 35.9513 35.1535 35.7074 35.407 35.448C37.6884 33.1699 39.9408 30.8627 42.2531 28.6174C44.3081 26.6219 47.3442 27.4851 48.0949 30.2433C48.42 31.4414 48.0582 32.5157 47.2281 33.3537C42.6227 37.9991 37.9954 42.629 33.3462 47.2434C31.9453 48.6273 29.9754 48.5983 28.5706 47.2182C23.9394 42.6374 19.3354 38.0301 14.7584 33.3963C13.34 31.9601 13.4136 29.8968 14.7894 28.5419C16.1652 27.187 18.2163 27.1735 19.6521 28.5729C21.9373 30.8007 24.18 33.075 26.4246 35.3474C26.6958 35.6649 26.9422 36.0027 27.1619 36.3577L27.5257 36.1139Z" fill="black"/>
<path d="M30.9352 61.9787H14.1005C7.21953 61.9787 1.67183 57.6469 0.313441 50.9227C-0.120004 48.7742 -2.97739e-05 46.4883 0.0831761 44.2721C0.147032 42.6133 1.69698 41.3688 3.37271 41.301C4.94975 41.2313 6.53647 42.3869 6.77641 44.0108C6.94619 45.3859 6.99798 46.7729 6.93121 48.1568C6.84994 51.4763 9.32096 54.2712 12.2332 54.8848C12.8975 55.0063 13.5724 55.0601 14.2475 55.0455C25.4061 55.0532 36.5648 55.0532 47.7234 55.0455C51.4618 55.0455 54.0045 53.2106 54.8365 49.7749C55.1113 48.6407 54.972 47.4058 55.03 46.2174C55.0629 45.5109 55.03 44.7909 55.1597 44.1018C55.3026 43.3178 55.7147 42.6084 56.3248 42.096C56.9349 41.5836 57.7048 41.3003 58.5015 41.2952C60.1327 41.2855 61.7716 42.5108 61.8723 44.1753C62.0774 47.5471 62.2399 50.9498 60.6184 54.1145C58.0138 59.1837 53.8593 61.8741 48.1607 61.9574C42.4195 62.0406 36.6783 61.9787 30.9352 61.9787Z" fill="black"/>
</g>
<defs>
<clipPath id="clip0_5_125">
<rect width="62" height="62" fill="white"/>
</clipPath>
</defs>
</svg>
