<svg id="iisa" xmlns="http://www.w3.org/2000/svg" xmlns:xlink="http://www.w3.org/1999/xlink" viewBox="0 0 360.48 565.4">
  <defs>
    <style>
      .cls-1 {
        fill: none;
      }

      .cls-2 {
        opacity: 0;
      }

      .cls-3 {
        clip-path: url(#clip-path);
      }

      .cls-4 {
        fill: #010202;
      }

      .cls-5 {
        fill: #bf7526;
      }

      .cls-6 {
        fill: #8d591d;
      }

      .cls-7 {
        fill: #f3a766;
      }

      .cls-8 {
        fill: #344f5d;
      }

      .cls-9 {
        fill: #fafbfc;
      }

      .cls-10 {
        fill: #dc9952;
      }

      .cls-11 {
        fill: #664017;
      }

      .cls-12 {
        fill: #b17b43;
      }

      .cls-13 {
        fill: #020303;
      }

      .cls-14 {
        clip-path: url(#clip-path-2);
      }

      .cls-15 {
        fill: #6b6c6a;
      }

      .cls-16 {
        fill: #6ec8e8;
      }

      .cls-17 {
        fill: #51b5dc;
      }

      .cls-18 {
        fill: #fff;
      }

      .cls-19 {
        fill: #040505;
      }

      .cls-20 {
        fill: #2b3263;
      }

      .cls-21 {
        fill: #e44c8e;
      }

      .cls-22 {
        fill: #242853;
      }

      .cls-23 {
        fill: #e4ece9;
      }

      .cls-24 {
        fill: #010101;
      }

      .cls-25 {
        fill: #f4a6a5;
      }

      .cls-26 {
        fill: #abb1d6;
      }

      .cls-27 {
        fill: #fffffe;
      }

      .cls-28 {
        fill: #431012;
      }

      .cls-29 {
        clip-path: url(#clip-path-3);
      }

      .cls-30 {
        fill: #e5e8eb;
      }

      .cls-31 {
        fill: #03b2b9;
      }

      .cls-32 {
        fill: #030304;
      }

      .cls-33 {
        fill: #0a0b0b;
      }

      .cls-34 {
        fill: #070808;
      }

      .cls-35 {
        fill: #c4a6d0;
      }

      .cls-36 {
        fill: #e5e7eb;
      }

      .cls-37 {
        fill: #020202;
      }

      .cls-38 {
        fill: #6692aa;
      }

      .cls-39 {
        clip-path: url(#clip-path-4);
      }

      .cls-40 {
        clip-path: url(#clip-path-5);
      }

      .cls-41 {
        fill: #fbbd2d;
      }

      .cls-42 {
        fill: #080c0d;
      }

      .cls-43 {
        fill: #ee7382;
      }

      .cls-44 {
        fill: #d7edf5;
      }

      .cls-45 {
        fill: #070909;
      }

      .cls-46 {
        fill: #050506;
      }

      .cls-47 {
        fill: #050606;
      }

      .cls-48 {
        fill: #ee818e;
      }
    </style>
    <clipPath id="clip-path" transform="translate(-179.14 -159.94)">
      <rect class="cls-1" x="439.34" y="202.34" width="86.88" height="95.71"/>
    </clipPath>
    <clipPath id="clip-path-2" transform="translate(-179.14 -159.94)">
      <rect class="cls-1" x="433.3" y="206.31" width="101.97" height="101.97"/>
    </clipPath>
    <clipPath id="clip-path-3" transform="translate(-179.14 -159.94)">
      <rect class="cls-1" x="442.25" y="220.83" width="97.4" height="97.4"/>
    </clipPath>
    <clipPath id="clip-path-4" transform="translate(-179.14 -159.94)">
      <rect class="cls-1" x="433.37" y="208.02" width="103.91" height="94.47"/>
    </clipPath>
    <clipPath id="clip-path-5" transform="translate(-179.14 -159.94)">
      <rect class="cls-1" x="426.87" y="209.29" width="97.23" height="93.76"/>
    </clipPath>
  </defs>
  <g id="Job_Satishfaction" data-name="Job Satishfaction" class="cls-2">
    <g class="cls-3">
      <g>
        <path class="cls-4" d="M470.21,217.5c-3.75-1.09-5.29-3.16-5.3-7.08,0-2.34,0-4.68,0-7,0-.86.26-1.06,1.08-1.06q15.66,0,31.29,0c.78,0,1,.21,1,1-.05,2.5,0,5,0,7.5,0,3.15-1.32,5.5-4.48,6.54.26.74.92.93,1.42,1.27a13.22,13.22,0,0,1,3.16,2.66c1.38,1.74,1.42,3.54,0,5.53,2.64,0,5,0,7.38,0,4.88.05,7.79,3,7.8,7.87,0,2,.07,3.94,0,5.9-.07,1.18.36,1.38,1.43,1.37a19.19,19.19,0,0,1,5.4.24,7.78,7.78,0,0,1,5.94,7.53q0,20.32,0,40.65c0,4.69-3.09,7.66-7.74,7.66H447.09c-4.5,0-7.64-2.89-7.67-7.39q-.12-20.56,0-41.13a7.8,7.8,0,0,1,7.71-7.59c1.33,0,2.66-.06,4,0,.86,0,1.07-.28,1.05-1.08-.05-2.24,0-4.47,0-6.7a7.11,7.11,0,0,1,6.88-7.3c2.24-.11,4.48,0,6.72,0,.51,0,1.05.12,1.3-.58C468.07,223.32,469.13,220.42,470.21,217.5Z" transform="translate(-179.14 -159.94)"/>
        <path class="cls-5" d="M442.26,268.39c3.48,1.25,7,.95,10.5.92,1.15,0,1.66.23,1.54,1.48a31.92,31.92,0,0,0,0,3.66,4.79,4.79,0,0,0,4.21,4.81,17.23,17.23,0,0,0,1.9.2c4.15.2,7.15-1.38,6.84-6.7-.2-3.4,0-3.41,3.34-3.41,8.67,0,17.35,0,26,0,1.54,0,1.92.47,1.8,1.88a25.7,25.7,0,0,0,0,3.51,4.76,4.76,0,0,0,4.08,4.58,13.54,13.54,0,0,0,4.75,0,4.82,4.82,0,0,0,4-4.49,35.23,35.23,0,0,0,0-4c-.06-1.08.23-1.48,1.4-1.47,3.54,0,7.12.34,10.72-1v21.69a4.8,4.8,0,0,1-5.16,5.18q-35.45,0-70.88,0a4.8,4.8,0,0,1-5.15-5.19q0-10.12,0-20.25C442.18,269.37,442.23,269,442.26,268.39Z" transform="translate(-179.14 -159.94)"/>
        <path class="cls-6" d="M483,244.76h34.81c3.71,0,5.61,1.89,5.62,5.56,0,4.57,0,9.14,0,13.72,0,1.1-.37,1.53-1.43,1.87-3.24,1-6.55.39-9.82.58-.88.05-.89-.54-.89-1.16,0-2.45,0-4.89,0-7.34,0-1.32-.5-1.79-1.8-1.76-3.09.06-6.18.07-9.27,0-1.43,0-1.87.55-1.83,1.89.06,2.39,0,4.78,0,7.17,0,.87-.26,1.22-1.18,1.22q-14.46,0-28.91,0c-.94,0-1.18-.37-1.16-1.24,0-2.44,0-4.88,0-7.34,0-1.2-.42-1.72-1.68-1.7-3.2,0-6.39,0-9.59,0-1.16,0-1.64.45-1.62,1.59,0,2.39,0,4.79,0,7.18,0,1.05-.21,1.56-1.4,1.48-3.17-.2-6.39.4-9.5-.63a1.51,1.51,0,0,1-1.25-1.69c0-4.79,0-9.57,0-14.36a4.8,4.8,0,0,1,5.13-5.05Z" transform="translate(-179.14 -159.94)"/>
        <path class="cls-7" d="M482,217.36h7.51c.62,0,1.11,0,1.4.73a6.61,6.61,0,0,0,3,3,7.74,7.74,0,0,1,.68.42c.9.66,2,1.28,2,2.51s-1.39,1.61-2.37,2.06c-2.85,1.32-2.81,1.3-2.56,4.4a41.15,41.15,0,0,1,.1,5.09,2.05,2.05,0,0,1-1.37,2.13c-1,.24-1.42-.73-1.84-1.44-1-1.72-1.57-1.81-3-.46-2.07,1.9-2.92,1.75-4.2-.73-1.09-2.12-1.22-2.15-3.31-.87-1.24.75-1.6.57-1.86-.9-.51-2.91-.51-2.91-3.49-2.26l-.79.13c-2.09.36-2.68-.12-2.43-2.23.37-3,1.68-5.78,2.68-8.62,1.05-3,1.1-3,4.35-3Z" transform="translate(-179.14 -159.94)"/>
        <path class="cls-8" d="M481.73,205.2c4.1,0,8.19,0,12.28,0,1.15,0,1.67.25,1.56,1.49-.17,1.84.19,3.71-.29,5.54a2.68,2.68,0,0,1-2.91,2.32c-7.12-.05-14.25,0-21.37,0-2,0-3.08-.92-3.21-2.9-.12-1.8,0-3.61-.05-5.43,0-1.09.7-1,1.39-1Z" transform="translate(-179.14 -159.94)"/>
        <path class="cls-9" d="M482.8,241.93c-6.71,0-13.42,0-20.12,0-1.3,0-1.67-.37-1.54-1.59.1-.9,0-1.81.05-2.71a3.22,3.22,0,0,1,3.39-3.08c2.6,0,5.21,0,7.82,0a1.46,1.46,0,0,1,1.53,1c.89,1.79,2.15,2.27,4.09,1.6a1.16,1.16,0,0,1,1.62.49c1.8,2.47,3.56,2.82,6.3,1.25a.75.75,0,0,1,1.15.19c1.13,1.19,2.43,1.91,4.12,1.27a4.49,4.49,0,0,0,2.11-1.5,4.56,4.56,0,0,0,.94-2.42c.18-1.46.64-2.1,2.24-1.91a44.36,44.36,0,0,0,4.47,0,3.25,3.25,0,0,1,3.43,3.22c.07.95,0,1.91,0,2.87s-.34,1.3-1.35,1.29c-6.33,0-12.67,0-19,0Z" transform="translate(-179.14 -159.94)"/>
        <path class="cls-10" d="M464.51,270.2c0,1.33.05,2.66,0,4a2.36,2.36,0,0,1-2.54,2.48c-4.41.27-5-.28-5-4.65,0-1.8,0-3.6,0-5.4,0-.8.21-1.13,1.07-1.11,1.8.06,3.61.07,5.41,0,1,0,1.15.39,1.11,1.23-.05,1.16,0,2.32,0,3.49Z" transform="translate(-179.14 -159.94)"/>
        <path class="cls-10" d="M508.61,270.26c0,1.27,0,2.55,0,3.81a2.44,2.44,0,0,1-2.61,2.58h-.32c-4.26.08-4.62-.27-4.62-4.54,0-1.8,0-3.6,0-5.4,0-.83.13-1.26,1.11-1.22,1.8.07,3.61.06,5.41,0,.86,0,1.1.32,1.06,1.11C508.57,267.82,508.61,269,508.61,270.26Z" transform="translate(-179.14 -159.94)"/>
        <path class="cls-11" d="M500.86,229.48h4.78c3.12,0,4.95,1.85,4.95,4.93,0,2.06-.07,4.15,0,6.2.08,1.62-1,1.25-1.89,1.31s-1.83,0-1.67-1.36a21.17,21.17,0,0,0,0-2.39c0-3.86-2.56-6.41-6.48-6.45-1.7,0-3.4,0-5.11,0-.89,0-1.22-.3-1.22-1.2s.4-1.07,1.17-1.06C497.25,229.51,499.06,229.48,500.86,229.48Z" transform="translate(-179.14 -159.94)"/>
        <path class="cls-11" d="M455,237.11v-2.87a4.51,4.51,0,0,1,4.63-4.76c1.86,0,3.73.09,5.58,0,1.3-.08,1.33.72,1.42,1.56.13,1.26-.88.66-1.31.68-3.5.11-6.18,1.89-6.69,4.75a16.72,16.72,0,0,0-.09,4.12c.1,1.4-.7,1.41-1.68,1.36s-2,.32-1.88-1.31C455.07,239.45,455,238.28,455,237.11Z" transform="translate(-179.14 -159.94)"/>
        <path class="cls-12" d="M460.79,262.69H459c-2.1,0-2,0-2.1-2.18-.05-1.24.31-1.72,1.59-1.63a44.69,44.69,0,0,0,4.63,0c1,0,1.41.32,1.38,1.37-.07,2.95.19,2.38-2.31,2.43C461.75,262.7,461.27,262.69,460.79,262.69Z" transform="translate(-179.14 -159.94)"/>
        <path class="cls-12" d="M504.85,262.69a15.22,15.22,0,0,0-1.91,0c-1.55.23-2-.36-2-1.91s.46-2.06,2-1.92a31,31,0,0,0,4.31,0c1.06-.05,1.46.37,1.34,1.4a5.4,5.4,0,0,0,0,1.27c.11,1-.35,1.21-1.22,1.15S505.7,262.69,504.85,262.69Z" transform="translate(-179.14 -159.94)"/>
        <path class="cls-13" d="M482.75,287.62c-1.7,0-3.4,0-5.11,0a3.3,3.3,0,0,1-3.55-3.45c-.2-4.51.11-6.53,5.93-6.22,2.59.14,5.2,0,7.81,0a3.41,3.41,0,0,1,3.63,3.56c.18,4.61-.18,6.42-5.85,6.1-1-.05-1.92,0-2.88,0Z" transform="translate(-179.14 -159.94)"/>
        <path class="cls-10" d="M482.72,280.79c1.6,0,3.2,0,4.77,0,1,0,1.35.4,1.31,1.32,0,.53,0,1.06,0,1.6a1.11,1.11,0,0,1-1.26,1.27H478a1.07,1.07,0,0,1-1.21-1.15c0-.64,0-1.28,0-1.91,0-.79.37-1.14,1.18-1.13C479.54,280.8,481.13,280.79,482.72,280.79Z" transform="translate(-179.14 -159.94)"/>
      </g>
    </g>
  </g>
  <g id="WorkFlow" class="cls-2">
    <g class="cls-14">
      <g>
        <path class="cls-4" d="M490,295.11a8.49,8.49,0,0,0-1-1c-1.13-.79-.78-1.39,0-2.26.95-1,1.55-1.19,2.51,0a39.45,39.45,0,0,0,3.34,3.38c1.07,1,1.14,2,.05,3.09q-1.94,1.91-3.82,3.85c-.52.54-1,.87-1.52.06s-1.61-.94-1.36-1.82c.2-.67,1-1.18,1.71-2H483.7c-9.47,0-18.95-.13-28.42,0a21.41,21.41,0,0,1-6.1-42.08l.16,0c1.18-.23,2.63-.12,3.45-.79s.16-2.15.27-3.29a1.77,1.77,0,0,1,.4-1,1.64,1.64,0,0,1,.88-.55,20.25,20.25,0,0,1,2.63-.87,4.45,4.45,0,0,0,3-6.17c-2.47-4.93-2.55-3.64,1.18-7.48,1.38-1.41,2.81-2.77,4.18-4.19a1.93,1.93,0,0,1,2.63-.44,14.6,14.6,0,0,1,1.89,1c2,1.57,3.83.82,5.73-.1a1.6,1.6,0,0,0,.81-1.14c.39-1.25.87-2.46,1.24-3.72a1.94,1.94,0,0,1,2.15-1.56c3,0,6,0,9,0a1.88,1.88,0,0,1,2.06,1.46c.24.83.65,1.63.82,2.48a4.43,4.43,0,0,0,6.16,3c4.91-2.45,3.62-2.58,7.48,1.19,1.41,1.38,2.77,2.81,4.19,4.18A2,2,0,0,1,510,241c-.43.76-.72,1.61-1.18,2.34a3.9,3.9,0,0,0-.21,4.11c.56,1.18,1.13,2,2.44,2.28,3.15.59,5.61,1.76,4.36,5.73a17.83,17.83,0,0,0,16.35-20.07c-1.19-8.08-5.84-13.17-13.67-15.34a13.37,13.37,0,0,0-3.55-.52c-11.88,0-23.76,0-35.66,0-.08.56.37.8.66,1,1.13.82.75,1.4-.05,2.27-1,1-1.56,1.16-2.51,0a41,41,0,0,0-3.34-3.38c-1.08-1-1.14-2,0-3.09,1.29-1.26,2.57-2.54,3.82-3.84.53-.55,1-.86,1.54-.07s1.6.94,1.34,1.83c-.2.68-1,1.18-1.71,2h34.91c10.52,0,19.08,6.56,21.32,16.83a21.31,21.31,0,0,1-15.38,25.22l-.16,0c-1.18.23-2.63.12-3.45.78s-.16,2.16-.28,3.29a1.71,1.71,0,0,1-1.27,1.54,19.89,19.89,0,0,1-2.48.8,4.11,4.11,0,0,0-3.39,3,3.93,3.93,0,0,0-.25,1.63,3.78,3.78,0,0,0,.48,1.57c2.45,4.94,2.55,3.66-1.18,7.49-1.34,1.38-2.74,2.69-4,4.08a2.09,2.09,0,0,1-2.91.49,14.27,14.27,0,0,1-1.74-.9c-2-1.58-3.83-.83-5.73.09a1.6,1.6,0,0,0-.81,1.15c-.39,1.24-.87,2.46-1.24,3.71a2,2,0,0,1-2.15,1.57c-3,0-6,0-9,0a1.87,1.87,0,0,1-2.06-1.46c-.24-.84-.66-1.63-.82-2.48a4.43,4.43,0,0,0-6.16-3c-4.92,2.48-3.66,2.52-7.48-1.2-1.41-1.37-2.77-2.8-4.19-4.17a2,2,0,0,1-.42-2.64,15.93,15.93,0,0,1,1-1.89c1.58-2,.82-3.84-.1-5.74a1.53,1.53,0,0,0-.41-.5,1.39,1.39,0,0,0-.58-.26c-1.19-.38-2.37-.82-3.57-1.15a2.21,2.21,0,0,1-1.86-2.63,21.67,21.67,0,0,0,0-2.28c-9.55.48-17.73,9.8-16.22,20.05,1.18,8.08,5.85,13.16,13.67,15.34a14.15,14.15,0,0,0,3.71.53C466,295.14,477.87,295.11,490,295.11Z" transform="translate(-179.14 -159.94)"/>
        <path class="cls-4" d="M449.73,229.33H435.59c-1.76,0-2.25-.49-2.26-2.22V208.53c0-1.73.5-2.21,2.26-2.21q14.22,0,28.42,0c1.51,0,2.2.62,2.19,2.15q0,9.38,0,18.76c0,1.53-.68,2.16-2.19,2.15C459.26,229.33,454.49,229.33,449.73,229.33Z" transform="translate(-179.14 -159.94)"/>
        <path class="cls-4" d="M518.74,285.27h14.14c1.86,0,2.34.47,2.34,2.3V306c0,1.83-.48,2.3-2.35,2.3H504.78c-2,0-2.41-.44-2.42-2.39V287.66c0-1.93.46-2.37,2.43-2.37Q511.77,285.25,518.74,285.27Z" transform="translate(-179.14 -159.94)"/>
        <path class="cls-15" d="M506.52,240.41c-.56,1.12-1.08,2.27-1.7,3.37a2.9,2.9,0,0,0,0,3.24.8.8,0,0,1,.15.29,7,7,0,0,0,6.35,6c.77.11.94.61.93,1.3a28,28,0,0,0,0,4.1c.23,1.8-.45,2.83-2.19,3.06a4.94,4.94,0,0,0-4.58,4.35,3.47,3.47,0,0,1-.54,1.19,3.41,3.41,0,0,0,0,3.84c1.73,3.29,1.68,3.32-.88,5.88s-2.7,2.72-6,1a4.62,4.62,0,0,0-3.85-.09c-3.39,1-5.47,2.9-6,6.43-.11.77-.61.94-1.29.93a28,28,0,0,0-4.1,0c-1.8.23-2.83-.44-3.06-2.19a4.9,4.9,0,0,0-4.35-4.58,3,3,0,0,1-1-.48c-1.4-1-2.7-.72-4.14,0-3.13,1.68-3.16,1.65-5.61-.83-2.79-2.79-2.82-2.81-1-6.27a3.17,3.17,0,0,0,0-3.54,2.88,2.88,0,0,1-.47-1c-.5-3.05-2.54-4.39-5.34-4.88a1.64,1.64,0,0,1-1.54-2.17,5.75,5.75,0,0,0,0-.83c0-1.58-.42-3.42.25-4.68s2.71-1.08,4.1-1.7c.15-.07.31-.1.46-.18,1.42-.73,3.34-6.45,2.71-7.89s-2-2.64-1.65-4S464,238,465,237c2.06-2.09,2.13-2.19,4.68-.74,1.86,1.07,3.37.78,5.35.13,2.91-.95,4.51-2.59,5-5.51.21-1.28.95-1.67,2.19-1.55a32.77,32.77,0,0,0,3.29,0c2.57,0,2.69,0,3.28,2.48.52,2.18,1.73,3.21,3.76,4.2a6.78,6.78,0,0,0,7.58-.48,1.43,1.43,0,0,1,2.23.28c1.09,1.23,2.3,2.34,3.47,3.51C506.14,239.63,506.54,239.88,506.52,240.41Z" transform="translate(-179.14 -159.94)"/>
        <path class="cls-16" d="M439.92,209.66c7.33,0,14.67,0,22-.07.78,0,1,.22,1,1-.05,4.06-.05,8.11-.07,12.16a3,3,0,0,1-3.33.06,1.61,1.61,0,0,1-.23-.43c-.66-2.39-.66-2.39-3.21-2.39H442.38a4,4,0,0,1-2.53-.44,3.49,3.49,0,0,1-.05-3.41,3.72,3.72,0,0,1,2.53-.47c4.75,0,9.5,0,14.26,0a9,9,0,0,0,1.64-.09.94.94,0,0,0,.8-1.06.88.88,0,0,0,0-.36,1,1,0,0,0-.17-.33,1.09,1.09,0,0,0-.29-.23,1.08,1.08,0,0,0-.35-.1,10.05,10.05,0,0,0-1.64-.07h-14.1a4.41,4.41,0,0,1-2.55-.4A3,3,0,0,1,439.92,209.66Z" transform="translate(-179.14 -159.94)"/>
        <path class="cls-17" d="M439.92,209.66v3.27a2.84,2.84,0,0,1,0,3.22v3.36a1.56,1.56,0,0,1,.27.4c.78,2.33.78,2.33,3.32,2.33h13.74a3.17,3.17,0,0,1,2.34.51h3.26C463,226,463,226,459.78,226c-7.24,0-14.45,0-21.67,0-1.22,0-1.55-.28-1.53-1.52.09-4.32.12-8.65,0-13-.05-1.65.38-2.31,2-2A8.16,8.16,0,0,0,439.92,209.66Z" transform="translate(-179.14 -159.94)"/>
        <path class="cls-17" d="M518.77,288.56c4,0,8,0,12,0,.91,0,1.21.22,1.2,1.17q-.08,7.07,0,14.12c0,.93-.24,1.2-1.18,1.2q-12-.06-24,0c-.91,0-1.2-.22-1.19-1.17q.08-7.07,0-14.13c0-.92.23-1.2,1.17-1.19Q512.79,288.57,518.77,288.56Z" transform="translate(-179.14 -159.94)"/>
        <path class="cls-4" d="M499.07,257.3A14.78,14.78,0,0,1,490,271a14.92,14.92,0,0,1-5.67,1.11,14.82,14.82,0,1,1,14.79-14.81Z" transform="translate(-179.14 -159.94)"/>
        <path class="cls-4" d="M439.93,216.17V213c6.17,0,12.35,0,18.54-.07,1.53,0,1.15.89,1.15,1.68s.38,1.7-1.15,1.68C452.28,216.12,446.1,216.17,439.93,216.17Z" transform="translate(-179.14 -159.94)"/>
        <path class="cls-4" d="M459.6,222.75c-5.89,0-11.79-.05-17.68.05-1.57,0-2.36-.26-2-2a7.15,7.15,0,0,0,0-1.31c6.17,0,12.35,0,18.53,0,.9,0,1.29.21,1.18,1.16C459.56,221.32,459.62,222,459.6,222.75Z" transform="translate(-179.14 -159.94)"/>
        <path class="cls-4" d="M518.61,295.14c-2.84,0-5.69-.08-8.53,0-1.53.07-1.14-.89-1.15-1.68s-.35-1.7,1.17-1.68q8.68.13,17.38,0c1.53,0,1.14.9,1.15,1.69s.36,1.73-1.17,1.67C524.52,295,521.56,295.14,518.61,295.14Z" transform="translate(-179.14 -159.94)"/>
        <path class="cls-4" d="M518.8,301.7c-2.9,0-5.8-.08-8.69,0-1.52.06-1.18-.86-1.17-1.67s-.38-1.71,1.15-1.69q8.69.12,17.38,0c1.51,0,1.18.86,1.17,1.67s.38,1.75-1.15,1.69C524.59,301.62,521.69,301.7,518.8,301.7Z" transform="translate(-179.14 -159.94)"/>
        <path class="cls-18" d="M495.78,257.33a11.5,11.5,0,0,1-22.8,2.16,11.5,11.5,0,1,1,22.8-2.16Z" transform="translate(-179.14 -159.94)"/>
        <path class="cls-19" d="M492.23,254.87c-.49.58-.68.84-.91,1.07l-7.2,7.2a1.83,1.83,0,0,1-3,0c-1.31-1.32-2.59-2.67-4-3.93-1.06-1-.1-1.4.44-1.86s.92-1.8,2-.57a3.76,3.76,0,0,0,.34.35c.93.83,1.68,2.47,2.73,2.36s1.83-1.55,2.72-2.43a40.33,40.33,0,0,0,3.12-3.15c.89-1.07,1.54-1.07,2.37,0A5.27,5.27,0,0,0,492.23,254.87Z" transform="translate(-179.14 -159.94)"/>
      </g>
    </g>
  </g>
  <g id="figure">
    <path class="cls-20" d="M218.5,422.17c-.13,5.79-.45,11.57-.31,17.36.25,9.69.89,19.35,1.83,29,1.13,11.45,2.7,22.85,4.39,34.24.61,4.12,1.2,8.26,2,12.34.57,2.83,0,5.56-.21,8.31-.71,8.76-1.22,17.52-1.61,26.3-.89,20.14-1.08,40.29-.84,60.44.19,15.54.59,31.07,1.08,46.6.39,12.36,1,24.72,1.64,37.07.12,2.43-.2,4.93.66,7.31,1-.22,2,.21,3,.21,4.27,0,8.52-.31,12.77-.7a1.8,1.8,0,0,0,.73-.34c1.09-.42,2.63.24,3.32-.73s.5-2.15.71-3.25q4.64-24.42,9.28-48.84,4.47-23.47,9-46.94c2.55-13.39,5.13-26.78,7.62-40.18s4.88-26.91,9.47-39.87c.05-.14.11-.27.27-.65,1.49,2.47,2.87,4.79,4.28,7.09,3.71,6,7.3,12.14,11.22,18,1.58,2.36,1.82,4.85,2.11,7.42,1,8.62,2.38,17.17,3.88,25.71,2.7,15.43,5.88,30.76,9.19,46.08q6.25,28.9,13.26,57.64,2.22,9.2,4.48,18.38c.64,2.56.66,2.56,3.16,2.36a2,2,0,0,0,1.57.08c3.7-.77,7.43-1.36,11.13-2.13.57-.12,1.19-.18,1.54-.76,3-.59,3.08-.59,3-3.77q-.22-18.48-.46-37l-.33-23.62q-.27-21.46-.55-42.92-.19-14.87-.43-29.73c-.17-12.27-.18-24.55-.58-36.81-.2-5.81-1.14-11.61-1.75-17.41l-2.1-20q-1.22-11.65-2.42-23.32t-2.47-23.32q-1.25-11.82-2.49-23.64-1.22-11.49-2.4-23c-.34-3.19-.69-6.39-1-9.58-.64,0-1,.41-1.31.83-5.95,7.51-14.1,11.54-23.09,14.23a106.79,106.79,0,0,1-24,3.9c-.59,0-1.22,0-1.63.55-.53,1.33.05,2.65.11,4,.06,1.1-.32,1.42-1.32,1.45-.48,0-1,.08-1.46.13-1.06.1-1.79.62-1.71,1.73s-.53,1.43-1.54,1.52c-4.7.41-9.41.76-14.1,1.25-3.5.36-7.05.27-10.5,1.12-.81.54-.4,1.24-.2,1.87a30.53,30.53,0,0,1,1.13,5A8.61,8.61,0,0,1,253.2,421c-.36-.39-.78-.87-1.38-.51s-.41.85-.29,1.32c.33,1.24.75,2.46,1,3.72a6.88,6.88,0,0,1-.51,4.08,1.9,1.9,0,0,1-2.92,1,7.66,7.66,0,0,1-2.39-2.14,26.77,26.77,0,0,1-4.7-8.73c-.29-.9-.48-1.91-1.65-2.2a85.15,85.15,0,0,0-9.84.68q-4.68.38-9.36.8c-2.37.22-2.39.17-2.48,2.51A1.06,1.06,0,0,1,218.5,422.17Z" transform="translate(-179.14 -159.94)"/>
    <path class="cls-21" d="M285.42,405.15c11.18-.54,22.16-2.1,32.55-6.49,6.62-2.8,12.47-6.65,16.75-12.52a2.83,2.83,0,0,1,.48-.43c.66-7.74,1-15.5,1.39-23.26q1.16-22.4,1.21-44.83c0-3.26-.1-6.53-.23-9.8-.05-1.14.3-1.35,1.4-1.1,13.19,2.93,26.57,4.67,39.95,6.41,9.21,1.2,18.32.09,27.46-.32,8.67-.4,17.33-1.07,26-1.73,9-.69,17.95-1.46,26.91-2.47q4.85-.54,9.71-1.05a5.63,5.63,0,0,0,1.9-.37,2,2,0,0,0,.73-1.2c.66-2.51,1.4-5,2-7.54a2,2,0,0,0,0-1.25c.2-1.09-.7-1-1.32-1.15-5.74-1.12-11.5-2.2-17.24-3.31l-59.37-11.47q-3.82-.74-7.66-1.43a8.94,8.94,0,0,1-3.41-1.37c-16.26-10.69-33.1-20.36-51.19-27.76-4.1-1.67-8.29-3.12-12.54-4.38a3.23,3.23,0,0,0-1.69-.91,74.16,74.16,0,0,0-14.28-2.35,2.36,2.36,0,0,0-1.56.3c-.39.49-.2,1-.09,1.54,1.83,8.38-.91,15.75-5.09,22.82-.56.95-1.14,1-1.95.31-1.6-1.29-3.2-2.57-4.84-3.81-.5-.38-1-1-1.71-.7s-.53,1.11-.53,1.73c0,3.54,0,7.08,0,10.62q0,12.47,0,24.92a3.41,3.41,0,0,1-.34,2.12,3.19,3.19,0,0,1-.34-2.09q0-17.2,0-34.41c0-.89.36-2.12-.53-2.52s-1.31.87-2,1.37c-1.19.93-2.32,1.94-3.55,2.83a2.83,2.83,0,0,1-3.33.16,28.2,28.2,0,0,1-7.58-6.25,61,61,0,0,1-9-14.5,4.84,4.84,0,0,0-.75-1.42c-.52-.45-1.12-.28-1.7-.18a17.89,17.89,0,0,0-6.67,2.37c-1.56,1-3.28,1.59-4.82,2.57-15.68,5.25-26.36,16.26-35,29.61-8.28,12.86-13.91,26.89-18.56,41.35-1,3.15-1.84,6.37-2.92,9.5-1.18,3.43-.3,6.79.14,10.15a89,89,0,0,0,3.11,12.77c-.11,1.51.63,2.79,1.15,4.12,4.78,12,11.79,22.73,20,32.72,5,6,10.57,11.35,16.11,16.78,1.65,1.61,3.47,3.07,5.27,4.53a2.39,2.39,0,0,0,1.94.66c3.13-.65,6.2-1.53,9.29-2.36a1.54,1.54,0,0,0,1.2-1,1.07,1.07,0,0,0-.46-1.15c-1.12,0-1.56-.71-1.89-1.64q-3.62-10.19-7.31-20.32c-4.3-11.87-8.53-23.76-12.87-35.62-.93-2.57-1.81-5.17-2.78-7.73a1.89,1.89,0,0,1,.49-2.3,152,152,0,0,0,16.58-20A95.38,95.38,0,0,0,254,299.16a36.79,36.79,0,0,0,2.08-18.66c0-.31-.16-.63,0-.94.69.81,1,2.15,1.09,4.26A40.34,40.34,0,0,1,254,300.93c-4.21,10.66-10.63,20-17.75,28.93-3.07,3.84-6.39,7.45-9.66,11.11a2.7,2.7,0,0,0-.54,3.09c.79,2.06,1.52,4.14,2.27,6.21.25.7.46,1.45,1.31,1.72a88.68,88.68,0,0,0,8.93-.61c6.81-.6,13.62-1.18,20.44-1.79,5.78-.53,11.57-1,17.35-1.52l.17,0c3.24-.36,3.21-.34,3.51,2.83,1,10.35,1.84,20.71,2.79,31.07q.93,10,1.77,20C284.65,403.06,284.56,404.24,285.42,405.15Z" transform="translate(-179.14 -159.94)"/>
    <path class="cls-22" d="M248.56,250.85a9.49,9.49,0,0,0,3.72-1.45,20.76,20.76,0,0,1,9.2-3.31A4.21,4.21,0,0,0,263.8,245c1.32-.87,2.85-1.3,4.18-2.11a3.34,3.34,0,0,0,.87-2c.92-5.45,1.83-10.9,2.77-16.34a3.63,3.63,0,0,0-.9-3.42c-.15-.16,0,0-.1-.12-3.5-3.19-4.37-7.26-4.06-11.72.12-1.64-.19-2.91-2-3.54a4.56,4.56,0,0,1-2.3-2.41,12.43,12.43,0,0,1-1.54-5.86c0-3,2.1-4.88,5.16-4.65,2.15.17,2.24.12,2.88-1.9s1.37-4,2.12-5.91c.63-1.65.73-1.69,2.32-1A57.71,57.71,0,0,0,283,187.5a2.51,2.51,0,0,0,2.67-.31c-3.34-1.67-6.56-3.28-8.54-5.69a129.36,129.36,0,0,0,20.32,9.89,35.22,35.22,0,0,0,6.93,1.76c1,.14,1.76.42,1.74,1.66-.13,8.66-.57,17.27-3.67,25.5-1.08,2.89-2.39,5.65-5.18,7.4a1.77,1.77,0,0,0-.86,1.8c.52,3.76.85,7.56,1.53,11.3a1.94,1.94,0,0,0,.31.74,31,31,0,0,0,5.16,2,66.6,66.6,0,0,1,15.76,2.37c.57.16,1.14.29,1.72.43,1.88-5.8,3-11.69,2.31-17.82-.54-4.93-2.13-9.58-3.76-14.22-2.35-6.7-4.08-13.52-3.87-20.68.06-2.2.32-4.38.41-6.57.3-7.84-2.87-14.22-8.92-19.07-7.34-5.89-15.76-8.8-25.34-7.85a12.37,12.37,0,0,0-7.1,2.84,1.82,1.82,0,0,1-1.45.5c-7.71-.61-13,2.92-16.34,9.52-3.14,6.12-4.69,12.7-5.71,19.43-1.41,9.34-1.53,18.77-2,28.17a127.17,127.17,0,0,1-1.52,15.82A30.79,30.79,0,0,0,248.56,250.85Z" transform="translate(-179.14 -159.94)"/>
    <path class="cls-23" d="M239.72,412.79c-.57.15-.92-.24-1.28-.54-17-14.27-31.2-30.7-40.28-51.05-1-2.29-1.87-4.65-2.8-7-2.2.91-4.56.63-6.84.9a24.67,24.67,0,0,1-4,.39c-1,0-1,.72-.89,1.34.18,1.43-.28,2-1.85,1.92-2.76-.09-2.8.17-2.47,3,.36,3,.47,6.06.74,9.09.38,4.35.83,8.69,1.23,13,.26,2.82.5,5.63.71,8.45.33,4.41.8,8.8,1.22,13.2.27,2.87.44,5.74.73,8.61.27,2.59.47,5.2.66,7.8.06.87.56.92,1.22.83,4.71-.64,9.45-.86,14.18-1.26,5.54-.47,11.07-1,16.6-1.58,1.76-.17,1.82-.11,1.93,2.26.47-2.44.47-2.39,3.18-2.62,6.37-.53,12.72-1.11,19.08-1.68C241.1,416,241.1,414.27,239.72,412.79Z" transform="translate(-179.14 -159.94)"/>
    <path class="cls-24" d="M336.21,710.5c-2.61,1.09-2.91,1.51-2.87,4.32a41.43,41.43,0,0,0,.2,4.17,2.6,2.6,0,0,0,2.93,2.57c7.15-.17,14.31-.4,21.47-.6,5.75-.16,11.5-.28,17.25-.44,3.42-.09,6.83-.2,10.25-.33a2.9,2.9,0,0,0,3-2.39,2.77,2.77,0,0,0-2.2-3.4q-16.5-4.47-33-8.89a5.77,5.77,0,0,0-3,.4,2.81,2.81,0,0,0-1.74.14c-3.6,1.16-7.18,2.38-10.78,3.54A2.73,2.73,0,0,0,336.21,710.5Z" transform="translate(-179.14 -159.94)"/>
    <path class="cls-24" d="M229.6,709.13c-2.62.59-3.07,1-3.45,3.69-.19,1.32-.35,2.65-.43,4a3,3,0,0,0,3,3.43l35.89,3.8,12.29,1.28a3.12,3.12,0,0,0,3.53-2.17,2.93,2.93,0,0,0-2-3.57c-10.33-4.33-20.68-8.62-31-13-1.21-.51-2.34-.12-3.5-.19a2,2,0,0,0-1.42-.08c-3.77.7-7.55,1.38-11.31,2.09A2.63,2.63,0,0,0,229.6,709.13Z" transform="translate(-179.14 -159.94)"/>
    <path class="cls-25" d="M471.67,306.17c.33-2.87.65-5.75,1-8.63a32.5,32.5,0,0,1,15.64,3.15c-1.72.85-3.6.4-5.1,1.14a4.39,4.39,0,0,0,2.3.81,12.06,12.06,0,0,1,5.44,2.71c2.15,1.83,1.78,3.63-.87,4.16a20.67,20.67,0,0,1-5.73.13A33.64,33.64,0,0,1,471.67,306.17Z" transform="translate(-179.14 -159.94)"/>
    <path class="cls-25" d="M229.6,709.13c4.78-.87,9.59-1.6,14.32-2.73-.08-2-.16-4-.23-6.08-5.52.08-11,.51-16.53.83,1.83-.28,2.33.68,2.32,2.28C229.46,705.33,229.56,707.23,229.6,709.13Z" transform="translate(-179.14 -159.94)"/>
    <path class="cls-25" d="M336.21,710.5l14-4.59a34.71,34.71,0,0,1-1.06-6.15l-14.24,2.81Z" transform="translate(-179.14 -159.94)"/>
    <path class="cls-23" d="M249.79,408.64l.42,1c0,.26-.11.57,0,.79,1.38,2,2.56,4.19,3.82,6.29.05.07.2.05.31,0,8.69-.76,17.38-1.55,26.08-2.25,1.18-.09,1-.7.84-1.36-.46-1.54.16-1.93,1.65-1.93,2.85,0,2.86-.1,2.71-2.83-.06-1.07-.16-2.13-.24-3.19q-1.51-16.87-3-33.74-1-11.27-2-22.55c-.11-1.21-.41-1.62-1.83-1.49-14.2,1.29-28.41,2.47-42.61,3.69-2.22.19-4.43.41-6.64.62-.38.72,0,1.37.23,2,3.19,9.23,6.6,18.39,9.9,27.59q4.63,12.89,9.4,25.72A2.89,2.89,0,0,0,249.79,408.64Z" transform="translate(-179.14 -159.94)"/>
    <path class="cls-25" d="M254.38,416.71a61.63,61.63,0,0,0-4.17-7.1c-1.28,1.12-3,1-4.48,1.52-2,.67-4,1.12-6,1.66a25.18,25.18,0,0,1,1,5.08c1.38,3.71,2.8,7.39,5.29,10.56a10.84,10.84,0,0,0,2.4,2.38c1.86,1.26,3.42.74,4.16-1.39a9.37,9.37,0,0,0-.09-5.83c-.27-1-.91-1.83-.72-3.1,1.68.87,2.35,2.7,4.09,3.7C256.22,421.4,254.91,419.12,254.38,416.71Z" transform="translate(-179.14 -159.94)"/>
    <path class="cls-26" d="M298.11,448.1c0-.81.48-1.47-.55-1.63s-.75.65-.82,1.12c-2.55,17.9-6.12,35.61-10,53.26-1.28,5.79-2.6,11.57-3.89,17.35-.13.57-.4,1.24.43,1.47s.89-.6,1-1.08c2.67-11.62,5.24-23.25,7.6-34.93,1.86-9.22,3.59-18.46,5.1-27.75C297.42,453.22,297.76,450.51,298.11,448.1Z" transform="translate(-179.14 -159.94)"/>
    <path class="cls-27" d="M303.4,243.53a8.82,8.82,0,0,0-5-2c-.46.37-.32.85-.29,1.33A22,22,0,0,1,296,254.57a18.47,18.47,0,0,1-6.06,6.79,2.3,2.3,0,0,1-2.57.22c-5.54-2.72-10.62-6-14.49-10.9a24,24,0,0,1-3.75-6.53c-.23-.61-.27-1.44-1.23-1.49a26.07,26.07,0,0,0-6.39,3.43c3.3,8.1,7.53,15.64,14.8,20.9,5,3.62,4,3.26,8.6-.26a39.58,39.58,0,0,0,2.95-2.74,3.19,3.19,0,0,1,.18,1.76q0,17.78,0,35.56c0,.37,0,.75,0,1.12,0,.56-.2,1.25.8,1.22s.69-.63.72-1.14c0-.32,0-.64,0-1V263.34c2.52,2,4.8,3.78,7,5.59.57.46.93.75,1.47-.11,3.69-5.92,6.35-12.15,6.27-19.28A23,23,0,0,0,303.4,243.53Z" transform="translate(-179.14 -159.94)"/>
    <path class="cls-28" d="M249.79,408.64,242.5,388.4q-6.6-18.36-13.19-36.72c-1.07-2.86-2.11-5.73-3.2-8.57-.33-.86.18-1.28.67-1.8a162.14,162.14,0,0,0,20.94-27c4.32-7.16,7.94-14.62,9.43-22.92a29,29,0,0,0-.2-12c-.11-.5-.28-1-.95-.79s-.68.55-.55,1.11c1.69,7.53.05,14.66-2.81,21.61-3.87,9.41-9.48,17.8-15.7,25.81a149,149,0,0,1-12.09,13.89,1.46,1.46,0,0,0-.41,1.8q11.61,32.11,23.2,64.22C247.93,407.89,247.76,409.93,249.79,408.64Z" transform="translate(-179.14 -159.94)"/>
    <path class="cls-28" d="M338.23,297.74c-.21-11.94-1-23.82-3.63-35.52a2.62,2.62,0,0,0-.14-.63c-.21-.41,0-1.17-1-.94s-.64.72-.51,1.25c.72,3.13,1.3,6.27,1.77,9.45.69,4.6,1.16,9.23,1.46,13.87.43,6.62.7,13.26.63,19.9,0,.49-.19,1.17.67,1.18s.7-.66.7-1.16C338.24,302.68,338.23,300.21,338.23,297.74Z" transform="translate(-179.14 -159.94)"/>
    <path class="cls-25" d="M267.87,242.66c1.05,1.33,1.27,3,2.08,4.47,3.8,6.74,9.77,11,16.51,14.5a3.63,3.63,0,0,0,4.5-.46,19.43,19.43,0,0,0,7.5-13.71,24.26,24.26,0,0,0,0-5.9q-.81-5.88-1.61-11.75c-.08-.61-.34-1.29.49-1.67,2.47-1.1,3.57-3.34,4.65-5.56,2.34-4.78,3.3-9.94,3.91-15.14a104.94,104.94,0,0,0,.7-13.15c0-.94-.15-1.35-1.26-1.47-5.84-.64-11.11-3-16.34-5.5-4.62-2.2-9.07-4.7-13.55-7.2a23.61,23.61,0,0,0,9.68,7.29,32.46,32.46,0,0,1-6.51-1.69,36.09,36.09,0,0,1-6.24-2.65c-.85-.49-1.15-.33-1.45.57-.89,2.69-1.92,5.33-2.82,8-.24.73-.43,1.05-1.32.9-4.33-.74-6.83,1.49-6.51,5.79a12.28,12.28,0,0,0,2.15,6.13c.52.76,1.1,1.68,2,1.81,1.74.25,1.72,1.29,1.72,2.6a57.35,57.35,0,0,0,.34,6.41,8.06,8.06,0,0,0,2.84,4.74,5.52,5.52,0,0,1,1.75,5.79c-1.08,5.18-1.83,10.42-2.73,15.64A6.56,6.56,0,0,1,267.87,242.66Z" transform="translate(-179.14 -159.94)"/>
  </g>
  <g id="Deadline" class="cls-2">
    <g class="cls-29">
      <g>
        <path class="cls-30" d="M443.46,264.67c.68-2.1.15-4.26.31-6.38,1.46-1.24,1.35-2.93,1.34-4.61,0-4.08,0-4.08,4.11-4.08H523.6c3.32,0,3.41.09,3.42,3.4v22.52c-.06,2.21-.45,2.52-2.58,1.89a20.62,20.62,0,0,0-22.83,8A20,20,0,0,0,498,298.63c.12,1.64-.25,2.1-1.95,2.13-3.14.06-6.28,0-9.43,0H450.27a13.75,13.75,0,0,1-2.13-.08,3.46,3.46,0,0,1-3-3.19,18.44,18.44,0,0,1-.05-2c0-9,0-18,0-26.92C445.15,267,444.92,265.61,443.46,264.67Z" transform="translate(-179.14 -159.94)"/>
        <path class="cls-4" d="M443.46,264.67c1.71.19,2.1.64,2.1,2.46v29.35c0,2.79,1.05,3.83,3.84,3.83h46.84c.87,0,1.52.11,1.36-1.22a20.81,20.81,0,0,1,11.19-20.69,20.57,20.57,0,0,1,16.59-1.22c1.14.4,1.22.07,1.22-.93q0-12.48,0-24.94c0-.95-.2-1.28-1.22-1.28q-39.31,0-78.63,0c-1.07,0-1.25.38-1.22,1.3.06,1.53,0,3,0,4.57a2,2,0,0,1-1.8,2.37,2,2,0,0,1-1.54-2.28c0-6.79,0-13.59,0-20.39A6.34,6.34,0,0,1,448.7,229c1.77,0,3.55,0,5.32,0,.92,0,1.35-.21,1.22-1.17a6.91,6.91,0,0,1,0-.91c-.35-4.87,2.86-6.67,7.37-6a4.78,4.78,0,0,1,4,4.84c.08,3.22.08,3.22,3.35,3.22,2.84,0,5.68,0,8.52,0,.85,0,1.22-.22,1.14-1.1a19.86,19.86,0,0,1,0-2.44,4.8,4.8,0,0,1,1.44-3.24,4.75,4.75,0,0,1,3.26-1.37,9.19,9.19,0,0,1,3.46.28c2.06.74,3.16,2.53,3.17,5.17s0,2.69,2.67,2.69c3.45,0,6.9-.06,10.35,0,1.23,0,1.71-.25,1.6-1.55a7.73,7.73,0,0,1,.25-3.3,4.39,4.39,0,0,1,3.26-3.08c3.59-.74,5.74-.08,7.15,2.13a6.78,6.78,0,0,1,.66,4.28c-.07,1.2.28,1.59,1.51,1.52a52.45,52.45,0,0,1,5.32,0,6.25,6.25,0,0,1,4.4,1.92,6.08,6.08,0,0,1,1.33,2.06,6.23,6.23,0,0,1,.43,2.41c0,6,0,12.07,0,18.1,0,8.06,0,16.13,0,24.18a2.66,2.66,0,0,0,1.21,2.49,21.08,21.08,0,0,1,7.66,23.08c-.38,1.26-1,2.11-2.43,1.88-1.26-.43-1.6-1.09-1.17-2.71a22,22,0,0,0,.75-5.7,17.36,17.36,0,0,0-28.45-13,17.4,17.4,0,0,0,22.2,26.81c1.5-1.22,2.27-1.16,3.15,0s.25,2-.66,2.73a21.14,21.14,0,0,1-33.22-8.43,1.57,1.57,0,0,0-1.82-1.22q-23.74,0-47.46,0c-4.82,0-7.37-2.56-7.37-7.41q0-14.6,0-29.19A2.36,2.36,0,0,1,443.46,264.67Z" transform="translate(-179.14 -159.94)"/>
        <path class="cls-31" d="M532.78,310.57c-1.18-1.06-2.08-.36-3,.41a17.72,17.72,0,0,1-27.6-6.92,17.79,17.79,0,0,1,20.3-24.26c7.27,1.68,11.75,6.39,13.49,13.64a16.43,16.43,0,0,1-.43,9.11,2,2,0,0,0,.79,2.63A27,27,0,0,1,532.78,310.57Z" transform="translate(-179.14 -159.94)"/>
        <path class="cls-13" d="M486.09,290.62c-1.57,0-3.14,0-4.71,0a3.18,3.18,0,0,1-3.44-3.39c-.05-3.15-.06-6.29,0-9.44a3.23,3.23,0,0,1,3.48-3.37c3.09,0,6.19,0,9.28,0a3.3,3.3,0,0,1,3.54,3.5q.06,4.63,0,9.27a3.24,3.24,0,0,1-3.44,3.42C489.24,290.64,487.66,290.62,486.09,290.62Z" transform="translate(-179.14 -159.94)"/>
        <path class="cls-13" d="M486.18,255c1.52,0,3.05,0,4.57,0a3.18,3.18,0,0,1,3.48,3.21c.08,3.24.07,6.49,0,9.74a3.2,3.2,0,0,1-3.31,3.25c-3.25.06-6.49.06-9.74,0a3.14,3.14,0,0,1-3.24-3.3q-.09-4.78,0-9.57a3.2,3.2,0,0,1,3.52-3.32Z" transform="translate(-179.14 -159.94)"/>
        <path class="cls-4" d="M463.37,290.62c-1.57,0-3.14,0-4.71,0a3.09,3.09,0,0,1-3.39-3.24q-.07-4.87,0-9.74a3.14,3.14,0,0,1,3.29-3.22c3.2,0,6.39,0,9.59,0a3.19,3.19,0,0,1,3.31,3.35q0,4.78,0,9.57a3.12,3.12,0,0,1-3.23,3.26h-4.87Z" transform="translate(-179.14 -159.94)"/>
        <path class="cls-4" d="M463.41,255c1.57,0,3.14,0,4.71,0a3.16,3.16,0,0,1,3.35,3.31q0,4.8,0,9.58a3.08,3.08,0,0,1-3.06,3.27q-5,.12-10,0a3,3,0,0,1-3.1-3.23q-.07-4.86,0-9.72a3.1,3.1,0,0,1,3.27-3.22Z" transform="translate(-179.14 -159.94)"/>
        <path class="cls-4" d="M508.8,255c1.57,0,3.14,0,4.71,0a3.07,3.07,0,0,1,3.35,3.12q.1,5,0,10a2.92,2.92,0,0,1-3,3q-5.08.12-10.18,0a3,3,0,0,1-3-3.18q-.06-4.86,0-9.72a3.11,3.11,0,0,1,3.24-3.26C505.55,254.94,507.18,255,508.8,255Z" transform="translate(-179.14 -159.94)"/>
        <path class="cls-32" d="M448.68,290.69c0-1,0-1.93,0-2.89,0-1.17.55-2.05,1.77-2s1.61.86,1.58,2c0,1.72,0,3.45,0,5.18,0,.74.23.95.95.93,1.26-.05,2.53,0,3.8,0a1.48,1.48,0,0,1,1.68,1.54,1.51,1.51,0,0,1-1.52,1.72,40.7,40.7,0,0,1-5.18,0,3.36,3.36,0,0,1-3-3.42C448.64,292.72,448.68,291.7,448.68,290.69Z" transform="translate(-179.14 -159.94)"/>
        <path class="cls-33" d="M452,280.28c.09,1.09-.18,2.1-1.52,2.25a1.56,1.56,0,0,1-1.75-1.52c-.12-1.17-.4-2.54,1-3.18S452,278.22,452,280.28Z" transform="translate(-179.14 -159.94)"/>
        <path class="cls-34" d="M464.33,293.91c1.05-.08,2.09.11,2.25,1.5.12,1-.55,1.58-1.48,1.78-1.58.35-3-.15-3.3-1.14C461.37,294.77,462.37,293.89,464.33,293.91Z" transform="translate(-179.14 -159.94)"/>
        <path class="cls-35" d="M486,246.79q-19.47,0-38.94,0c-1.12,0-1.58-.19-1.54-1.45.1-3.2,0-6.4,0-9.58a3.12,3.12,0,0,1,3.31-3.49c1.77-.07,3.55,0,5.32,0,.84,0,1,.36,1,1.1a19.26,19.26,0,0,0,.05,2.74,4.77,4.77,0,0,0,4.57,4.26,11.29,11.29,0,0,0,3-.13c2.43-.56,3.71-2.51,3.72-5.36,0-2.6,0-2.6,2.63-2.6,3,0,6.09,0,9.13,0,.93,0,1.32.28,1.22,1.22a9.37,9.37,0,0,0,0,1.06c-.25,5,3.46,6.61,7.76,5.66a4.63,4.63,0,0,0,3.62-4.81c.05-3.1.05-3.1,3.2-3.1,3.4,0,6.79,0,10.19,0,.91,0,1.3.23,1.22,1.19-.07.7,0,1.42,0,2.13a4.49,4.49,0,0,0,.57,2.18C507.29,240,510,241,513,240.32a5,5,0,0,0,3.94-4.78c.08-1-.49-2.41.29-3s2.13-.18,3.24-.21a28.77,28.77,0,0,1,3.35.08,3,3,0,0,1,2.77,3.06c0,3.45,0,6.9,0,10.35,0,1.3-.77,1-1.48,1H486Z" transform="translate(-179.14 -159.94)"/>
        <path class="cls-36" d="M463.3,230.78c0,1.46,0,2.92,0,4.38,0,1.16-.41,1.81-1.63,1.89-2.15.16-3.08-.14-3.12-1.45q-.18-5,0-10c.05-1.31,1.09-1.64,3.29-1.41,1.17.12,1.46.85,1.45,1.88C463.28,227.64,463.3,229.21,463.3,230.78Z" transform="translate(-179.14 -159.94)"/>
        <path class="cls-36" d="M487.64,230.61c0,1.52,0,3,0,4.54,0,1.24-.48,1.87-1.76,1.93-2.15.09-3-.22-3-1.59-.1-3.22-.1-6.46,0-9.68,0-1.4.9-1.72,3.16-1.61,1.24.07,1.65.73,1.63,1.86C487.62,227.56,487.64,229.09,487.64,230.61Z" transform="translate(-179.14 -159.94)"/>
        <path class="cls-36" d="M508.87,230.61V225.9c0-1.11.48-1.76,1.63-1.7s3-.53,3.08,1.46c.16,3.28.15,6.58,0,9.87-.08,1.87-1.7,1.47-2.92,1.52s-1.83-.48-1.8-1.72C508.9,233.76,508.87,232.19,508.87,230.61Z" transform="translate(-179.14 -159.94)"/>
        <path class="cls-37" d="M510.37,297.2c.82-.13,1.22.5,1.74,1,1,.91,1.68,2.74,2.78,2.7.94,0,1.8-1.73,2.69-2.7l7.47-8.2c.69-.77,1.43-1.35,2.48-.66s1,1.69,0,2.84q-4.95,5.46-9.91,10.88c-2.72,3-2.74,2.95-5.52,0-.93-1-1.82-2-2.76-3.05a1.76,1.76,0,0,1-.45-.94,1.71,1.71,0,0,1,.15-1,1.28,1.28,0,0,1,.55-.62A1.3,1.3,0,0,1,510.37,297.2Z" transform="translate(-179.14 -159.94)"/>
        <path class="cls-38" d="M481.21,282.62c0-1.31,0-2.63,0-3.94,0-.73.23-1,1-.95q3.93,0,7.88,0c.75,0,.94.27.91,1q0,3.87,0,7.73c0,.79-.22,1.06-1,1q-3.87-.06-7.74,0c-.83,0-1-.3-1-1.06C481.24,285.15,481.21,283.88,481.21,282.62Z" transform="translate(-179.14 -159.94)"/>
        <path class="cls-38" d="M491,263.43c-.17,1.28.68,3.29-.33,4.25s-2.89.2-4.4.25c-1.32,0-2.63,0-4,0-.74,0-1.1-.14-1.08-1,.05-2.58,0-5.16,0-7.74,0-.72.21-1,.94-1q4,0,7.9,0c.75,0,.94.28.91,1C490.91,260.54,491,261.86,491,263.43Z" transform="translate(-179.14 -159.94)"/>
        <path class="cls-38" d="M458.47,282.65c0-1.32,0-2.63,0-4,0-.73.27-1,1-.95,2.59,0,5.18,0,7.76,0,.85,0,1,.35,1,1.08,0,2.54,0,5.07,0,7.61,0,.77-.23,1.07-1,1.06-2.54,0-5.08-.05-7.61,0-.92,0-1.12-.38-1.09-1.18C458.5,285.09,458.47,283.87,458.47,282.65Z" transform="translate(-179.14 -159.94)"/>
        <path class="cls-38" d="M463.3,267.93c-1.27,0-2.53,0-3.8,0-.8,0-1.05-.3-1-1.07q0-3.8,0-7.59c0-.79.27-1,1.05-1q3.87.06,7.73,0c.74,0,1,.27.95,1,0,2.57,0,5.16,0,7.73,0,.86-.38,1-1.1,1C465.83,267.91,464.56,267.93,463.3,267.93Z" transform="translate(-179.14 -159.94)"/>
        <path class="cls-38" d="M504,262.77c.14-1.29-.67-3.3.32-4.26s2.9-.26,4.41-.23,3.67-.71,4.67.3.28,3,.26,4.55.69,3.54-.33,4.52-2.9.22-4.41.27c-1.32,0-2.64,0-4,0-.71,0-1-.23-1-1C504,265.67,504,264.34,504,262.77Z" transform="translate(-179.14 -159.94)"/>
      </g>
    </g>
  </g>
  <g id="Error" class="cls-2">
    <g class="cls-39">
      <g>
        <path class="cls-18" d="M485.17,302.48c11.85,0,23.7,0,35.55,0a20.58,20.58,0,0,0,5.12-.58,15.64,15.64,0,0,0,9.24-23c-3.57-6-7-12.18-10.52-18.27-8.48-14.71-16.92-29.44-25.45-44.12-6.46-11.12-20.93-11.28-27.36-.23-12.13,20.84-24.11,41.76-36.13,62.66a15,15,0,0,0-1.66,12c2.08,7.24,7.76,11.53,15.34,11.55C461.26,302.5,473.21,302.48,485.17,302.48Z" transform="translate(-179.14 -159.94)"/>
        <path class="cls-24" d="M485.17,302.48c-12,0-23.91,0-35.87,0-7.58,0-13.26-4.31-15.34-11.56a15,15,0,0,1,1.66-12q18-31.35,36.13-62.66c6.43-11.06,20.9-10.89,27.36.23,8.53,14.67,17,29.41,25.45,44.12,3.51,6.09,7,12.21,10.52,18.27a15.64,15.64,0,0,1-9.24,23,20.91,20.91,0,0,1-5.11.57C508.87,302.5,497,302.48,485.17,302.48Zm-5.73-59.22h.09q.5,9.08,1,18.14c.16,2.64.32,5.29.57,7.93a3.76,3.76,0,0,0,2.48,3.15c3.06,1.32,5.88-.78,6.08-4.45.35-6.53.76-13.06,1.13-19.6.13-2.32.35-4.65.25-7a5.72,5.72,0,0,0-5.59-5.64,5.92,5.92,0,0,0-5.86,4.84A18.68,18.68,0,0,0,479.44,243.26ZM491,282.8a5.78,5.78,0,0,0-5.58-6,6,6,0,0,0-5.82,5.81,5.91,5.91,0,0,0,5.76,5.83A5.68,5.68,0,0,0,491,282.8Z" transform="translate(-179.14 -159.94)"/>
        <path class="cls-18" d="M479.44,243.26a18.68,18.68,0,0,1,.18-2.59,5.91,5.91,0,0,1,5.86-4.84,5.72,5.72,0,0,1,5.59,5.64c.1,2.31-.12,4.64-.25,7-.37,6.54-.78,13.07-1.13,19.6-.2,3.67-3,5.77-6.08,4.45a3.76,3.76,0,0,1-2.48-3.15c-.25-2.64-.41-5.29-.57-7.93-.36-6-.69-12.09-1-18.14Z" transform="translate(-179.14 -159.94)"/>
        <path class="cls-18" d="M491,282.8a5.68,5.68,0,0,1-5.64,5.68,5.91,5.91,0,0,1-5.76-5.83,6,6,0,0,1,5.82-5.81A5.78,5.78,0,0,1,491,282.8Z" transform="translate(-179.14 -159.94)"/>
      </g>
    </g>
  </g>
  <g id="Time_Efficient" data-name="Time Efficient" class="cls-2">
    <g class="cls-40">
      <g>
        <path class="cls-4" d="M507.28,294.28a2.27,2.27,0,0,1-1.21,2.91c-19.61,12.58-46.71,4.06-55.6-17.54a2,2,0,0,0-2.19-1.46c-3.79.1-7.59.05-11.39,0-1.57,0-2.4-.67-2.43-1.88s.82-1.91,2.39-1.92c3.49,0,7-.05,10.47,0,1.13,0,1.31-.4,1-1.31a28.29,28.29,0,0,1-.81-5.08c-.08-.76-.34-.92-1-.92q-3.42,0-6.83,0c-1.69,0-2.51-.65-2.52-1.94s.76-2,2.46-2c2.28,0,4.56,0,6.83,0,.87,0,1-.35,1-1.08a23.07,23.07,0,0,1,.66-5.1c.25-1-.11-1.14-1-1.14-6,0-11.95,0-17.93,0-1.21,0-2.09-.39-2.32-1.67a1.83,1.83,0,0,1,2-2.1c2.12-.06,4.25,0,6.38,0,4.25,0,8.5,0,12.76,0,1,0,1.56-.25,1.87-1.25a35.23,35.23,0,0,1,2.84-6.09h-8.58c-.81,0-1.62,0-2.43,0a1.81,1.81,0,0,1-1.88-2,1.78,1.78,0,0,1,2-1.85,86,86,0,0,1,8.65,0,8.34,8.34,0,0,0,7.79-3.18c4.67-5.38,10.82-8.68,17.71-10.48,1-.27,1.52-.61,1.32-1.71a2.08,2.08,0,0,1,0-.61c.21-1.73,0-3-2-3.86-2.32-1.05-3.32-4-2.81-6.53a6,6,0,0,1,5-5,81.1,81.1,0,0,1,16.19,0A6,6,0,0,1,498.9,215a6.33,6.33,0,0,1-3.74,6.79,1.55,1.55,0,0,0-1.18,1.71c.07,3.38,0,3.31,3.21,4.4,14.51,5,23.35,15,26.24,30.14,1.82,9.54-.13,18.47-5.12,26.76-.74,1.22-1.58,2-3.07,1.26-1.24-.86-1.47-1.52-.84-2.77s1.36-2.5,2-3.77a34.62,34.62,0,0,0-4.48-36.88,34.09,34.09,0,0,0-59.67,15.42A33.44,33.44,0,0,0,459.13,286a34.08,34.08,0,0,0,43.52,8.3,16,16,0,0,1,1.88-1C505.78,292.76,506.55,293.06,507.28,294.28Z" transform="translate(-179.14 -159.94)"/>
        <path class="cls-41" d="M507.28,294.28c-1-1.22-2.1-1.06-3.34-.29a34.41,34.41,0,0,1-19,5.21c-15.16-.16-28.78-11-32.63-25.76a34.51,34.51,0,0,1,66.44-18.68,33.86,33.86,0,0,1-3.67,28c-.73,1.22-1,2.28.13,3.35a21.91,21.91,0,0,1-2.44,2.84c-.28.18-.57.08-.86.07-1.43,0-2,.67-1.82,2.13a1.5,1.5,0,0,1,0,.73A19.85,19.85,0,0,0,507.28,294.28Z" transform="translate(-179.14 -159.94)"/>
        <path class="cls-42" d="M510.12,291.86a2,2,0,0,1,0-2.71c.81-.91,1.74-.69,2.68-.21.64.91.91,1.83.07,2.74S511.08,292.37,510.12,291.86Z" transform="translate(-179.14 -159.94)"/>
        <path class="cls-43" d="M485.49,218.53c-2.18,0-4.35,0-6.52,0a2.47,2.47,0,0,1-2.7-2.6,2.51,2.51,0,0,1,2.73-2.59q6.69,0,13.35,0a2.61,2.61,0,1,1,0,5.2C490.05,218.55,487.76,218.53,485.49,218.53Z" transform="translate(-179.14 -159.94)"/>
        <path class="cls-44" d="M485.79,222.46h1.82c2.93,0,3.21.37,2.77,3.37-.09.61-.37.63-.8.56a23.26,23.26,0,0,0-7.54,0c-.65.11-.85-.09-.9-.78-.2-3.15-.23-3.14,2.83-3.14Z" transform="translate(-179.14 -159.94)"/>
        <path class="cls-4" d="M485.72,235a29.53,29.53,0,1,1-29.43,29.07A29.56,29.56,0,0,1,485.72,235Z" transform="translate(-179.14 -159.94)"/>
        <path class="cls-18" d="M511.31,264.54a25.6,25.6,0,1,1-7.5-18.15,25.72,25.72,0,0,1,7.5,18.15Z" transform="translate(-179.14 -159.94)"/>
        <path class="cls-4" d="M485.49,270.54a5.93,5.93,0,0,1-5.4-7.62,1.57,1.57,0,0,0-.51-1.82c-1.07-1-2.1-2.06-3.12-3.11s-1-2.21-.22-3c1-.95,2-.68,2.93.23,1.07,1.07,2.17,2.13,3.19,3.24a1.34,1.34,0,0,0,1.71.42,3.33,3.33,0,0,1,1.31-.36,3.43,3.43,0,0,1,1.35.19c1.41.58,2.17,0,3.08-.95,2.43-2.57,5-5,7.49-7.54,1.2-1.2,2.25-1.32,3.14-.39s.75,1.86-.41,3c-2.67,2.7-5.34,5.4-8.06,8.06a1.86,1.86,0,0,0-.6,2.07A5.9,5.9,0,0,1,485.49,270.54Z" transform="translate(-179.14 -159.94)"/>
        <path class="cls-33" d="M487.61,284.07c.09,1,0,2.06-1.11,2.57a1.75,1.75,0,0,1-1.25.15,1.77,1.77,0,0,1-1.05-.72,4.54,4.54,0,0,1,0-4.05,1.75,1.75,0,0,1,2.16-.62C487.58,281.89,487.67,282.94,487.61,284.07Z" transform="translate(-179.14 -159.94)"/>
        <path class="cls-45" d="M466.7,262.63a3.41,3.41,0,0,1,1.06.1,1.86,1.86,0,0,1,.82.52,1.88,1.88,0,0,1,.47.85,1.84,1.84,0,0,1-.88,2.07,4.61,4.61,0,0,1-4-.21,1.93,1.93,0,0,1-.44-2.22C464,262.94,464.8,262.64,466.7,262.63Z" transform="translate(-179.14 -159.94)"/>
        <path class="cls-46" d="M505.13,266.58a2.61,2.61,0,0,1-2.33-.76,2,2,0,0,1-.19-2.14c.4-.94,2.38-1.44,3.81-1a1.85,1.85,0,0,1,1.47,2.15C507.6,266.31,506.45,266.68,505.13,266.58Z" transform="translate(-179.14 -159.94)"/>
        <path class="cls-47" d="M487.61,245.12c.1,1.09,0,2.11-1.1,2.61a1.81,1.81,0,0,1-1.19.14,1.79,1.79,0,0,1-1-.64,5.25,5.25,0,0,1-.21-4,1.73,1.73,0,0,1,2.06-.92C487.56,242.77,487.75,243.9,487.61,245.12Z" transform="translate(-179.14 -159.94)"/>
        <path class="cls-48" d="M485.72,262.56a2.13,2.13,0,0,1,1.44.56,2.1,2.1,0,0,1,.66,1.4,2.14,2.14,0,0,1-.62,1.49,2.18,2.18,0,0,1-1.49.62,1.88,1.88,0,0,1-.81-.15,1.86,1.86,0,0,1-.68-.46,2,2,0,0,1-.44-.7,2.11,2.11,0,0,1-.11-.82,1.83,1.83,0,0,1,.16-.77,1.73,1.73,0,0,1,.45-.65,1.92,1.92,0,0,1,.67-.41A1.83,1.83,0,0,1,485.72,262.56Z" transform="translate(-179.14 -159.94)"/>
      </g>
    </g>
  </g>
</svg>
