<svg width="81" height="82" viewBox="0 0 81 82" fill="none" xmlns="http://www.w3.org/2000/svg">
<g clip-path="url(#clip0_7_185)">
<path d="M19.5794 63.5634C18.5467 64.8697 17.4263 65.6093 15.8196 65.3862C15.5138 65.3435 15.0952 65.8726 14.7768 66.186C12.4207 68.5201 11.4256 68.5201 9.05941 66.1534C6.51776 63.6144 3.97696 61.073 1.43699 58.529C-0.222344 56.8593 -0.237383 55.4352 1.43699 53.793C2.22405 53.0208 2.98353 52.3087 2.75042 51.0351C2.69277 50.7217 2.95847 50.3331 3.11387 49.9971C3.20374 49.8076 3.33579 49.6413 3.49988 49.5107C8.88646 45.3012 11.5534 39.2062 14.6615 33.4197C16.4161 30.1603 18.1055 26.8433 19.9629 23.6417C21.5195 20.9465 21.2663 18.1058 20.9981 15.2351C20.9705 14.9242 20.6071 14.6259 20.369 14.3501C19.1683 12.9711 19.1508 11.5145 20.3865 10.2108C21.334 9.20788 22.309 8.23343 23.3116 7.28739C24.6301 6.0338 26.1014 6.05636 27.4199 7.31496C28.2671 8.12227 29.0817 8.96217 29.9014 9.79706C30.4428 10.3486 30.5756 10.9729 30.0091 11.5646C29.4427 12.1563 28.7859 12.0209 28.2546 11.4694C27.3572 10.5367 26.5 9.57393 25.5776 8.57858L22.2414 12.2767L56.0798 46.106L57.6814 44.5791C56.2368 42.7713 55.2535 40.6391 54.8165 38.3663C54.7312 37.9326 54.2951 37.5365 53.9517 37.193C46.9868 30.203 40.0195 23.2263 33.0496 16.2631C32.7538 15.9672 32.3127 15.699 32.2249 15.3454C32.1046 14.844 32.062 14.0919 32.3427 13.8261C32.6235 13.5603 33.5008 13.5528 33.8467 13.8035C34.6703 14.4489 35.4262 15.1764 36.1026 15.9747C36.5738 16.4937 36.9598 16.5439 37.6065 16.2255C40.9753 14.5431 42.0857 14.7563 44.7652 17.4465C46.9175 19.6076 49.0714 21.7663 51.2271 23.9225C53.1371 25.838 53.483 27.5704 52.152 29.8846C51.5003 31.0128 51.6106 31.6997 52.5881 32.4945C53.2925 33.0662 53.8414 33.8334 54.636 34.7209C54.9092 33.718 55.0696 33.021 55.2877 32.3416C55.9065 30.3889 56.9816 28.6117 58.4238 27.1573C59.8661 25.7029 61.634 24.6132 63.5811 23.9783C65.5283 23.3435 67.5986 23.1818 69.6207 23.5067C71.6427 23.8315 73.5583 24.6336 75.2088 25.8465C76.8592 27.0593 78.197 28.648 79.1113 30.481C80.0257 32.314 80.4903 34.3385 80.4666 36.3869C80.4429 38.4353 79.9317 40.4485 78.9752 42.2599C78.0188 44.0712 76.6446 45.6286 74.9666 46.803C74.6257 47.0412 74.2623 47.3947 73.8963 47.4122C73.4627 47.4323 72.831 47.2718 72.6205 46.9609C72.4099 46.65 72.5403 46.0358 72.6882 45.6096C72.7784 45.3463 73.1669 45.1758 73.4401 44.9803C77.1197 42.285 78.7791 38.6647 77.8692 34.1994C76.9593 29.7341 74.1094 26.9436 69.6377 25.9508C64.2962 24.7624 58.7843 28.2073 57.3957 33.5526C55.992 38.9329 59.0425 44.6142 64.2812 46.2213C65.4167 46.5698 66.6474 46.645 67.843 46.7453C68.6501 46.813 69.3996 46.8481 69.4397 47.8836C69.4848 49.0118 68.6677 49.1196 67.8255 49.1372C64.7023 49.2023 61.9351 48.2045 59.1428 46.0358C58.7367 46.5773 58.3733 47.1991 57.8895 47.6905C56.6663 48.9065 55.1047 48.9767 53.879 47.7833C53.2398 47.1615 52.5656 47.1013 51.766 46.991C48.2719 46.5096 45.2289 47.5501 42.2612 49.3102C38.9676 51.2607 35.5386 52.9807 32.0595 54.8585C32.6736 55.9115 33.2526 56.9069 33.8341 57.8997C35.1551 60.1562 35.1601 60.1562 33.2551 62.0541C32.8115 62.4954 32.3302 62.8991 31.7963 63.3829C32.9894 65.1154 34.1124 66.7601 35.2528 68.3973C35.3821 68.6029 35.5861 68.7503 35.8218 68.8085C38.0777 68.9313 38.96 70.8368 40.1958 72.2107C40.875 72.9628 40.5617 73.9858 39.8524 74.7179C37.9549 76.6584 36.0424 78.5864 34.0873 80.4844C33.1473 81.3995 32.0119 81.3945 31.0619 80.527C30.2904 79.8242 29.5558 79.082 28.8611 78.3031C28.5704 77.9772 28.2069 77.4707 28.2721 77.1197C28.5553 75.5778 27.4901 74.6803 26.7682 73.6097C26.2343 72.8149 25.6603 72.0452 25.1063 71.2605C24.6476 70.6186 24.6376 69.9768 25.3044 69.5055C25.9711 69.0341 26.5827 69.2873 27.0364 69.9066C28.0114 71.2429 28.9714 72.5918 29.9791 73.9883L33.5509 70.1448C31.1371 66.6347 28.6406 62.9843 26.139 59.3489C25.9285 59.043 25.6879 58.7622 25.2693 58.2207L21.2813 61.8084C22.0609 62.9091 22.7727 63.9195 23.4921 64.9223C23.9934 65.6093 24.1889 66.3339 23.3969 66.8905C22.6675 67.3919 22.0759 67.0284 21.6097 66.3614C20.9906 65.4714 20.3439 64.6039 19.5794 63.5634ZM23.437 17.6345C23.9859 21.1796 22.5045 23.9225 20.9906 26.6879C17.9301 32.2789 14.9548 37.9175 11.8993 43.5086C11.4857 44.2607 11.5158 44.702 12.15 45.3137C15.7226 48.8238 19.2636 52.3664 22.7727 55.9416C23.3868 56.5659 23.828 56.606 24.5775 56.1923C30.8438 52.7876 37.1102 49.423 43.3766 46.0408C45.2465 45.0379 47.2016 44.4161 49.3497 44.5064C49.6434 44.5023 49.9366 44.478 50.227 44.4337L23.437 17.6345ZM21.2813 58.2884L9.94673 46.8155L5.22689 51.3786L16.7144 62.879L21.2813 58.2884ZM49.663 29.3731C50.9363 27.5128 50.8887 26.9261 49.3522 25.3867C47.0863 23.1152 44.8178 20.8462 42.5469 18.5797C41.1332 17.1732 40.291 17.1606 38.742 18.4644L49.663 29.3731ZM4.47493 54.4975L2.59502 56.0169L12.0823 65.5942L13.7241 63.7866L4.47493 54.4975ZM36.1853 71.4134L30.721 76.8515L32.5533 78.3934L37.817 73.1434L36.1853 71.4134ZM27.5427 57.2554L30.5506 61.5903C31.0118 61.0387 31.3903 60.6902 31.6284 60.264C31.7938 59.9732 31.9241 59.4918 31.7938 59.2361C31.2298 58.1379 30.5631 57.0924 29.9064 55.9767C29.1093 56.418 28.3874 56.7941 27.5502 57.2554H27.5427Z" fill="black"/>
<path d="M53.8765 18.4342H52.8187C50.252 18.4142 50.1969 18.3565 50.1969 15.724C50.1969 11.4618 50.1969 7.19956 50.1969 2.93736C50.1969 1.1698 50.4851 0.88147 52.2021 0.88147H78.5209C80.1476 0.88147 80.4334 1.15726 80.4334 2.74431C80.4334 7.38258 80.4334 12.0209 80.4334 16.6591C80.4334 18.1033 80.11 18.4292 78.6788 18.4317C73.3323 18.4317 67.9834 18.4141 62.6369 18.4618C61.9911 18.4866 61.3655 18.6935 60.8322 19.0585C59.248 20.1391 57.7616 21.3676 56.1725 22.4407C55.7188 22.7466 54.9543 22.9421 54.4981 22.7741C54.1497 22.6387 53.9442 21.839 53.889 21.315C53.8063 20.3998 53.8765 19.4822 53.8765 18.4342ZM78.0471 16.1226V3.25828H52.731V15.9872C53.8063 16.1075 55.0796 15.8844 55.6812 16.4184C56.2828 16.9525 56.2301 18.2462 56.4858 19.2942C57.511 18.542 58.5487 17.8375 59.4937 17.0377C60.3434 16.3207 61.2483 16.0775 62.3536 16.09C66.7326 16.1426 71.114 16.1126 75.4955 16.1126L78.0471 16.1226Z" fill="black"/>
<path d="M62.6269 36.0973C62.6269 34.3423 62.6118 32.5873 62.6269 30.8323C62.6419 29.5135 63.429 29.0221 64.602 29.6664C67.8488 31.4515 71.0764 33.2676 74.2848 35.1145C75.3275 35.7137 75.31 36.7667 74.2572 37.371C71.0439 39.2096 67.8137 41.0222 64.5669 42.809C63.3939 43.4509 62.6394 42.9469 62.6269 41.593C62.6269 39.7678 62.6269 37.9326 62.6269 36.0973ZM71.4574 36.2377L64.978 32.5948V39.8907L71.4574 36.2377Z" fill="black"/>
<path d="M23.437 17.6244L50.2194 44.4286C49.929 44.4729 49.6359 44.4972 49.3422 44.5013C47.194 44.4111 45.2389 45.0228 43.3691 46.0357C37.1027 49.4254 30.8213 52.7825 24.5699 56.1873C23.818 56.5959 23.3793 56.5558 22.7652 55.9366C19.256 52.3613 15.7151 48.8187 12.1425 45.3086C11.5183 44.6969 11.4883 44.2581 11.8918 43.5035C14.9473 37.9125 17.9226 32.2738 20.9831 26.6828C22.5045 23.9124 23.9859 21.1695 23.437 17.6244Z" fill="white"/>
<path d="M21.2813 58.2782L16.7219 62.8789L5.2269 51.3785L9.93921 46.8154L21.2813 58.2782Z" fill="white"/>
<path d="M49.663 29.3731L38.742 18.4644C40.286 17.1606 41.1332 17.1732 42.5469 18.5797C44.8212 20.8445 47.0863 23.1135 49.3422 25.3867C50.8887 26.9261 50.9363 27.5128 49.663 29.3731Z" fill="white"/>
<path d="M4.47493 54.4974L13.7241 63.7865L12.0823 65.5942L2.59502 56.0168L4.47493 54.4974Z" fill="white"/>
<path d="M36.1928 71.4133L37.8145 73.1383L32.5508 78.3883L30.721 76.8514L36.1928 71.4133Z" fill="white"/>
<path d="M27.5502 57.2554C28.3874 56.8041 29.1093 56.418 29.9189 55.9792C30.5756 57.0924 31.2424 58.1379 31.8063 59.2386C31.9367 59.4893 31.8063 59.9757 31.6409 60.2665C31.4028 60.6927 31.0243 61.0412 30.5631 61.5928L27.5502 57.2554Z" fill="white"/>
<path d="M78.0472 16.1101H75.488C71.1065 16.1101 66.7151 16.1402 62.3461 16.0875C61.2408 16.075 60.3409 16.3182 59.4862 17.0352C58.5387 17.8375 57.501 18.5395 56.4783 19.2917C56.2277 18.2437 56.2803 16.955 55.6737 16.416C55.0671 15.8769 53.7988 16.1051 52.7235 15.9847V3.2583H78.0396L78.0472 16.1101ZM65.3841 5.89836H56.9947C56.1324 5.89836 55.3428 6.04879 55.3554 7.13439C55.3554 8.15983 56.1449 8.28769 56.9445 8.28769C62.5274 8.28769 68.1104 8.28769 73.6933 8.28769C74.558 8.28769 75.3952 8.10718 75.3551 7.06169C75.315 6.0162 74.4904 5.88833 73.6206 5.89084C70.8709 5.91591 68.1212 5.89836 65.3841 5.89836ZM62.1256 13.3722H67.3893C68.2591 13.3722 69.0361 13.1917 69.0035 12.1011C68.9735 11.0556 68.1689 10.9854 67.3843 10.9854C63.9169 10.9854 60.4512 10.9854 56.9871 10.9854C56.1901 10.9854 55.398 11.0832 55.3704 12.1136C55.3403 13.1993 56.1224 13.3672 56.9921 13.3672L62.1256 13.3722Z" fill="white"/>
<path d="M71.465 36.2352L64.9855 39.8882V32.5923L71.465 36.2352Z" fill="white"/>
<path d="M65.3841 5.89832C68.1413 5.89832 70.8835 5.89832 73.6331 5.89832C74.5029 5.89832 75.3301 6.05376 75.3677 7.06917C75.4053 8.08458 74.5706 8.29517 73.7058 8.29517C68.1246 8.29517 62.5417 8.29517 56.9571 8.29517C56.1575 8.29517 55.3779 8.16731 55.3679 7.14187C55.3554 6.05627 56.1449 5.90584 57.0072 5.90584L65.3841 5.89832Z" fill="black"/>
<path d="M62.1256 13.3823H56.9771C56.1073 13.3823 55.3253 13.2068 55.3554 12.1287C55.3829 11.0983 56.175 11.003 56.9721 11.0005C60.4361 11.0005 63.9019 11.0005 67.3693 11.0005C68.1538 11.0005 68.9584 11.0707 68.9885 12.1162C69.0211 13.2068 68.2365 13.3848 67.3743 13.3873L62.1256 13.3823Z" fill="black"/>
</g>
<defs>
<clipPath id="clip0_7_185">
<rect width="80.2672" height="80.2672" fill="white" transform="translate(0.183716 0.866455)"/>
</clipPath>
</defs>
</svg>
