<?xml version="1.0" encoding="utf-8"?>
<!-- Generator: Adobe Illustrator 26.0.3, SVG Export Plug-In . SVG Version: 6.00 Build 0)  -->
<svg version="1.1" id="Robot" xmlns="http://www.w3.org/2000/svg" xmlns:xlink="http://www.w3.org/1999/xlink" x="0px" y="0px"
	 viewBox="0 0 595.3 841.9" style="enable-background:new 0 0 595.3 841.9;" xml:space="preserve">
<style type="text/css">
	.st0{fill:#DEE9F6;}
	.st1{fill:#2F4456;}
	.st2{fill:#517FC0;}
	.st3{fill:none;}
	.st4{font-family:'MS-PGothic';}
	.st5{font-size:62px;}
</style>
<g id="robot_00000158722617899735504670000016966094694899119271_">
	<path class="st0" d="M412.4,428.5c-2-0.9-3.6-2.5-4.4-4.5c-3.9-12-13.6-14-24.3-15.5c-1.5-0.2-3.1,0.7-4.5,0.4
		c-4.4,0.6-8.5,0.4-12.9,1c-0.1,0.4-0.1,0.8-0.2,1.2c6.2,3.3,17.8,2.6,16.6,11.8c-1.1,8.1-11,11.5-19.4,11.8
		c-38.6,1.7-77.6,9.4-115.1-6.7c-6.6-2.8-8.3,2.1-8.1,6.2c1.7,47-9.5,95.5,16,139.8c3.5,6.7,5.9,13.9,7.3,21.3l4.8,6.4l-0.3-0.3
		c1.7,2.5,3.4,5,5.1,7.5l0.2,0.3c2.3,1.4,4.5,2.9,6.6,4.6c25.4,23.2,52.5,22.4,74.1-4.4c13.1-16.2,24.9-33.5,39.4-48.6
		c8.9-9.3,10.9-21.8,11.5-34.6c0.5-12.3-2-24.9,2.8-36.9c1.7-12.6,13.1-15.3,21.7-20.7C433.7,451.1,431.4,436.5,412.4,428.5z
		 M325.2,517.1c-40.2-1.2-37.2,5.5-37.1-37.4c0.1-19.7,1.2-20.8,21.2-21l1.6,0c31-0.3,31-0.3,31,30.6c-0.2,3.8-0.2,7.5,0,11.3
		C343.5,513.5,337.6,517.4,325.2,517.1z M385.9,548.7L385.9,548.7c7.4-41,2.8-82.1,3.6-124.1C400,439.9,397.5,534.3,385.9,548.7z"/>
	<path class="st0" d="M444.1,301.3c-1.2-9.3-6.9-14-16.6-14.3c-11.4-0.4-7.6,8.2-8.2,13.8c-3.5,36.8-29.8,61.9-66.4,62.5
		c-26.6,0.4-53.3-1.4-79.8,0.4c-31.9,2.2-63.8-33.3-66.1-60.3c-0.5-5.3,5.5-15.2-4.9-15.6c-9-0.4-18.7,2.6-18.5,15.5
		c0,1.6-2.3,3.2-3.5,4.8c2.3,6.5,5,12.9,6.9,19.5c11.7,40.8,37.8,62.4,80.2,62.3c19.5-0.1,38.8,1.3,58.1,3.1c1.6,0,3.1,0,4.7,0
		c-0.3-0.3-0.6-0.7-0.9-0.9c0.9-0.4,2-1.1,2.7-1.1c0.7,0,1.3,1,2,1.7c-0.2,0.1-0.4,0.2-0.6,0.4c0.5,0,0.9,0,1.4,0c2.5,0,5,0,7.5-0.1
		c5.8-0.4,11.6-0.9,17.4-1.1c4.3-2.4,9.3-1.3,13.8-2c10.2-1.2,20-4.3,29.1-9c24.3-13.4,36.2-34.7,42.4-60.3
		C444.8,314.2,444.7,307.7,444.1,301.3z"/>
	<path class="st1" d="M444.7,320.7c0.2-6.5,0-13-0.6-19.4c-1.2-9.3-6.9-14-16.6-14.3c-11.5-0.3-7.6,8.3-8.2,13.8
		c-3.5,36.7-29.8,62-66.4,62.5c-26.6,0.4-53.3-1.4-79.8,0.4c-31.9,2.3-63.7-33.3-66.1-60.3c-0.5-5.3,5.5-15.2-4.9-15.6
		c-9-0.4-18.7,2.6-18.5,15.5c0,1.6-2.3,3.2-3.5,4.8l-2.8-3.3c1.6-14.5,2.6-28.9-0.8-43.3l7.3-4.3c0.3,3.8,0.3,7.6,0,11.4
		c-1.9,11.8,4.2,14.1,14.1,12.7c8.3-1.1,11-5.8,12.1-14c5.2-38.2,31-60.2,69.9-60.5c21.1-0.1,42.3,0,63.4-0.1
		c45.1,0,68.1,18.6,75.9,62.9c1.4,8.2,5.5,10.6,12.7,11.5c7.8,1,10.5-1.7,10.8-9.6c0.2-4.5,3.5-8.8,5.4-13.2
		c1.6-3.1-0.7-3.6-2.9-4.3l-0.2-0.2c5.4-0.9,5.9,3.8,7.7,6.9c-3.7,15-3,30-0.6,45C451.1,311.8,453.2,318.9,444.7,320.7z
		 M314.6,327.7c14.4-0.9,29.1-1.6,38.6-15.3c5.8-8.5,6.4-15.7-6.9-15.8c-21.6-0.2-43.1,0-64.7,0.2c-10.6,0.1-11.5,5.4-6.7,13.7
		C284.1,325.6,299.2,326.5,314.6,327.7z M261.3,238.1c-12.4-0.4-24.1,10.1-24.1,21.7c0,9.7,13.2,23.9,22.7,24.3
		c9.5,0.4,22.3-12.7,22.7-23.8c0.1-5.8-2.1-11.3-6.1-15.4C272.5,240.7,267,238.3,261.3,238.1z M393,258.7
		c0.2-11.7-9.5-21.1-21.9-21.2c-12.4-0.1-23,9.2-23.5,20C347,269,358,280.6,369.8,281c6,0.1,11.8-2.2,16.1-6.4
		C390.2,270.5,392.7,264.7,393,258.7L393,258.7z"/>
	<path class="st0" d="M447.9,258.4c-1.9,4.4-5.2,8.7-5.4,13.2c-0.3,7.9-3,10.6-10.8,9.6c-7.2-1-11.2-3.4-12.7-11.5
		c-7.7-44.3-30.7-63-75.9-62.9c-21.1,0-42.3,0-63.4,0.1c-38.9,0.3-64.7,22.3-69.9,60.5c-1.1,8.1-3.8,12.9-12.1,14
		c-9.9,1.3-16.1-0.9-14.1-12.7c0.3-3.8,0.3-7.6,0-11.4c1.9-33.6,12.5-62.3,44.5-79.2c12.4-6.5,25.5-8.6,39.2-8.6
		c28.7,0,57.4-0.2,86.1-0.2c56.9-0.1,87.4,28.4,91.3,84.8c0,0,0.2,0.2,0.2,0.2C444.4,256.7,445.1,258.2,447.9,258.4z M313.8,195.7
		c4.9-1.9,13,0.2,12.3-9.1c0-1.5-0.3-3-0.9-4.4s-1.4-2.6-2.5-3.7c-1.1-1.1-2.3-1.9-3.7-2.4s-2.9-0.8-4.4-0.8
		c-7.3-0.1-12.1,4.6-12.1,12.2C302.6,194.7,307.9,195.8,313.8,195.7z"/>
	<path class="st0" d="M195.3,515.4c3.3,3.2,5.8,7.1,7.6,11.3c1.8,4.2,2.7,8.8,2.7,13.3c0.6,26,2.3,51.9,2.9,77.9
		c0.3,18.4-4.4,22.4-23.2,22.7c-5.4,0-10.8,0.3-16.3,0c-11.1-0.4-17.4-6.3-17-17.4c0.9-29.8,2.5-59.5,3.4-89.2
		c0.4-12.5,10.6-14.9,18.6-19.7l-0.1,0.2l4.2-1.9C183.9,513,188.8,518.9,195.3,515.4z"/>
	<path class="st0" d="M455.8,514.5c13.5,3.6,18.4,12.6,18.7,26.2c0.5,26,2.3,51.9,2.9,77.8c0.4,17.6-4.2,21.6-22.2,22
		c-4.9,0-9.8-0.4-14.6-0.1c-13.1,0.6-19.6-6.5-19.4-18.5c0.3-28.6,1.5-57.4,2.5-85.9c0-4.4,1.3-8.6,3.8-12.3
		c2.4-3.6,5.9-6.5,9.9-8.2l7.5,0.5c4,1.3,8,3.1,11.1-1.5L455.8,514.5z"/>
	<path class="st1" d="M366,411.2c6.2,3.3,17.8,2.6,16.6,11.8c-1.1,8.1-11,11.5-19.4,11.8c-38.6,1.7-77.6,9.5-115.1-6.7
		c-6.6-2.8-8.3,2.1-8.1,6.2c1.7,47-9.5,95.5,16,139.8c3.5,6.7,5.9,13.9,7.3,21.3c-9.2-10.8-18.4-21.6-27.6-32.3
		c3.1-0.6,5-2.6,4.1-5.7c-10.6-35.5-5.6-71.9-6.3-107.8c-0.5-28.6,1.9-30.6,30.6-37.9c20.7,0.2,41.5,1,62.2,0.3
		C339.9,409.5,354,411.8,366,411.2z"/>
	<path class="st0" d="M264.1,411.7c-28.7,7.3-31.1,9.2-30.6,37.9c0.7,36-4.4,72.4,6.3,107.8c0.9,3-1,5-4.1,5.7
		c-10.8-18.8-12.6-39-11.4-60.2c0.4-7.2,3.7-16.3-5.9-21.2c-5.5-3.8-11-7.6-16.6-11.5c-6.9-24.9-6-27.3,15.7-40.7
		c9.7-6,13.4-20,27.8-20.1C251.8,409.4,258.2,407.3,264.1,411.7z"/>
	<path class="st1" d="M201.8,470.3c5.5,3.9,11,7.7,16.6,11.5c-13.3,7.4-18.1,20.5-22.9,33.7c-6.5,3.4-11.5-2.5-17.3-2.9
		C179.6,494.9,194.6,484.8,201.8,470.3z"/>
	<path class="st1" d="M444.8,516l-7.5-0.5c-4.2-6.7-8.8-13.3-12.6-20.3c-4.2-7.6-9.9-8.8-17.3-5.7c1.7-12.8,13.1-15.4,21.7-20.7
		c6.3,16.8,19.5,29.6,26.8,45.9c-4.2-6.4-8.2-13-17.5-11.8c-0.4-4.2-1.7-7.8-6.9-8.6l6.9,8.4C440.7,507.1,442.7,511.6,444.8,516z"/>
	<path class="st0" d="M452,306.1c-2.4-15.1-3.2-30.1,0.6-45C465.6,274.3,465.3,294.9,452,306.1z"/>
	<path class="st0" d="M176.5,261.7c3.4,14.4,2.3,28.8,0.8,43.3C163,297.9,162.5,274.6,176.5,261.7z"/>
	<path class="st1" d="M385.9,548.7c7.4-40.9,2.8-82,3.6-124.1C400.1,439.8,397.6,534.2,385.9,548.7z"/>
	<path class="st2" d="M314.6,327.7c-15.4-1.3-30.5-2.3-39.6-17.2c-4.9-8.2-4-13.5,6.7-13.7c21.6-0.3,43.1-0.5,64.7-0.2
		c13.3,0.1,12.7,7.4,6.9,15.8C343.7,326.2,328.9,326.9,314.6,327.7z"/>
	<path class="st2" d="M261.3,238.1c5.8,0.1,11.2,2.5,15.2,6.7c4,4.1,6.2,9.7,6.1,15.4c-0.4,11.2-12.9,24.2-22.7,23.8
		c-9.8-0.4-22.7-14.5-22.7-24.3C237.1,248.2,248.8,237.7,261.3,238.1z"/>
	<path class="st2" d="M392.9,259.2c-0.1,6-2.6,11.7-7,15.9c-4.3,4.2-10.2,6.5-16.2,6.4c-11.8-0.4-22.8-12.1-22.3-23.5
		c0.5-10.9,11.5-20.1,23.5-20C383,238.1,393.1,247.5,392.9,259.2z"/>
	<path class="st2" d="M447.9,258.6c-2.8-0.2-3.5-1.8-2.9-4.3C447.3,254.9,449.6,255.4,447.9,258.6z"/>
	<path class="st2" d="M444.8,516c-2.1-4.5-4.2-8.9-6.3-13.4l-0.2,0.1c9.2-1.2,13.4,5.3,17.5,11.8C452.7,519.2,448.7,517.3,444.8,516
		z"/>
	<path class="st2" d="M437.8,502.6l-6.9-8.4c5.2,0.8,6.4,4.4,6.9,8.6L437.8,502.6z"/>
	<rect x="289.9" y="390.4" class="st1" width="53.6" height="24.4"/>
	<rect x="295.6" y="467.6" class="st3" width="42.4" height="45.7"/>
	<text transform="matrix(1 0 0 1 295.5646 509.7101)" class="st1 st4 st5">S</text>
	<circle class="st1" cx="315.1" cy="185.5" r="12.8"/>
</g>
<g>
	<g>
		<path class="st1" d="M430.4,495.6c1.5,1,3,2,4.3,3.2c1.3,1.2,2.4,2.5,3.4,3.9c2.2,3.1,4.1,6.4,5.6,9.8c0.6,1.2,2.3,1.5,3.4,0.9
			c1.3-0.7,1.5-2.2,0.9-3.4c-1.6-3.6-3.6-7.1-6-10.3c-1.2-1.6-2.4-3.2-3.9-4.5c-1.6-1.5-3.4-2.7-5.2-3.9c-1.1-0.8-2.8-0.2-3.4,0.9
			C428.7,493.4,429.2,494.8,430.4,495.6L430.4,495.6z"/>
	</g>
</g>
<g>
	<g>
		<path class="st1" d="M432,500c1.9,1.9,4.2,3.3,6.3,4.9c0.4,0.3-0.3-0.2,0,0c0.1,0.1,0.2,0.2,0.3,0.3c0.2,0.2,0.5,0.4,0.7,0.6
			c0.1,0.1,0.2,0.2,0.3,0.3c0.1,0.1,0.1,0.1,0.2,0.2c0.1,0.1,0.1,0.1-0.1-0.2c0.1,0.1,0.3,0.5,0.4,0.7c0.6,1.2,1,2.3,1.9,3.3
			c0.9,0.9,2.6,1,3.5,0c0.9-1,1-2.6,0-3.5c-0.1-0.1-0.1-0.1-0.2-0.2c-0.1-0.1-0.1-0.1,0.2,0.2c0-0.1-0.2-0.2-0.2-0.3
			c-0.1-0.2-0.3-0.5-0.4-0.7c-0.2-0.5-0.4-1-0.7-1.5c-0.8-1.4-2-2.3-3.2-3.2c-1-0.8-2-1.4-3-2.2c-0.3-0.2-0.5-0.4-0.8-0.6
			c-0.3-0.2-0.2-0.2,0,0c-0.1-0.1-0.3-0.2-0.4-0.3c-0.5-0.4-1-0.8-1.4-1.3c-0.9-0.9-2.6-1-3.5,0C431.1,497.4,431,499,432,500
			L432,500z"/>
	</g>
</g>
<g>
	<g>
		<path class="st1" d="M442.6,505.5c0.1,0.1,0.3,0.2,0.4,0.3c0.4,0.3-0.5-0.4-0.1-0.1c0.2,0.2,0.5,0.4,0.7,0.6
			c0.4,0.4,0.8,0.8,1.2,1.2c0.1,0.1,0.3,0.5-0.1-0.1c0.1,0.1,0.2,0.2,0.3,0.4c0.2,0.2,0.3,0.5,0.5,0.7c0.3,0.5,0.6,1.1,0.8,1.6
			c-0.1-0.2-0.2-0.4-0.3-0.6c0.2,0.4,0.4,0.8,0.4,1.3c0-0.2-0.1-0.4-0.1-0.7c0,0,0,0.1,0,0.1c0-0.2,0.1-0.4,0.1-0.7
			c0,0.1,0,0.2-0.1,0.2c0.1-0.2,0.2-0.4,0.3-0.6c0.1-0.1,0.2-0.2,0.3-0.3c0.4-0.3,0.5-0.3,0.3-0.2c-0.1,0-0.2,0.1-0.3,0.1
			c0.2-0.1,0.4-0.2,0.6-0.3c-0.7,0.3-1.5,0.5-2.3,0.6c0.2,0,0.4-0.1,0.7-0.1c-1.6,0.2-3.2,0.1-4.8,0c0.2,1.6,0.4,3.3,0.7,4.9
			c0.1,0,0.3-0.1,0.4-0.1c0.6-0.2,1.2-0.6,1.5-1.1c0.3-0.5,0.4-1.3,0.3-1.9c-0.4-1.2-1.8-2.2-3.1-1.7c-0.1,0-0.3,0.1-0.4,0.1
			c-1.2,0.4-2,1.5-1.8,2.7c0.2,1.3,1.2,2.1,2.5,2.2c1.3,0.1,2.6,0.1,3.9,0c1.5-0.1,3.3-0.3,4.6-1.1c1.3-0.7,1.9-2.1,1.6-3.6
			c-0.1-0.7-0.5-1.4-0.8-2.1c-0.6-1.2-1.3-2.3-2.1-3.3c-0.9-1.1-2-2.1-3.2-2.9c-0.5-0.4-1.3-0.4-1.9-0.3c-0.6,0.2-1.2,0.6-1.5,1.1
			C441.1,503.4,441.5,504.7,442.6,505.5L442.6,505.5z"/>
	</g>
</g>
<g>
	<g>
		<path class="st1" d="M450.3,511.4c-1,0.1-2.1,0.1-3.1,0c0.2,0,0.4,0.1,0.7,0.1c-0.6-0.1-1.1-0.2-1.7-0.5c0.2,0.1,0.4,0.2,0.6,0.3
			c-0.4-0.2-0.8-0.4-1.2-0.6c-0.4,1.6-0.8,3.1-1.3,4.7c0.8,0.1,1.7,0.2,2.5,0.2c1.2,0,2.1-0.5,3-1.1c0.9-0.6,1.9-1.1,2.5-2.1
			c0.4-0.7,0.5-1.6,0.3-2.4c-0.1-0.5-0.4-0.9-0.6-1.3c0.1,0.2,0.2,0.4,0.3,0.6c0-0.1,0-0.1-0.1-0.2c0,0.2,0.1,0.4,0.1,0.7
			c0,0,0,0,0-0.1c-1.3,0.7-2.5,1.4-3.8,2.2c0.1,0,0.2,0.1,0.3,0.1c0.6,0.3,1.3,0.5,1.9,0.3c0.5-0.2,1-0.5,1.3-0.9
			c0.7-0.9,0.8-2.5-0.2-3.3c-0.5-0.4-0.9-0.8-1.4-1.1c-1.6-0.9-3.8,0.2-3.8,2.2c0,0.8,0.3,1.5,0.9,2c0.3,0.3,0.6,0.4,0.9,0.7
			c-0.2-0.1-0.3-0.3-0.5-0.4c0.1,0.1,0.2,0.2,0.3,0.3c-0.1-0.2-0.3-0.3-0.4-0.5c0.2,0.2,0.3,0.4,0.4,0.6c-0.1-0.2-0.2-0.4-0.3-0.6
			c0.1,0.3,0.2,0.6,0.2,0.9c0-0.2-0.1-0.4-0.1-0.7c0,0.3,0,0.5,0,0.8c0-0.2,0.1-0.4,0.1-0.7c0,0.2-0.1,0.5-0.2,0.7
			c0.1-0.2,0.2-0.4,0.3-0.6c-0.1,0.2-0.2,0.3-0.3,0.5c0.1-0.2,0.3-0.3,0.4-0.5c-0.1,0.2-0.3,0.3-0.4,0.4c0.2-0.1,0.3-0.3,0.5-0.4
			c-0.1,0.1-0.3,0.2-0.5,0.3c0.2-0.1,0.4-0.2,0.6-0.3c-0.2,0.1-0.4,0.1-0.6,0.2c0.2,0,0.4-0.1,0.7-0.1c-0.1,0-0.3,0-0.4,0
			c-0.6-0.1-1.4,0.3-1.8,0.7c-0.4,0.4-0.8,1.1-0.7,1.8c0,0.6,0.2,1.3,0.7,1.8c0.5,0.5,1.1,0.7,1.8,0.7c0.3,0,0.5,0,0.8,0
			c0.2,0,0.5-0.1,0.7-0.1c0.7-0.2,1.2-0.5,1.8-1c0.8-0.6,1.3-1.6,1.5-2.6c0.2-1.2,0.1-2.3-0.4-3.4c-0.2-0.6-0.5-1-1-1.5
			c-0.3-0.4-0.8-0.6-1.2-0.9c0.2,0.1,0.3,0.3,0.5,0.4c0,0,0,0-0.1-0.1c0.1,0.2,0.3,0.3,0.4,0.5c0,0,0,0,0-0.1
			c0.1,0.2,0.2,0.4,0.3,0.6c0,0,0,0,0-0.1c0,0.2,0.1,0.4,0.1,0.7c0,0,0,0,0-0.1c-1.3,0.7-2.5,1.4-3.8,2.2c0.2,0.1,0.5,0.3,0.7,0.5
			c-0.2-0.1-0.3-0.3-0.5-0.4c0.1,0.1,0.2,0.1,0.2,0.2c1-1.3,2-2.6,3-3.9c-0.1,0-0.2-0.1-0.3-0.1c-0.4-0.2-0.8-0.3-1.3-0.3
			c-0.5,0-0.9,0.1-1.3,0.3c-0.7,0.4-1.3,1.3-1.2,2.2c0.1,0.7,0.2,1,0.5,1.7c0.1,0.2,0.2,0.3,0.3,0.5c-0.1-0.2-0.2-0.4-0.3-0.6
			c0,0.1,0,0.1,0.1,0.2c0-0.2-0.1-0.4-0.1-0.7c0,0.1,0,0.1,0,0.2c0-0.2,0.1-0.4,0.1-0.7c0,0,0,0,0,0.1c0.1-0.2,0.2-0.4,0.3-0.6
			c0,0.1,0,0.1-0.1,0.1c0.1-0.2,0.3-0.3,0.4-0.5c0,0-0.1,0.1-0.1,0.1c0.2-0.1,0.3-0.3,0.5-0.4c-0.4,0.3-0.8,0.6-1.2,0.8
			c-0.4,0.3-0.8,0.6-1.2,0.8c0.2-0.1,0.4-0.2,0.6-0.3c-0.1,0.1-0.3,0.1-0.4,0.1c0.2,0,0.4-0.1,0.7-0.1c-0.5,0-0.9,0-1.4-0.1
			c-0.5,0-1-0.1-1.4-0.1c-0.2,0-0.4,0.1-0.7,0.1c-0.3,0.1-0.6,0.2-0.9,0.4c-0.4,0.3-0.8,0.8-0.9,1.3c-0.3,1.1,0.2,2.2,1.1,2.8
			c1.1,0.6,2.2,1.2,3.5,1.3c1.3,0.2,2.5,0.2,3.8,0.1c0.7,0,1.3-0.2,1.8-0.7c0.4-0.4,0.8-1.1,0.7-1.8c0-0.6-0.2-1.3-0.7-1.8
			C451.6,511.7,451,511.3,450.3,511.4L450.3,511.4z"/>
	</g>
</g>
</svg>
