<svg id="Layer_1" data-name="Layer 1" xmlns="http://www.w3.org/2000/svg" viewBox="0 0 520.36 135.92"><defs><style>.cls-1{fill:#020202;}.cls-2{fill:#030303;}.cls-3{fill:#f6f6f6;}.cls-4{fill:#bfbfbf;}.cls-5{fill:#fefefe;}.cls-6{fill:#f9e600;}.cls-7{fill:#ffa300;}.cls-8{fill:#fff;stroke:#000;stroke-miterlimit:10;stroke-width:0.75px;}</style></defs><g id="Servare_Icon" data-name="Servare Icon"><path d="M822,331.75c0,5.29,0,10.58,0,15.86,0,3.6-1.71,5.3-5.3,5.3H784.74c-2.59,0-3.07-.49-3.08-3.15,0-2.95,0-5.9,0-8.86,0-.72.39-1.73-.26-2.12s-1.27.56-1.86.94a8.44,8.44,0,1,1,.31-13.69c.47.33.84,1.15,1.51.79s.29-1.12.3-1.7c0-3.23,0-6.45,0-9.68,0-2.27.55-2.82,2.78-2.83,3.44,0,6.87,0,10.3,0,2,0,3.76.5,4.61,2.41a4.73,4.73,0,0,1-.88,5.33,4.38,4.38,0,0,0,.15,6.29,4.67,4.67,0,0,0,6,.37,4.51,4.51,0,0,0,.49-6.73A4.82,4.82,0,0,1,804,315.7a4.25,4.25,0,0,1,4.36-3.08c3.71-.05,7.42,0,11.13,0,1.84,0,2.56.89,2.55,2.68C822,320.76,822,326.25,822,331.75Z" transform="translate(-301.63 -219.42)"/><path d="M711.33,221h16.06c2.49,0,3,.5,3,3,0,3.09,0,6.18,0,9.27,0,.63-.4,1.5.36,1.87s1-.5,1.53-.83a8.21,8.21,0,0,1,9.29-.42,8.39,8.39,0,0,1-1.72,15.21,8.21,8.21,0,0,1-7.77-1.33c-.41-.31-.75-1-1.34-.74s-.35,1.09-.35,1.66c0,3.29,0,6.59,0,9.88,0,1.92-.82,2.75-2.73,2.72q-5.25-.07-10.5,0c-2,0-3.75-.61-4.54-2.53a4.56,4.56,0,0,1,.91-5.15,4.53,4.53,0,0,0-3.8-7.62,4.54,4.54,0,0,0-2.89,7.57,4.43,4.43,0,0,1,.94,5.27c-1,2-2.72,2.49-4.79,2.46-3.43-.05-6.87,0-10.3,0-1.8,0-2.64-.75-2.63-2.59,0-11,0-22,0-33,0-3,1.87-4.75,5-4.77C700.48,221,705.9,221,711.33,221Z" transform="translate(-301.63 -219.42)"/><path d="M822,242.28c0,5.22,0,10.44,0,15.66,0,3-.38,3.36-3.27,3.37-3.09,0-6.18,0-9.27,0-.56,0-1.34-.36-1.65.39s.44.94.74,1.37a8.55,8.55,0,0,1,.19,10,8.43,8.43,0,0,1-13.77-9.74c.36-.54,1.3-1,.94-1.67s-1.37-.32-2.07-.33c-3-.05-6,0-9.06,0-2.62,0-3.08-.48-3.09-3.16,0-3.22.05-6.45,0-9.68,0-2.07.38-3.92,2.39-4.83a4.81,4.81,0,0,1,5.5,1,4.32,4.32,0,0,0,5.67.19,4.79,4.79,0,0,0,1.51-5.37,4.72,4.72,0,0,0-4.8-2.8,5.29,5.29,0,0,0-2.88,1.45,4.25,4.25,0,0,1-4.78.72,4.17,4.17,0,0,1-2.58-4.09c0-3.77,0-7.55,0-11.33a2.1,2.1,0,0,1,2.42-2.37h14.84c1.32,0,2.4.4,2.42,1.88s-1.13,1.95-2.54,1.93c-3.84,0-7.69,0-11.53,0-1.36,0-1.8.35-1.73,1.72.12,2.26,0,4.54.05,6.8,0,.64-.38,1.5.37,1.87s1-.49,1.52-.82a8.44,8.44,0,1,1,9.76,13.76,8.67,8.67,0,0,1-9.66,0c-.53-.36-.94-1.32-1.65-.94s-.32,1.37-.34,2.08c-.05,2.13.07,4.26-.05,6.39-.07,1.39.26,1.93,1.77,1.84,2.47-.13,4.94,0,7.41,0,2,0,3.78.45,4.63,2.41a4.78,4.78,0,0,1-.86,5.34,4.44,4.44,0,0,0,.26,6.44,4.53,4.53,0,0,0,6.16,0,4.48,4.48,0,0,0,.25-6.45c-1.28-1.57-1.8-3.18-1-5.11s2.65-2.61,4.7-2.62c2.61,0,5.22-.06,7.83,0,1.2,0,1.48-.39,1.48-1.53q-.06-14.62,0-29.26c0-1.49-.58-1.89-2-1.85-2.47.08-4.94,0-7.41,0-1.29,0-2.19-.46-2.21-1.85s.87-1.94,2.14-1.95c3,0,5.91-.08,8.86,0,2.71.1,4.33,2,4.35,5C822,231.43,822,236.86,822,242.28Z" transform="translate(-301.63 -219.42)"/><path d="M690.07,331.66c0-5.36,0-10.72,0-16.08,0-2.49.5-3,3-3,3.09,0,6.19,0,9.28,0,.63,0,1.5.41,1.86-.37s-.51-1-.84-1.53a8.56,8.56,0,0,1-.09-9.83,8.43,8.43,0,1,1,13.78,9.73c-.36.53-1.29,1-.94,1.67s1.37.32,2.07.33c3,.05,6,0,9.07,0,2.61,0,3.07.48,3.08,3.16,0,3.3,0,6.6,0,9.89,0,2-.49,3.76-2.41,4.63a4.71,4.71,0,0,1-5.33-.86,4.39,4.39,0,0,0-5.83-.29,4.83,4.83,0,0,0-1.5,5.38,4.74,4.74,0,0,0,4.83,2.77,4.87,4.87,0,0,0,2.72-1.33,4.45,4.45,0,0,1,7.5,3.49c0,3.57,0,7.15,0,10.72,0,1.88-.72,2.78-2.68,2.76-6.39,0-12.77,0-19.16,0-1.41,0-2.5-.36-2.45-2s1.18-1.77,2.46-1.77c5.36,0,10.71,0,16.07,0,1.39,0,2-.28,1.87-1.79-.12-2.4,0-4.81,0-7.21,0-.47.19-1.07-.25-1.35-.62-.41-1,.27-1.38.57-5,3.59-11.6,1.5-13.3-4.21a8.37,8.37,0,0,1,3.17-9.27,8.62,8.62,0,0,1,9.83,0c.51.35.91,1.33,1.65.86s.27-1.27.28-1.93c0-2.13-.12-4.27,0-6.38.14-1.73-.55-2-2.07-2-2.33.12-4.67,0-7,0-2,0-3.92-.44-4.78-2.49a4.8,4.8,0,0,1,1-5.33,4.36,4.36,0,0,0,.18-5.84,4.52,4.52,0,0,0-5.36-1.37,4.63,4.63,0,0,0-2.73,4.85,5.07,5.07,0,0,0,1.37,2.7,4.33,4.33,0,0,1,.84,4.76,4.27,4.27,0,0,1-4.24,2.7q-4,.11-8,0c-1.23,0-1.8.16-1.79,1.65q.1,14.52,0,29.06c0,1.4.41,2,1.88,1.93a30.27,30.27,0,0,1,3.3,0,1.65,1.65,0,0,1,1.74,1.65,1.69,1.69,0,0,1-1.56,2,19.44,19.44,0,0,1-5.75-.11c-2.18-.51-3.36-2.25-3.38-4.79C690.05,342.51,690.07,337.09,690.07,331.66Z" transform="translate(-301.63 -219.42)"/><path class="cls-1" d="M763.62,243.31c-1.57-.07-3.76.5-3.72-2,0-2.26,2.13-1.8,3.66-1.84.55,0,1.1,0,1.64,0,1.37,0,2.34.5,2.29,2,0,1.33-.92,1.88-2.22,1.83C764.72,243.29,764.17,243.31,763.62,243.31Z" transform="translate(-301.63 -219.42)"/><path class="cls-1" d="M712.37,279.67c0,1.28.48,3.46-2,3.4-2.25-.06-1.79-2.15-1.82-3.68a20,20,0,0,1,0-2.05,1.76,1.76,0,0,1,2-1.87,1.74,1.74,0,0,1,1.8,1.84C712.39,278,712.37,278.68,712.37,279.67Z" transform="translate(-301.63 -219.42)"/><path class="cls-1" d="M803.44,294.57a18.94,18.94,0,0,1,0,2.26,1.69,1.69,0,0,1-1.8,1.61,1.71,1.71,0,0,1-1.93-1.69c-.07-1.37,0-2.75,0-4.12a1.88,1.88,0,0,1,3.75-.12,15.72,15.72,0,0,1,0,2.06Z" transform="translate(-301.63 -219.42)"/><path class="cls-1" d="M748.72,330.61c1.29.05,3.48-.48,3.42,2-.06,2.26-2.15,1.79-3.68,1.83a20,20,0,0,1-2.05,0,1.76,1.76,0,0,1-1.87-2,1.73,1.73,0,0,1,1.84-1.8C747.06,330.59,747.75,330.61,748.72,330.61Z" transform="translate(-301.63 -219.42)"/><path class="cls-2" d="M752.34,243.3c-1.4.13-2.59-.25-2.62-1.83s1.23-2,2.68-2,2.59.29,2.61,1.86S753.8,243.44,752.34,243.3Z" transform="translate(-301.63 -219.42)"/><path class="cls-2" d="M775.2,243.29c-1.54.14-2.81-.2-2.81-1.91s1.2-1.9,2.58-1.9,2.74.24,2.72,2C777.68,243,776.55,243.47,775.2,243.29Z" transform="translate(-301.63 -219.42)"/><path class="cls-2" d="M708.57,267.85c-.1-1.43.35-2.59,1.91-2.58s1.93,1.32,1.93,2.76-.36,2.56-1.93,2.55S708.47,269.26,708.57,267.85Z" transform="translate(-301.63 -219.42)"/><path class="cls-2" d="M803.47,283.25c.09,1.46-.26,2.73-2,2.7s-1.87-1.22-1.86-2.61.26-2.72,2-2.69S803.57,281.87,803.47,283.25Z" transform="translate(-301.63 -219.42)"/><path class="cls-2" d="M712.37,290.64c.13,1.41-.27,2.59-1.84,2.62s-2-1.26-2-2.7.3-2.58,1.88-2.6S712.51,289.18,712.37,290.64Z" transform="translate(-301.63 -219.42)"/><path class="cls-2" d="M799.67,306.06c-.13-1.46.2-2.73,1.92-2.73,1.57,0,1.9,1.19,1.9,2.57s-.25,2.74-2,2.73C800,308.62,799.52,307.47,799.67,306.06Z" transform="translate(-301.63 -219.42)"/><path class="cls-2" d="M737,330.61c1.4-.12,2.59.23,2.63,1.82s-1.23,2-2.67,2-2.59-.29-2.62-1.86S735.55,330.47,737,330.61Z" transform="translate(-301.63 -219.42)"/><path class="cls-2" d="M759.54,330.62c1.58-.14,2.82.25,2.78,2s-1.26,1.85-2.62,1.85-2.73-.3-2.67-2S758.25,330.45,759.54,330.62Z" transform="translate(-301.63 -219.42)"/><path class="cls-3" d="M818.18,332.81c0,4.81,0,9.62,0,14.43,0,1.45-.49,1.91-1.92,1.9q-14.52-.06-29,0c-1.44,0-1.72-.47-1.68-1.77.08-2.81.06-5.63,0-8.44,0-1.39.55-3.26-1.09-3.88a6.61,6.61,0,0,0-5.74.37c-.47.28-.84.71-1.3,1a4.55,4.55,0,1,1,.05-7.33c.94.67,1.74,1.49,3,1.58,3.08.21,4.94-1.37,5-4.57.09-2.74.07-5.49,0-8.24,0-1.08.28-1.43,1.38-1.39,2.4.08,4.81,0,7.21,0,.59,0,1.38-.29,1.72.29s-.46,1-.78,1.5a8.21,8.21,0,0,0-.72,8.93,8.38,8.38,0,0,0,15.13-.41,8.27,8.27,0,0,0-1.08-8.73c-.27-.36-.84-.66-.63-1.19s1-.38,1.46-.39c2.34,0,4.68.08,7,0,1.49-.08,2,.28,2,1.9C818.1,323.19,818.18,328,818.18,332.81Z" transform="translate(-301.63 -219.42)"/><path class="cls-3" d="M693.87,241.18c0-4.81,0-9.62,0-14.42,0-1.55.51-2,2-2q14.5.09,29,0c1.3,0,1.63.4,1.59,1.64-.08,2.61,0,5.22,0,7.83,0,2,.59,3.65,2.56,4.53a4.54,4.54,0,0,0,5.11-.92c2.18-1.79,4.72-1.66,6.46.17a4.54,4.54,0,0,1,.09,6.16c-1.75,2-4.3,2.11-6.6.22a4.73,4.73,0,0,0-5.16-.81c-1.87.78-2.45,2.48-2.46,4.39,0,2.68-.05,5.35,0,8,0,1-.23,1.45-1.36,1.41-2.53-.08-5.07,0-7.61,0-.46,0-1.07.19-1.34-.26-.39-.64.34-.94.64-1.34a8.44,8.44,0,1,0-13.69-.72c.26.4.59.76.87,1.15.53.69.43,1.16-.52,1.17-2.88,0-5.77,0-8.65,0-1.26,0-1-.9-1-1.59C693.86,250.92,693.87,246.05,693.87,241.18Z" transform="translate(-301.63 -219.42)"/><path d="M732.26,292.22c0-.12,0-.18-.06-.18-2-.69-2.27-2.21-2.24-4.14.1-6.12,0-12.24,0-18.37a2,2,0,0,1,1.1-2q12.32-7.05,24.59-14.19a2.06,2.06,0,0,1,2.36,0q12.53,7.32,25.09,14.58a1.77,1.77,0,0,1,1,1.73c-.05,2.37-.08,4.75,0,7.12a2.18,2.18,0,0,1-1.43,2.43,5.79,5.79,0,0,0-.87.53c.06.09.08.16.12.17,1.83.66,2.25,1.93,2.21,3.83-.13,6.12-.06,12.25,0,18.37a2.35,2.35,0,0,1-1.33,2.38q-12.06,6.88-24.06,13.89a2.56,2.56,0,0,1-2.93,0q-12.29-7.22-24.64-14.32A2.05,2.05,0,0,1,730,302c.06-2.23.09-4.47,0-6.71a2.34,2.34,0,0,1,1.55-2.67A5.13,5.13,0,0,0,732.26,292.22Z" transform="translate(-301.63 -219.42)"/><path class="cls-4" d="M733.69,268.91l17.23-10c1.78-1,3.57-2,5.34-3.1a1,1,0,0,1,1.11,0Q768.67,262.43,780,269c.09.05.17.11.37.25l-3.34,2-19.09,11a1.2,1.2,0,0,1-1.38.05q-11.19-6.56-22.42-13.06A5,5,0,0,1,733.69,268.91Z" transform="translate(-301.63 -219.42)"/><path class="cls-5" d="M781.64,271.45c0,1.72,0,3.34,0,4.95,0,.66-.42.81-.8,1-4.22,2.44-8.43,4.89-12.67,7.28a2,2,0,0,0-1.25,2.12c.07,1,0,2,0,3,0,1.66.88,2.18,2.31,1.36l11.41-6.58,1-.55v11.67c0,1.93,0,3.86,0,5.79a1.06,1.06,0,0,1-.54,1.1Q770,309,759,315.41c-.09,0-.19.06-.44.15,0-1.79,0-3.51,0-5.24,0-.44.44-.49.71-.65,4.24-2.47,8.48-4.94,12.75-7.35a2,2,0,0,0,1.18-2.05c-.07-1.1,0-2.2,0-3.3,0-1.44-.85-1.92-2.11-1.2q-6,3.45-12,6.93l-.35.21c-.23-.28-.14-.56-.14-.81l-.06-16.42c0-.53,0-.94.58-1.27q11.13-6.37,22.2-12.8Z" transform="translate(-301.63 -219.42)"/><path class="cls-6" d="M756,303l-10-5.82-12.83-7.44c-.39-.23-.71-.41-.71-1,0-5.71,0-11.42,0-17.13a1.43,1.43,0,0,1,.07-.28c.41-.08.66.21.94.37,7.21,4.19,14.42,8.4,21.64,12.57a1.5,1.5,0,0,1,.9,1.52C756,291.45,756,297.12,756,303Z" transform="translate(-301.63 -219.42)"/><path class="cls-6" d="M732.47,296.39l9,5.25c4.57,2.65,9.12,5.33,13.71,7.95A1.38,1.38,0,0,1,756,311c0,1.48,0,2.95,0,4.42a1.08,1.08,0,0,1-.8-.29q-11-6.37-22-12.76a1.32,1.32,0,0,1-.78-1.38C732.51,299.56,732.47,298.08,732.47,296.39Z" transform="translate(-301.63 -219.42)"/><path class="cls-4" d="M733.8,294.3a1.36,1.36,0,0,1,2-.25c6.75,4,13.53,7.87,20.27,11.84a2.12,2.12,0,0,0,2.45,0c2.95-1.77,6-3.42,8.89-5.2a1.41,1.41,0,0,1,2,.26c-3.9,2.25-7.77,4.47-11.62,6.72-.55.32-.9,0-1.31-.2l-20.57-12Z" transform="translate(-301.63 -219.42)"/><path class="cls-4" d="M769.54,288.2a1.45,1.45,0,0,1,.86-1.92q4-2.19,7.92-4.58a1.38,1.38,0,0,1,2,.26Z" transform="translate(-301.63 -219.42)"/><rect class="cls-7" x="759.02" y="236.51" width="9.16" height="9.16" transform="translate(92.5 -688.76) rotate(45)"/><circle class="cls-8" cx="446.79" cy="113.65" r="5.68"/></g><path d="M327.88,293.33a47.79,47.79,0,0,1-9.94-1,37.62,37.62,0,0,1-8.71-3,37.13,37.13,0,0,1-7.6-5L308,276.6a28.63,28.63,0,0,0,9.11,5.38,31.8,31.8,0,0,0,10.81,1.79q7.86,0,12.2-2.94a9.38,9.38,0,0,0,4.33-8.22v-.05a8.56,8.56,0,0,0-2.19-6.32,13.4,13.4,0,0,0-5.75-3.26,60.37,60.37,0,0,0-7.8-1.77q-4.08-.69-8.24-1.64a27,27,0,0,1-7.64-3,14.92,14.92,0,0,1-5.61-5.8q-2.12-3.78-2.11-10.11v-.05q0-10.11,6.72-15.66t19-5.56a35.84,35.84,0,0,1,11.4,1.87A40.51,40.51,0,0,1,353,227l-5.78,8.07a32.26,32.26,0,0,0-8.24-4.58,23.89,23.89,0,0,0-8.24-1.49q-7.42,0-11.53,3a9.74,9.74,0,0,0-4.11,8.39v0a7.92,7.92,0,0,0,2.39,6.23,15,15,0,0,0,6.25,3.16c2.57.68,5.34,1.32,8.29,1.92,2.66.53,5.31,1.17,8,1.91a26.47,26.47,0,0,1,7.25,3.24,15.56,15.56,0,0,1,5.23,5.8,20.45,20.45,0,0,1,2,9.62v.1q0,10-7,15.48T327.88,293.33Z" transform="translate(-301.63 -219.42)"/><path d="M389.09,293.33q-10.81,0-16.74-6t-5.92-17.14v-5.82q0-11.57,5.7-17.88t16.06-6.33q9.76,0,15.12,7.17t5.35,20.13v3.38H373.8v-8.17H399q-.45-6.27-3.26-9.81a9.17,9.17,0,0,0-7.55-3.53q-5.73,0-8.91,3.78c-2.13,2.53-3.19,6.09-3.19,10.71v6.57q0,6.44,3.41,9.86t9.59,3.44a16,16,0,0,0,6.12-1.24,17.66,17.66,0,0,0,5.43-3.49l6.68,6.67a28.22,28.22,0,0,1-8.62,5.71A24.62,24.62,0,0,1,389.09,293.33Z" transform="translate(-301.63 -219.42)"/><path d="M422.61,292.59v-51.7h10.16v51.7ZM451,253.14a8.55,8.55,0,0,0-3.38-2.49,12.36,12.36,0,0,0-4.73-.85q-4.83,0-7.5,2.67a10,10,0,0,0-2.66,7.39l-1-10a18.84,18.84,0,0,1,6.15-7.17,14.66,14.66,0,0,1,8.39-2.59,19,19,0,0,1,6.4,1,14.33,14.33,0,0,1,5,3Z" transform="translate(-301.63 -219.42)"/><path d="M483.92,277.79l12.65-36.9h10.6l-19.42,51.7h-7.67l-19.42-51.7h10.61Z" transform="translate(-301.63 -219.42)"/><path d="M533.67,293.33q-9.51,0-14.27-3.93t-4.75-12q0-7.73,4.35-11.53T532.08,262h14.69l.7,8.16H532.13c-2.63,0-4.6.59-5.93,1.77s-2,3-2,5.41a6.68,6.68,0,0,0,2.64,5.82q2.64,1.9,7.92,1.9,5.78,0,8.66-1.25t2.89-3.88l1,7.27a11.75,11.75,0,0,1-3.34,3.43,14.76,14.76,0,0,1-4.56,2A22.82,22.82,0,0,1,533.67,293.33Zm12.65-.74V259.81q0-5.07-2.71-7.89t-7.7-2.81a20,20,0,0,0-6,.92,17.36,17.36,0,0,0-5.3,2.66l-7.42-5.08a19.39,19.39,0,0,1,7.74-5.5,28,28,0,0,1,10.68-2q9.72,0,15,5t5.33,14.2v33.22Z" transform="translate(-301.63 -219.42)"/><path d="M571.42,292.59v-51.7h10.16v51.7Zm28.44-39.45a8.59,8.59,0,0,0-3.39-2.49,12.32,12.32,0,0,0-4.73-.85q-4.83,0-7.49,2.67a10,10,0,0,0-2.67,7.39l-1-10a18.84,18.84,0,0,1,6.15-7.17,14.64,14.64,0,0,1,8.39-2.59,19,19,0,0,1,6.4,1,14.33,14.33,0,0,1,5,3Z" transform="translate(-301.63 -219.42)"/><path d="M635.12,293.33q-10.8,0-16.73-6t-5.93-17.14v-5.82q0-11.57,5.71-17.88t16.06-6.33q9.75,0,15.11,7.17t5.36,20.13v3.38H619.83v-8.17H645q-.43-6.27-3.26-9.81a9.15,9.15,0,0,0-7.54-3.53,11,11,0,0,0-8.92,3.78c-2.12,2.53-3.19,6.09-3.19,10.71v6.57q0,6.44,3.42,9.86t9.58,3.44a16.06,16.06,0,0,0,6.13-1.24,17.9,17.9,0,0,0,5.43-3.49l6.67,6.67a28.3,28.3,0,0,1-8.61,5.71A24.67,24.67,0,0,1,635.12,293.33Z" transform="translate(-301.63 -219.42)"/><path d="M365.65,324l6.8-18.46h2.21l6.8,18.46h-2.79l-5.11-14.89L368.44,324Zm3.13-4v-2.47h9.71v2.47Z" transform="translate(-301.63 -219.42)"/><path d="M386.59,310.78v8a3,3,0,0,0,.71,2.14,2.59,2.59,0,0,0,2,.76,2.72,2.72,0,0,0,2-.68,2.57,2.57,0,0,0,.69-1.91l.18,2.75a3.88,3.88,0,0,1-1.25,1.59,3.61,3.61,0,0,1-2.32.71,4.18,4.18,0,0,1-3.37-1.4,6,6,0,0,1-1.19-4v-8ZM392,324V310.78h2.58V324Z" transform="translate(-301.63 -219.42)"/><path d="M397.45,313.12v-2.34h5.94v2.34Zm4.44,10.9a2.84,2.84,0,0,1-2.35-.9,4,4,0,0,1-.73-2.59V307h2.59v13.61a1.22,1.22,0,0,0,.19.73.63.63,0,0,0,.56.27h1.24V324Z" transform="translate(-301.63 -219.42)"/><path d="M412,324.15a5.25,5.25,0,0,1-4-1.51,5.94,5.94,0,0,1-1.42-4.23v-2.15a5.85,5.85,0,0,1,1.42-4.19,6.19,6.19,0,0,1,8,0,5.81,5.81,0,0,1,1.42,4.19v2.19a5.86,5.86,0,0,1-1.42,4.21A5.3,5.3,0,0,1,412,324.15Zm0-2.46a2.65,2.65,0,0,0,2.1-.86,3.51,3.51,0,0,0,.74-2.38v-2.19a3.49,3.49,0,0,0-.74-2.37,3,3,0,0,0-4.2,0,3.44,3.44,0,0,0-.75,2.37v2.19a3.47,3.47,0,0,0,.75,2.38A2.65,2.65,0,0,0,412,321.69Z" transform="translate(-301.63 -219.42)"/><path d="M421.11,324V310.78h2.59V324Zm7.87,0v-8a3.16,3.16,0,0,0-.68-2.16,2.52,2.52,0,0,0-1.95-.76,2.7,2.7,0,0,0-2,.68,2.49,2.49,0,0,0-.69,1.89l-.26-2.54a4.57,4.57,0,0,1,1.59-1.84,3.88,3.88,0,0,1,2.18-.65,3.94,3.94,0,0,1,3.22,1.4,6.15,6.15,0,0,1,1.14,4v8Zm7.87,0v-8a3.07,3.07,0,0,0-.71-2.16,2.7,2.7,0,0,0-2-.76,2.4,2.4,0,0,0-1.87.74,3,3,0,0,0-.66,2.08l-.52-2.54a5.2,5.2,0,0,1,1.65-2,3.88,3.88,0,0,1,2.25-.71,4.1,4.1,0,0,1,3.32,1.4,6,6,0,0,1,1.17,4v8Z" transform="translate(-301.63 -219.42)"/><path d="M447.59,324.15a5.65,5.65,0,0,1-3.63-1,3.77,3.77,0,0,1-1.22-3.08,3.68,3.68,0,0,1,1.12-2.94,5,5,0,0,1,3.33-1h3.74l.18,2.08H447.2a2.22,2.22,0,0,0-1.51.46,2,2,0,0,0,.16,2.86,3.5,3.5,0,0,0,2,.48,5.89,5.89,0,0,0,2.21-.32,1,1,0,0,0,.74-1l.27,1.86a3.1,3.1,0,0,1-.86.87,3.73,3.73,0,0,1-1.16.52A6,6,0,0,1,447.59,324.15Zm3.23-.19V315.6a2.79,2.79,0,0,0-.69-2,2.6,2.6,0,0,0-2-.72,5,5,0,0,0-1.53.24,4.45,4.45,0,0,0-1.36.68l-1.89-1.3a5,5,0,0,1,2-1.4,7.16,7.16,0,0,1,2.72-.5,5.37,5.37,0,0,1,3.83,1.28,4.73,4.73,0,0,1,1.36,3.62V324Z" transform="translate(-301.63 -219.42)"/><path d="M456.2,313.12v-2.34h5.94v2.34Zm4.45,10.9a2.87,2.87,0,0,1-2.36-.9,4,4,0,0,1-.73-2.59V307h2.59v13.61a1.22,1.22,0,0,0,.19.73.64.64,0,0,0,.56.27h1.24V324Z" transform="translate(-301.63 -219.42)"/><path d="M471.09,324.15a5.68,5.68,0,0,1-4.26-1.54,6,6,0,0,1-1.51-4.37v-1.48a6.59,6.59,0,0,1,1.45-4.56,5.24,5.24,0,0,1,4.09-1.61,4.54,4.54,0,0,1,3.86,1.83,8.43,8.43,0,0,1,1.36,5.13v.86H467.2v-2.08h6.42a4.45,4.45,0,0,0-.83-2.5,2.34,2.34,0,0,0-1.93-.9,2.81,2.81,0,0,0-2.27,1,4.12,4.12,0,0,0-.81,2.73v1.68a3.4,3.4,0,0,0,.87,2.51,3.3,3.3,0,0,0,2.44.88,4.07,4.07,0,0,0,1.56-.32,4.52,4.52,0,0,0,1.39-.89l1.7,1.7a7,7,0,0,1-2.2,1.45A6.13,6.13,0,0,1,471.09,324.15Z" transform="translate(-301.63 -219.42)"/><path d="M489.46,305.5V324h-2.59V305.5Z" transform="translate(-301.63 -219.42)"/><path d="M493.78,324V310.78h2.59V324Zm8,0v-8a3,3,0,0,0-.72-2.16,3.14,3.14,0,0,0-4-.08,2.49,2.49,0,0,0-.69,1.89l-.27-2.54a4.67,4.67,0,0,1,1.6-1.84,3.87,3.87,0,0,1,2.17-.65,4.1,4.1,0,0,1,3.32,1.4,6,6,0,0,1,1.18,4v8Z" transform="translate(-301.63 -219.42)"/><path d="M507.29,313.12v-2.34h5.94v2.34Zm4.44,10.9a2.84,2.84,0,0,1-2.35-.9,4,4,0,0,1-.73-2.59V307h2.59v13.61a1.22,1.22,0,0,0,.19.73.62.62,0,0,0,.55.27h1.25V324Z" transform="translate(-301.63 -219.42)"/><path d="M522.18,324.15a5.7,5.7,0,0,1-4.27-1.54,6,6,0,0,1-1.51-4.37v-1.48a6.59,6.59,0,0,1,1.46-4.56,5.24,5.24,0,0,1,4.09-1.61,4.52,4.52,0,0,1,3.85,1.83,8.43,8.43,0,0,1,1.37,5.13v.86h-8.89v-2.08h6.43a4.45,4.45,0,0,0-.84-2.5,2.32,2.32,0,0,0-1.92-.9,2.81,2.81,0,0,0-2.27,1,4.12,4.12,0,0,0-.81,2.73v1.68a3.44,3.44,0,0,0,.86,2.51,3.32,3.32,0,0,0,2.45.88,4.15,4.15,0,0,0,1.56-.32,4.36,4.36,0,0,0,1.38-.89l1.71,1.7a7.19,7.19,0,0,1-2.2,1.45A6.13,6.13,0,0,1,522.18,324.15Z" transform="translate(-301.63 -219.42)"/><path d="M534.9,324.19a4.15,4.15,0,0,1-3.37-1.41,5.93,5.93,0,0,1-1.19-3.95v-2.91a6.1,6.1,0,0,1,1.16-4,4,4,0,0,1,3.27-1.4,3.92,3.92,0,0,1,2.14.61,4.56,4.56,0,0,1,1.57,1.71l-.27,2.7a3.19,3.19,0,0,0-.3-1.44,2.09,2.09,0,0,0-.88-.91,3.06,3.06,0,0,0-1.41-.31,2.51,2.51,0,0,0-2,.8,3.3,3.3,0,0,0-.71,2.25v2.87a3.17,3.17,0,0,0,.71,2.21,2.53,2.53,0,0,0,2,.78,2.83,2.83,0,0,0,1.41-.32,2.14,2.14,0,0,0,.88-.93,3.31,3.31,0,0,0,.3-1.46l.18,2.78a4,4,0,0,1-1.22,1.59A3.5,3.5,0,0,1,534.9,324.19Zm.24,5.12a6.14,6.14,0,0,1-2.66-.55,4.27,4.27,0,0,1-1.82-1.55l1.75-1.59a3.54,3.54,0,0,0,1.21,1.08,3.13,3.13,0,0,0,1.48.38,3.08,3.08,0,0,0,2.3-.82,3.15,3.15,0,0,0,.81-2.32V310.78h2.59v12.78a5.79,5.79,0,0,1-1.48,4.25A5.6,5.6,0,0,1,535.14,329.31Z" transform="translate(-301.63 -219.42)"/><path d="M544.74,324V310.78h2.59V324ZM552,313.9a2.13,2.13,0,0,0-.87-.63,3,3,0,0,0-1.2-.22,2.59,2.59,0,0,0-1.91.68,2.56,2.56,0,0,0-.68,1.89l-.27-2.54a4.79,4.79,0,0,1,1.57-1.83,3.73,3.73,0,0,1,2.14-.66,4.93,4.93,0,0,1,1.63.26,3.62,3.62,0,0,1,1.28.77Z" transform="translate(-301.63 -219.42)"/><path d="M560.05,324.15a5.66,5.66,0,0,1-3.64-1,3.77,3.77,0,0,1-1.21-3.08,3.71,3.71,0,0,1,1.11-2.94,5,5,0,0,1,3.33-1h3.75l.18,2.08h-3.91a2.2,2.2,0,0,0-1.51.46,1.74,1.74,0,0,0-.51,1.37,1.7,1.7,0,0,0,.67,1.49,3.48,3.48,0,0,0,2,.48,5.89,5.89,0,0,0,2.21-.32,1,1,0,0,0,.73-1l.27,1.86a3.06,3.06,0,0,1-.85.87,4,4,0,0,1-1.16.52A6.08,6.08,0,0,1,560.05,324.15Zm3.22-.19V315.6a2.79,2.79,0,0,0-.69-2,2.58,2.58,0,0,0-2-.72,5,5,0,0,0-1.53.24,4.51,4.51,0,0,0-1.35.68l-1.89-1.3a5,5,0,0,1,2-1.4,7.24,7.24,0,0,1,2.72-.5,5.41,5.41,0,0,1,3.84,1.28,4.76,4.76,0,0,1,1.36,3.62V324Z" transform="translate(-301.63 -219.42)"/><path d="M568.66,313.12v-2.34h5.94v2.34ZM573.1,324a2.88,2.88,0,0,1-2.36-.9,4.06,4.06,0,0,1-.72-2.59V307h2.58v13.61a1.22,1.22,0,0,0,.2.73.62.62,0,0,0,.55.27h1.25V324Z" transform="translate(-301.63 -219.42)"/><path d="M583.55,324.15a5.7,5.7,0,0,1-4.27-1.54,6,6,0,0,1-1.51-4.37v-1.48a6.59,6.59,0,0,1,1.46-4.56,5.22,5.22,0,0,1,4.09-1.61,4.52,4.52,0,0,1,3.85,1.83,8.43,8.43,0,0,1,1.37,5.13v.86h-8.89v-2.08h6.42a4.37,4.37,0,0,0-.83-2.5,2.32,2.32,0,0,0-1.92-.9,2.81,2.81,0,0,0-2.27,1,4.12,4.12,0,0,0-.82,2.73v1.68a3.4,3.4,0,0,0,.87,2.51,3.32,3.32,0,0,0,2.45.88,4.15,4.15,0,0,0,1.56-.32,4.36,4.36,0,0,0,1.38-.89l1.7,1.7a7,7,0,0,1-2.19,1.45A6.13,6.13,0,0,1,583.55,324.15Z" transform="translate(-301.63 -219.42)"/><path d="M421.51,355.16l6.8-18.46h2.21l6.8,18.46h-2.79l-5.12-14.89-5.11,14.89Zm3.13-4.05v-2.46h9.71v2.46Z" transform="translate(-301.63 -219.42)"/><path d="M445.18,355.35a5.69,5.69,0,0,1-4.21-1.5,5.76,5.76,0,0,1-1.49-4.23v-2.17a5.63,5.63,0,0,1,1.49-4.18,5.72,5.72,0,0,1,4.21-1.48,6.83,6.83,0,0,1,2.8.55,4.8,4.8,0,0,1,2,1.56l-1.87,1.67a3.86,3.86,0,0,0-2.87-1.32,3.1,3.1,0,0,0-2.32.84,3.23,3.23,0,0,0-.83,2.36v2.17a3.31,3.31,0,0,0,.83,2.41,3.07,3.07,0,0,0,2.32.86,3.55,3.55,0,0,0,1.57-.37,4,4,0,0,0,1.3-1l1.87,1.8a4.86,4.86,0,0,1-2,1.53A6.94,6.94,0,0,1,445.18,355.35Z" transform="translate(-301.63 -219.42)"/><path d="M458.13,355.35a5.69,5.69,0,0,1-4.21-1.5,5.76,5.76,0,0,1-1.49-4.23v-2.17a5.63,5.63,0,0,1,1.49-4.18,5.72,5.72,0,0,1,4.21-1.48,6.75,6.75,0,0,1,2.79.55,4.67,4.67,0,0,1,2,1.56L461,345.57a3.86,3.86,0,0,0-2.87-1.32,3.1,3.1,0,0,0-2.32.84,3.23,3.23,0,0,0-.83,2.36v2.17a3.31,3.31,0,0,0,.83,2.41,3.07,3.07,0,0,0,2.32.86,3.58,3.58,0,0,0,1.57-.37,4.07,4.07,0,0,0,1.3-1l1.86,1.8a4.77,4.77,0,0,1-2,1.53A7,7,0,0,1,458.13,355.35Z" transform="translate(-301.63 -219.42)"/><path d="M471.16,355.35a5.7,5.7,0,0,1-4.27-1.54,6,6,0,0,1-1.51-4.37V348a6.59,6.59,0,0,1,1.45-4.56,5.26,5.26,0,0,1,4.1-1.61,4.52,4.52,0,0,1,3.85,1.83,8.43,8.43,0,0,1,1.37,5.13v.86h-8.89v-2.08h6.42a4.37,4.37,0,0,0-.83-2.5,2.33,2.33,0,0,0-1.92-.9,2.8,2.8,0,0,0-2.27,1,4.07,4.07,0,0,0-.82,2.73v1.68a3.4,3.4,0,0,0,.87,2.51,3.32,3.32,0,0,0,2.45.88,4.15,4.15,0,0,0,1.56-.32,4.48,4.48,0,0,0,1.38-.89l1.7,1.7a7,7,0,0,1-2.19,1.45A6.17,6.17,0,0,1,471.16,355.35Z" transform="translate(-301.63 -219.42)"/><path d="M482.29,336.7v15.06a1.15,1.15,0,0,0,.21.73.71.71,0,0,0,.59.27h1.22v2.46h-1.52a2.9,2.9,0,0,1-2.28-.91,3.76,3.76,0,0,1-.81-2.58v-15Z" transform="translate(-301.63 -219.42)"/><path d="M492.62,355.35a5.69,5.69,0,0,1-4.26-1.54,6,6,0,0,1-1.51-4.37V348a6.59,6.59,0,0,1,1.45-4.56,5.26,5.26,0,0,1,4.1-1.61,4.52,4.52,0,0,1,3.85,1.83,8.43,8.43,0,0,1,1.36,5.13v.86h-8.88v-2.08h6.42a4.45,4.45,0,0,0-.83-2.5,2.33,2.33,0,0,0-1.92-.9,2.83,2.83,0,0,0-2.28,1,4.12,4.12,0,0,0-.81,2.73v1.68a3.4,3.4,0,0,0,.87,2.51,3.3,3.3,0,0,0,2.44.88,4.16,4.16,0,0,0,1.57-.32,4.6,4.6,0,0,0,1.38-.89l1.7,1.7a7,7,0,0,1-2.2,1.45A6.1,6.1,0,0,1,492.62,355.35Z" transform="translate(-301.63 -219.42)"/><path d="M501.17,355.16V342h2.59v13.18Zm7.25-10.06a2.13,2.13,0,0,0-.87-.63,3,3,0,0,0-1.2-.22,2.59,2.59,0,0,0-1.91.68,2.52,2.52,0,0,0-.68,1.89l-.27-2.54a4.79,4.79,0,0,1,1.57-1.83,3.73,3.73,0,0,1,2.14-.66,4.93,4.93,0,0,1,1.63.26,3.62,3.62,0,0,1,1.28.77Z" transform="translate(-301.63 -219.42)"/><path d="M516.48,355.35a5.66,5.66,0,0,1-3.64-1,3.77,3.77,0,0,1-1.21-3.08,3.71,3.71,0,0,1,1.11-2.94,5,5,0,0,1,3.33-1h3.75l.18,2.08h-3.91a2.24,2.24,0,0,0-1.52.46,1.77,1.77,0,0,0-.5,1.37,1.7,1.7,0,0,0,.67,1.49,3.48,3.48,0,0,0,2,.48,5.89,5.89,0,0,0,2.21-.32,1,1,0,0,0,.73-1l.27,1.86a3.06,3.06,0,0,1-.85.87,4,4,0,0,1-1.16.52A6.08,6.08,0,0,1,516.48,355.35Zm3.22-.19V346.8a2.79,2.79,0,0,0-.69-2,2.58,2.58,0,0,0-2-.72,5,5,0,0,0-1.53.24,4.51,4.51,0,0,0-1.35.68l-1.89-1.3a5,5,0,0,1,2-1.4,7.24,7.24,0,0,1,2.72-.5,5.41,5.41,0,0,1,3.84,1.28,4.76,4.76,0,0,1,1.36,3.62v8.47Z" transform="translate(-301.63 -219.42)"/><path d="M525.09,344.32V342H531v2.34Zm4.44,10.9a2.88,2.88,0,0,1-2.36-.9,4.06,4.06,0,0,1-.73-2.59V338.15H529v13.61a1.22,1.22,0,0,0,.2.73.62.62,0,0,0,.55.27H531v2.46Z" transform="translate(-301.63 -219.42)"/><path d="M540,355.35a5.7,5.7,0,0,1-4.27-1.54,6,6,0,0,1-1.51-4.37V348a6.64,6.64,0,0,1,1.45-4.56,5.26,5.26,0,0,1,4.1-1.61,4.52,4.52,0,0,1,3.85,1.83,8.43,8.43,0,0,1,1.37,5.13v.86h-8.89v-2.08h6.42a4.37,4.37,0,0,0-.83-2.5,2.33,2.33,0,0,0-1.92-.9,2.81,2.81,0,0,0-2.27,1,4.12,4.12,0,0,0-.82,2.73v1.68a3.4,3.4,0,0,0,.87,2.51,3.32,3.32,0,0,0,2.45.88,4.15,4.15,0,0,0,1.56-.32,4.36,4.36,0,0,0,1.38-.89l1.7,1.7a7,7,0,0,1-2.19,1.45A6.13,6.13,0,0,1,540,355.35Z" transform="translate(-301.63 -219.42)"/></svg>