<svg width="80" height="80" viewBox="0 0 80 80" fill="none" xmlns="http://www.w3.org/2000/svg">
<g clip-path="url(#clip0_7_216)">
<path d="M40.0195 79.9625L24.5366 80.0025C24.1597 80.0008 23.7873 79.9208 23.4429 79.7675C23.0986 79.6142 22.7898 79.3911 22.5362 79.1121C15.3282 71.9023 8.1177 64.6925 0.904679 57.4827C0.605178 57.1915 0.370087 56.8407 0.2146 56.453C0.0591132 56.0652 -0.0133107 55.6492 0.00200925 55.2317C0.0120111 45.0739 0.0120111 34.9161 0.00200925 24.7583C-0.00458574 24.3217 0.0811 23.8885 0.25346 23.4872C0.42582 23.086 0.680969 22.7256 1.0022 22.4298C8.15854 15.2834 15.3099 8.1319 22.4562 0.975437C23.0388 0.392682 23.6864 -0.00248929 24.5366 1.18042e-05L40.0195 0.0400302C40.3471 0.355168 40.3946 0.772852 40.3971 1.19054C40.4246 4.13432 40.4346 7.08061 40.3971 10.0244C40.3949 10.2738 40.3492 10.521 40.2621 10.7547C40.2007 10.9007 40.1035 11.0289 39.9795 11.1274C39.3219 11.4825 38.6042 11.3775 37.9041 11.3775C37.154 11.4 36.4038 11.3475 35.6537 11.4125C33.7433 11.5801 32.7507 12.6505 32.6531 14.5689C32.5106 17.4001 32.7982 20.2214 32.9807 23.0326C33.1507 25.6437 33.2032 28.2624 33.3183 30.8685C33.5333 35.6806 33.9184 40.4852 33.8984 45.3073C33.9267 46.0544 33.9976 46.7993 34.1109 47.5383C34.2134 48.4337 34.646 48.999 35.5412 49.1815C36.4213 49.5192 37.3415 49.3341 38.2442 49.3866C38.8518 49.4216 39.4944 49.2716 40.0495 49.6567C40.4196 50.1069 40.3921 50.6572 40.3921 51.1799C40.3921 52.8606 40.4146 54.5414 40.4121 56.2171C40.3956 56.3564 40.331 56.4855 40.2295 56.5823C39.5144 56.9349 38.7043 56.9399 37.9591 57.22C36.8025 57.6575 35.8101 58.4431 35.1186 59.4685C34.4272 60.4939 34.0707 61.7085 34.0984 62.945C34.1359 65.2836 35.7237 67.447 37.9741 68.2574C38.6743 68.5075 39.4544 68.525 40.097 68.9602C40.1864 69.0782 40.2541 69.2112 40.2971 69.3529C40.5471 72.5417 40.3796 75.7306 40.3871 78.9195C40.4032 79.1095 40.3787 79.3007 40.3154 79.4805C40.252 79.6603 40.1511 79.8246 40.0195 79.9625Z" fill="#ED6855"/>
<path d="M40.2696 56.4673C39.757 55.4519 40.072 54.3689 40.0195 53.3185C39.9645 52.1279 40.0195 50.9349 40.0195 49.7419C40.4146 49.3417 40.9297 49.3867 41.4223 49.3692C42.1724 49.3442 42.9226 49.3867 43.6727 49.3442C45.343 49.2467 46.0431 48.6139 46.0857 46.9582C46.1482 44.6722 46.2482 42.3887 46.3357 40.1052C46.6233 33.1296 46.8758 26.1541 47.3359 19.186C47.4284 17.565 47.4284 15.94 47.3359 14.3189C47.2459 12.5431 46.1707 11.5252 44.3728 11.4226C43.4177 11.3676 42.4575 11.4226 41.5023 11.3926C40.9747 11.3751 40.3996 11.4601 40.0145 10.9474V0.0501545C45.1822 0.0368153 50.3448 0.021803 55.5024 0.005129C55.879 0.00466484 56.2514 0.0829728 56.5959 0.235019C56.9404 0.387066 57.2493 0.60949 57.5028 0.888015C64.7091 8.10117 71.9197 15.3118 79.1343 22.52C79.4311 22.8122 79.6628 23.1637 79.8145 23.5516C79.9661 23.9394 80.0343 24.355 80.0145 24.771C80.0028 34.9254 80.007 45.0882 80.027 55.2593C80.0388 55.694 79.9585 56.1262 79.7913 56.5275C79.6241 56.9289 79.3738 57.2902 79.0568 57.5878C71.8888 64.731 64.7366 71.8824 57.6003 79.0422C57.0177 79.6275 56.3826 80.0201 55.5249 80.0151C50.3573 79.9951 45.1947 79.981 40.037 79.9726C40.037 76.3394 40.0328 72.7053 40.0245 69.0703C40.3521 68.5826 40.9097 68.6902 41.3723 68.5701C44.0253 67.8673 45.8156 65.7064 45.9331 63.0302C46.0556 60.279 44.5279 58.1231 41.8424 57.1726C41.3023 56.9726 40.6771 56.9651 40.2696 56.4673Z" fill="#E94932"/>
<path d="M40.0195 10.9474C41.5198 10.9674 43.0201 10.9674 44.5054 11.0074C46.4182 11.0599 47.786 12.433 47.771 14.3539C47.7285 20.0889 47.3384 25.8114 47.0608 31.5364C46.9383 34.11 46.8658 36.6887 46.7683 39.2623C46.6658 41.961 46.5732 44.6596 46.4457 47.3558C46.3657 49.0065 45.6681 49.6643 44.0153 49.6993C42.685 49.7294 41.3548 49.7294 40.0145 49.7419C38.5142 49.5218 36.9864 49.8769 35.4887 49.5493C36.0063 48.969 36.7114 49.1091 37.359 49.0966C39.5869 49.0466 39.5894 49.0591 39.5894 46.7831C39.5894 35.6332 39.5894 24.4833 39.5894 13.3334C39.5894 12.5631 39.3969 11.7352 40.007 11.0674L40.0195 10.9474Z" fill="#FFEECE"/>
<path d="M40.0195 11.0674C40.0195 23.3903 39.9995 35.7132 40.0195 48.0361C40.0195 49.1366 39.797 49.6243 38.5918 49.5092C37.5641 49.4142 36.5164 49.5292 35.4787 49.5493C34.2959 49.5493 33.7483 48.8915 33.6933 47.7585C33.4883 43.5266 33.2733 39.2948 33.0882 35.0629C32.7957 28.38 32.5031 21.6971 32.2556 15.0116C32.1555 12.303 33.4583 11.0099 36.1463 11.0099C37.454 11.0199 38.7418 11.0499 40.0195 11.0674Z" fill="white"/>
<path d="M40.2696 56.4673C43.8952 56.86 46.2957 59.4336 46.2582 62.8951C46.2232 66.2691 43.7577 68.7076 40.007 69.0628L40.0195 68.9428C39.5719 68.5226 39.6069 67.9623 39.6044 67.4296C39.5844 64.3132 39.5844 61.1969 39.6044 58.0805C39.6044 57.5478 39.5669 56.9875 39.9995 56.5573L40.2696 56.4673Z" fill="#FFEECE"/>
<path d="M40.0195 56.5575C40.0195 60.686 40.0262 64.8144 40.0395 68.9429C36.6489 69.0605 33.7883 66.2342 33.7883 62.7752C33.7883 59.3162 36.6114 56.51 40.0195 56.5575Z" fill="white"/>
</g>
<defs>
<clipPath id="clip0_7_216">
<rect width="80" height="80" fill="white"/>
</clipPath>
</defs>
</svg>
