<svg width="64" height="61" viewBox="0 0 64 61" fill="none" xmlns="http://www.w3.org/2000/svg">
<g clip-path="url(#clip0_7_173)">
<path d="M36.0338 52.9128C36.0218 54.8119 36.0138 56.7131 35.9978 58.6183C35.9837 60.4522 35.0212 61.2673 33.2341 60.929C24.3462 59.2377 15.4596 57.5397 6.57428 55.8348C5.00735 55.5373 3.43442 55.2643 1.86949 54.9464C0.570718 54.6835 0.00438156 53.9663 0.00238037 52.599C0.00238037 37.8666 0.00238037 23.1355 0.00238037 8.40576C0.00238037 7.03644 0.566714 6.31714 1.87749 6.06447C7.59289 4.96616 13.3143 3.89026 19.0317 2.80418C23.7998 1.89538 28.5687 0.983176 33.3382 0.0675779C34.9872 -0.246225 35.9777 0.583111 35.9978 2.30903C36.0198 4.24278 36.0218 6.18062 36.0338 8.1103C36.2512 8.41159 36.3537 8.78313 36.3219 9.15563C36.3219 11.5092 36.37 13.8627 36.2999 16.2162C36.34 17.5835 36.346 18.9508 36.2999 20.318C36.3413 21.6765 36.3413 23.035 36.2999 24.3934C36.3413 25.7519 36.3413 27.1103 36.2999 28.4688C36.3413 29.8272 36.3413 31.1857 36.2999 32.5441C36.3413 33.9026 36.3413 35.261 36.2999 36.6195C36.3413 37.9779 36.3413 39.3364 36.2999 40.6949C36.346 42.0642 36.344 43.4315 36.2999 44.8008C36.368 47.1584 36.3239 49.516 36.3219 51.8756C36.3511 52.2453 36.2489 52.6134 36.0338 52.9128Z" fill="#307E34"/>
<path d="M36.0334 52.9125C36.0254 50.2038 36.0181 47.495 36.0114 44.7862C36.3516 44.4256 36.7979 44.4622 37.2261 44.4582C38.5589 44.448 39.8897 44.4582 41.2285 44.4582C41.5945 44.4749 41.9611 44.4434 42.3191 44.3644C43.1376 44.1464 43.6739 43.4638 43.6499 42.6813C43.6309 42.3055 43.4899 41.9467 43.2491 41.6613C43.0082 41.3759 42.6811 41.1799 42.3191 41.1041C41.6327 40.933 40.9183 41.0145 40.2299 41.0084C39.2293 40.9962 38.2287 41.0084 37.2281 41.0084C36.7999 41.0084 36.3536 41.041 36.0134 40.6824V36.6396C36.3536 36.2789 36.7999 36.3156 37.2281 36.3115C38.5609 36.2993 39.8917 36.3115 41.2305 36.3115C41.5965 36.3283 41.9631 36.2968 42.3211 36.2178C43.1396 35.9998 43.6759 35.3171 43.6519 34.5347C43.6327 34.1587 43.4916 33.7998 43.2509 33.5141C43.0101 33.2284 42.6831 33.032 42.3211 32.9555C41.6347 32.7863 40.9203 32.8678 40.2319 32.8597C39.2313 32.8495 38.2307 32.8597 37.2301 32.8597C36.8019 32.8597 36.3556 32.8923 36.0154 32.5316V28.4929C36.3556 28.1323 36.8019 28.169 37.2301 28.1649C38.5629 28.1527 39.8937 28.1649 41.2325 28.1649C41.5985 28.1816 41.9651 28.1501 42.3231 28.0711C43.1416 27.8531 43.6779 27.1705 43.6539 26.388C43.6347 26.0121 43.4936 25.6532 43.2529 25.3675C43.0121 25.0818 42.6852 24.8853 42.3231 24.8088C41.6367 24.6397 40.9223 24.7212 40.2339 24.713C39.2333 24.713 38.2327 24.713 37.2321 24.713C36.8039 24.713 36.3576 24.7457 36.0174 24.385V20.3463C36.3576 19.9856 36.8039 20.0223 37.2321 20.0182C38.5649 20.006 39.8957 20.0182 41.2345 20.0182C41.6005 20.035 41.9671 20.0035 42.3251 19.9245C43.1436 19.7065 43.6799 19.0238 43.6559 18.2414C43.637 17.8653 43.4961 17.5063 43.2553 17.2205C43.0144 16.9347 42.6873 16.7383 42.3251 16.6622C41.6387 16.493 40.9243 16.5746 40.2359 16.5664C39.2353 16.5562 38.2347 16.5664 37.2341 16.5664C36.8059 16.5664 36.3596 16.599 36.0194 16.2383L36.0414 8.11206H61.4165C63.3276 8.11206 64.004 8.79672 64.004 10.7264C64.004 23.9211 64.004 37.1144 64.004 50.3063C64.004 52.236 63.3276 52.9207 61.4165 52.9207L36.0334 52.9125Z" fill="#ECEFF1"/>
<path d="M18.503 26.8179L23.8181 19.8633C23.9402 19.7023 24.0623 19.5413 24.1864 19.3824C25.1149 18.2005 26.2276 17.956 27.2062 18.7242C28.1847 19.4924 28.2508 20.6824 27.3562 21.8622C25.7086 24.0358 24.055 26.2052 22.3953 28.3706C21.1726 29.9681 21.1746 29.962 22.4874 31.4801C24.0723 33.3126 25.6519 35.1506 27.2262 36.994C28.2268 38.1698 28.2388 39.3842 27.2702 40.2095C26.3376 41.0042 25.207 40.8106 24.2204 39.6695C22.5274 37.7093 20.8184 35.7572 19.1614 33.7603C18.7611 33.2753 18.561 33.3323 18.2228 33.7949C16.7299 35.7898 15.209 37.7643 13.6941 39.7429C13.1638 40.4337 12.4934 40.8167 11.6049 40.617C11.2237 40.5496 10.8715 40.3664 10.5943 40.0915C10.3172 39.8166 10.1282 39.4628 10.052 39.0766C9.87387 38.3145 10.1881 37.693 10.6363 37.1102C12.2753 34.9706 13.8923 32.8148 15.5552 30.6956C15.9275 30.2228 15.9074 29.9559 15.5152 29.5117C13.8862 27.6778 12.3133 25.7909 10.7004 23.9325C10.1901 23.3436 9.86386 22.6997 10.066 21.8948C10.1426 21.527 10.3214 21.1893 10.5811 20.922C10.8408 20.6547 11.1705 20.469 11.5308 20.387C12.3613 20.1832 13.0397 20.4807 13.5861 21.1103C14.9729 22.7119 16.3517 24.3258 17.7345 25.9315C17.9727 26.2188 18.2148 26.4918 18.503 26.8179Z" fill="#FBFBFB"/>
<path d="M36.0114 16.2261C37.8705 16.2261 39.7316 16.2383 41.5927 16.2505C43.0936 16.2607 44.0261 17.0758 43.9941 18.3391C43.9621 19.5618 43.0616 20.3116 41.5927 20.3218C39.7316 20.334 37.8705 20.3381 36.0114 20.3463V16.2261Z" fill="#398E3D"/>
<path d="M36.0114 24.3727C37.8705 24.3727 39.7316 24.3849 41.5927 24.3971C43.0936 24.4073 44.0261 25.2224 43.9941 26.4858C43.9621 27.7084 43.0616 28.4603 41.5927 28.4684C39.7316 28.4806 37.8705 28.4847 36.0114 28.4929V24.3727Z" fill="#398E3D"/>
<path d="M36.0114 32.5193C37.8705 32.5193 39.7316 32.5315 41.5927 32.5437C43.0936 32.5437 44.0261 33.3588 43.9941 34.6324C43.9621 35.855 43.0616 36.6069 41.5927 36.615C39.7316 36.6273 37.8705 36.6313 36.0114 36.6395V32.5193Z" fill="#398E3D"/>
<path d="M36.0114 40.668C37.8705 40.668 39.7316 40.668 41.5927 40.6904C43.0936 40.7006 44.0261 41.5156 43.9941 42.779C43.9621 44.0016 43.0616 44.7535 41.5927 44.7617C39.7316 44.7739 37.8705 44.778 36.0114 44.7861V40.668Z" fill="#398E3D"/>
<path d="M51.9949 20.3218C51.3305 20.3218 50.6641 20.3483 49.9937 20.3218C48.833 20.2627 48.0245 19.4395 47.9925 18.3412C47.9645 17.2082 48.793 16.3035 49.9937 16.2709C51.3205 16.2281 52.6513 16.2261 53.978 16.2709C55.1788 16.3117 56.0072 17.2205 55.9792 18.3514C55.9492 19.4476 55.1367 20.2648 53.978 20.3218C53.3237 20.3463 52.6593 20.3218 51.9949 20.3218Z" fill="#398E3D"/>
<path d="M52.123 24.3971C52.7533 24.3971 53.3877 24.3666 54.0161 24.3971C55.1748 24.4664 55.9772 25.2998 55.9913 26.3981C56.0073 27.5311 55.1728 28.4134 53.968 28.4481C52.6733 28.4868 51.3765 28.4807 50.0817 28.4481C48.859 28.4195 48.0225 27.5841 48.0065 26.4491C47.9905 25.2795 48.853 24.4318 50.1298 24.389C50.7942 24.3666 51.4586 24.389 52.131 24.389L52.123 24.3971Z" fill="#398E3D"/>
<path d="M51.9969 36.6233C51.3325 36.6233 50.6661 36.6518 49.9957 36.6233C48.835 36.5642 48.0265 35.743 47.9945 34.6447C47.9665 33.5138 48.795 32.607 49.9957 32.5724C51.3225 32.5296 52.6533 32.5296 53.98 32.5724C55.1808 32.6131 56.0093 33.5199 55.9812 34.6508C55.9512 35.7512 55.1427 36.5662 53.98 36.6233C53.3257 36.6396 52.6613 36.6233 51.9969 36.6233Z" fill="#398E3D"/>
<path d="M51.9769 44.7577C51.3125 44.7577 50.6461 44.7882 49.9757 44.7577C48.821 44.6945 48.0145 43.8591 47.9985 42.7607C47.9918 42.4978 48.0365 42.2361 48.13 41.9909C48.2234 41.7457 48.3638 41.5218 48.5429 41.3323C48.722 41.1427 48.9362 40.9912 49.1733 40.8867C49.4103 40.7821 49.6653 40.7265 49.9236 40.7231C51.3245 40.668 52.7133 40.666 54.1061 40.7231C54.6115 40.74 55.0904 40.9572 55.441 41.3282C55.7916 41.6992 55.9861 42.1949 55.9832 42.7098C55.9913 43.239 55.7937 43.7501 55.4336 44.1317C55.0734 44.5133 54.5797 44.7346 54.0601 44.7475C53.3737 44.7923 52.6733 44.7556 51.9769 44.7577Z" fill="#398E3D"/>
</g>
<defs>
<clipPath id="clip0_7_173">
<rect width="64" height="61" fill="white"/>
</clipPath>
</defs>
</svg>
