<svg width="79" height="79" viewBox="0 0 79 79" fill="none" xmlns="http://www.w3.org/2000/svg">
<g clip-path="url(#clip0_7_145)">
<path d="M33.2773 78.4594C17.378 76.06 4.34549 63.8754 0.982423 47.9164C-1.93866 34.0384 1.67133 21.8637 11.5037 11.681C17.5015 5.47271 24.9165 1.80696 33.4797 0.471495C53.6804 -2.66846 72.9304 10.1728 77.8589 30.1036C83.0665 51.1675 69.9303 72.7818 48.8333 77.8521C47.8012 78.099 46.7419 78.2545 45.6974 78.4545C45.2184 78.0052 45.2678 77.4078 45.2678 76.8376C45.2579 68.7359 45.2579 60.6342 45.2678 52.5325C45.2678 50.7256 45.5492 50.4615 47.3419 50.4417C49.3173 50.417 51.2926 50.4269 53.268 50.4417C54.1594 50.4417 54.6137 50.0863 54.7495 49.1828C55.157 46.4995 55.4903 43.8063 55.9841 41.1379C56.1595 40.1875 55.7372 39.8765 54.8532 39.8765C52.347 39.8765 49.8383 39.8913 47.3296 39.8765C45.5097 39.8592 45.2776 39.6296 45.2628 37.7955C45.248 35.9614 45.2307 34.0927 45.2628 32.2438C45.3418 28.109 47.4851 25.8553 51.6062 25.5541C52.7964 25.4677 53.9915 25.5023 55.1841 25.527C56.1446 25.5467 56.6261 25.2209 56.6113 24.1816C56.5792 22.0044 56.6113 19.8247 56.6113 17.645C56.6113 16.9365 56.3891 16.4403 55.6236 16.3564C51.5322 15.917 47.416 15.4134 43.3689 16.4749C38.5787 17.7314 35.6477 20.9528 34.3538 25.6998C33.7513 27.9066 33.6921 30.1628 33.7217 32.4314C33.7464 34.3643 33.7612 36.2971 33.7217 38.23C33.6847 39.5284 33.3884 39.832 32.0945 39.8616C29.7907 39.916 27.487 39.8616 25.1807 39.8863C23.7387 39.8987 23.6325 39.9974 23.6226 41.4292C23.6078 43.9767 23.6399 46.5266 23.6226 49.0816C23.6103 50.0887 24.0078 50.4738 25.0079 50.459C27.2664 50.4294 29.5273 50.4294 31.7908 50.459C33.4303 50.4812 33.7341 50.77 33.7365 52.4338C33.7563 60.6178 33.7563 68.8017 33.7365 76.9857C33.7044 77.4991 33.7217 78.0496 33.2773 78.4594Z" fill="#396EB5"/>
<path d="M33.2776 78.4594C33.2924 69.5382 33.3113 60.617 33.3344 51.6957C33.3344 50.9552 33.043 50.8268 32.3936 50.8342C29.7219 50.8614 27.0502 50.8194 24.3785 50.8614C23.5736 50.8737 23.2156 50.7281 23.2328 49.8049C23.2896 46.6822 23.2773 43.5546 23.2328 40.4245C23.2328 39.6568 23.4674 39.4494 24.2205 39.4593C26.8922 39.4988 29.5664 39.442 32.2356 39.4938C33.0801 39.5111 33.3615 39.3087 33.3443 38.42C33.2875 35.5023 33.2233 32.5771 33.3443 29.6642C33.5517 24.8062 35.1394 20.5801 39.3938 17.761C41.6359 16.2799 44.1495 15.5739 46.8212 15.4653C49.9417 15.361 53.0651 15.5428 56.1524 16.0084C56.8438 16.1071 57.0364 16.354 57.029 17.0155C57.0018 19.6865 56.9944 22.3599 57.029 25.0308C57.029 25.7541 56.782 25.9145 56.1104 25.9195C54.3474 25.9195 52.5745 25.759 50.8189 26.033C47.5274 26.5514 45.8607 28.2843 45.6903 31.602C45.5693 33.9816 45.6903 36.3712 45.636 38.7607C45.6212 39.5407 46.0632 39.484 46.5768 39.484C49.5398 39.484 52.5029 39.5259 55.4659 39.4543C56.4734 39.4297 56.6462 39.7777 56.5005 40.6565C55.9869 43.7669 55.4882 46.8821 55.0314 50.0023C54.9301 50.6985 54.6314 50.8614 53.9869 50.854C51.5177 50.8243 49.0485 50.854 46.5792 50.8318C45.9298 50.8318 45.636 50.9428 45.6385 51.6933C45.6747 60.6145 45.6936 69.5357 45.6953 78.4569C42.5001 78.9926 39.2951 79.1975 36.0653 78.7705C35.1419 78.6544 34.2085 78.5631 33.2776 78.4594Z" fill="white"/>
</g>
<defs>
<clipPath id="clip0_7_145">
<rect width="79" height="79" fill="white"/>
</clipPath>
</defs>
</svg>
