<svg width="101" height="71" viewBox="0 0 101 71" fill="none" xmlns="http://www.w3.org/2000/svg">
<g clip-path="url(#clip0_7_148)">
<path d="M101.003 31.8617C100.993 37.5658 98.7771 43.0435 94.8226 47.1425C90.868 51.2415 85.4827 53.6423 79.7995 53.84C78.4854 53.8806 77.1709 53.7743 75.8803 53.5232C75.075 53.368 74.7718 53.6626 74.377 54.2264C69.7188 60.9042 62.6604 63.1628 55.0114 60.3562C54.0639 60.0045 53.8808 60.4322 53.5271 61.0752C49.8731 67.7276 44.2548 71.2122 36.6911 70.9746C29.3832 70.7465 24.0997 67.0212 20.9005 60.4702C20.351 59.3456 19.773 59.2031 18.7308 59.3488C10.3429 60.5937 1.60749 54.1314 0.296866 45.7272C-0.840059 38.4413 1.43695 32.546 7.43107 28.1934C8.17955 27.6517 8.21429 27.1671 7.94269 26.3434C4.20347 14.9679 10.106 3.69681 21.6616 0.684224C29.14 -1.26714 35.6931 0.883792 40.9798 6.5605C41.8799 7.52668 42.2747 7.51084 43.2442 6.64603C51.0543 -0.323135 63.0962 1.13405 69.2703 9.81384C70.1767 11.081 70.821 11.3756 72.3527 10.8465C85.1652 6.41161 98.8493 14.9172 100.776 28.3803C100.923 29.535 100.999 30.6977 101.003 31.8617Z" fill="#1CA1DC"/>
<path d="M30.2801 34.0222C30.3041 34.2327 30.3041 34.4452 30.2801 34.6557C30.0306 35.6473 30.9339 36.9682 29.6296 37.6335C27.8705 38.5236 24.4786 38.1372 23.4712 37.0664C22.208 35.736 22.7417 33.4741 24.4976 32.5618C25.3756 32.1057 26.3072 32.0993 27.2578 32.0962C27.6715 32.0962 28.2873 32.3844 28.3947 31.6495C28.4895 30.9779 28.101 30.5566 27.4947 30.3412C26.6135 30.0244 25.7545 30.1828 24.8766 30.4362C24.4123 30.5724 23.7997 31.092 23.4965 30.1385C23.1933 29.1849 23.9386 29.1057 24.5071 28.9474C25.1089 28.7666 25.7282 28.6508 26.3546 28.6021C29.0485 28.4563 30.258 29.6094 30.2864 32.2894C30.2801 32.8628 30.2801 33.4425 30.2801 34.0222Z" fill="#F8FAFB"/>
<path d="M51.6196 42.135C51.2248 41.9481 50.3816 42.2396 50.3374 41.4698C50.2963 40.7665 50.7543 40.4276 51.6006 40.5511C52.6365 40.7 53.1228 39.8669 53.3029 39.0211C53.865 36.4045 54.3356 33.7657 54.8472 31.1364C54.9672 30.5028 54.5851 30.4363 54.1177 30.4078C53.6503 30.3793 53.4513 30.1544 53.5681 29.6792C53.6566 29.3308 53.6345 28.8493 54.1524 28.9063C55.2072 29.0266 55.2956 28.2727 55.5104 27.56C56.0883 25.6751 57.14 24.8135 58.8833 24.8198C59.4233 24.8198 60.1781 24.6836 60.2002 25.5326C60.216 26.2675 59.6854 26.4639 59.0001 26.3942C58.6826 26.3516 58.3599 26.4155 58.0823 26.5759C57.8047 26.7363 57.5878 26.9843 57.4653 27.2812C57.0863 28.0858 56.6378 28.9601 58.2074 28.8873C58.659 28.8651 59.0601 28.9316 59.0096 29.5557C58.9749 30.0467 58.738 30.4395 58.2548 30.3793C56.6441 30.1766 56.5905 31.1839 56.4073 32.3845C56.0441 34.7699 55.5641 37.1362 54.9703 39.4836C54.5156 41.2987 53.3344 42.1477 51.6196 42.135Z" fill="#F8FAFB"/>
<path d="M87.758 33.7276C87.232 33.6988 86.7049 33.6988 86.1789 33.7276C85.661 33.7846 84.8494 33.4108 84.7357 34.2186C84.6985 34.5633 84.7574 34.9115 84.9057 35.2247C85.054 35.5378 85.2859 35.8036 85.5757 35.9925C86.6242 36.7116 87.7864 36.5501 88.9233 36.341C89.4792 36.2396 89.9845 36.0464 90.1866 36.7813C90.414 37.6398 89.7823 37.6968 89.1949 37.8267C87.2053 38.267 85.241 38.2734 83.7756 36.6673C82.4081 35.1721 82.4871 33.2809 83.005 31.4341C83.2922 30.5217 83.8871 29.7381 84.6876 29.2179C85.4881 28.6976 86.4441 28.4732 87.3917 28.583C89.3181 28.827 90.5024 30.2208 90.6698 32.2197C90.7708 33.4298 90.354 33.8669 89.1792 33.7149C88.7056 33.6904 88.231 33.6947 87.758 33.7276Z" fill="#F8FAFB"/>
<path d="M40.7903 33.7276C40.2092 33.7276 39.6313 33.7054 39.0533 33.7276C38.6586 33.7466 38.1343 33.5407 37.929 34.0444C37.8411 34.2952 37.8241 34.5656 37.8798 34.8256C37.9355 35.0856 38.0619 35.325 38.2449 35.5174C39.2744 36.8035 40.6829 36.5755 42.0346 36.36C42.6662 36.2618 43.1557 36.0433 43.2979 36.9271C43.44 37.8109 42.821 37.6969 42.3504 37.8331C41.5369 38.0583 40.6888 38.1302 39.8492 38.0453C37.5185 37.8331 36.1131 36.4773 35.9205 34.282C35.6457 31.1142 36.6437 29.3814 39.1007 28.7225C39.7029 28.5739 40.3319 28.573 40.9344 28.7199C41.537 28.8668 42.0954 29.1573 42.5624 29.5666C43.0293 29.9759 43.391 30.4921 43.6169 31.0713C43.8428 31.6506 43.9262 32.276 43.86 32.8945C43.7937 33.4932 43.5726 33.7403 42.9884 33.7276C42.262 33.7118 41.5262 33.7244 40.7903 33.7276Z" fill="#F8FAFB"/>
<path d="M67.5934 33.2904C67.6091 36.2808 66.1343 38.0421 63.5825 38.0738C61.0308 38.1055 59.3349 36.3442 59.3096 33.4995C59.278 30.5281 60.8887 28.6084 63.4499 28.5894C66.0111 28.5704 67.5807 30.3982 67.5934 33.2904Z" fill="#F8FAFB"/>
<path d="M48.5467 38.0929C47.5466 38.1076 46.5587 37.8713 45.6728 37.4055C45.1643 37.1394 45.0191 36.7973 45.2528 36.2461C45.537 35.5808 45.9413 35.7551 46.3676 36.0338C47.1634 36.547 48.0509 36.5692 48.9478 36.5375C49.5162 36.5185 50.0058 36.3284 50.1447 35.7171C50.2837 35.1057 49.8794 34.7382 49.352 34.5355C48.6699 34.2694 47.9782 34.0286 47.2866 33.7879C46.0234 33.3444 45.2591 32.5809 45.3759 31.0984C45.4928 29.6159 46.475 28.995 47.6909 28.6687C48.8467 28.3519 49.9773 28.6909 51.0637 29.1122C51.5848 29.3149 51.7427 29.6444 51.5027 30.2273C51.2627 30.8101 50.9658 30.7056 50.5268 30.544C49.7987 30.2369 49.0098 30.1024 48.2214 30.1512C47.9823 30.1569 47.7507 30.2358 47.5576 30.3774C47.3645 30.5189 47.2193 30.7164 47.1413 30.9432C46.9645 31.5102 47.4129 31.8207 47.833 32.0329C48.3523 32.2815 48.8884 32.4932 49.4373 32.6665C51.4238 33.3285 52.2133 34.282 51.9448 35.7234C51.6543 37.2978 50.5174 38.0929 48.5467 38.0929Z" fill="#F8FAFB"/>
<path d="M18.1782 38.0929C17.232 38.0964 16.2979 37.8796 15.4496 37.4593C14.8622 37.1742 14.7169 36.8068 14.9727 36.1922C15.2885 35.4351 15.6959 35.8469 16.0717 36.0592C16.9645 36.5222 17.9854 36.6749 18.974 36.4932C19.1865 36.4781 19.3872 36.3897 19.5421 36.243C19.6969 36.0963 19.7964 35.9004 19.8236 35.6885C19.8757 35.4799 19.849 35.2594 19.7487 35.0693C19.6485 34.8792 19.4816 34.7331 19.2804 34.659C18.5066 34.3422 17.7171 34.0571 16.9307 33.772C15.7401 33.338 14.979 32.6474 15.0359 31.2378C15.1053 29.7584 16.0086 29.0963 17.2465 28.7257C18.4845 28.3551 19.6246 28.7257 20.7647 29.1597C21.3742 29.3973 21.3174 29.7933 21.1563 30.3033C20.9415 30.9843 20.5247 30.6517 20.1615 30.5409C19.5227 30.3033 18.8497 30.1717 18.1687 30.1512C17.5371 30.1702 16.9686 30.3856 16.8202 31.0129C16.6718 31.6401 17.2086 31.9284 17.7045 32.1406C18.2003 32.3528 18.6772 32.5334 19.173 32.7045C21.0205 33.338 21.9111 34.3676 21.6995 35.6474C21.4184 37.2376 20.1741 38.0929 18.1782 38.0929Z" fill="#F8FAFB"/>
<path d="M77.0014 33.4203C77.0014 35.7391 78.1352 36.7275 80.5385 36.436C81.2112 36.3568 81.786 36.1509 81.9155 37.0918C82.0576 38.115 81.1859 37.814 80.7533 37.9122C78.6531 38.3874 76.7488 37.7253 75.8329 36.2998C74.7276 34.5829 74.8223 31.7667 76.0382 30.1828C77.1088 28.7889 79.1616 28.2187 81.0375 28.7984C81.4544 28.9252 82.0165 28.8555 81.7986 29.6411C81.6154 30.2968 81.3596 30.3887 80.6806 30.2905C78.0815 29.923 76.9888 30.8987 77.0014 33.4203Z" fill="#F8FAFB"/>
<path d="M32.235 31.4405C32.235 29.7014 32.2571 27.9559 32.235 26.2263C32.235 25.466 32.3834 25.0479 33.2709 25.0701C34.1583 25.0922 34.0888 25.6719 34.0888 26.2516C34.0888 29.7257 34.0888 33.2029 34.0888 36.6832C34.0888 37.2819 34.1362 37.83 33.2424 37.8458C32.3487 37.8616 32.2224 37.3865 32.235 36.6579C32.2508 34.9251 32.235 33.1796 32.235 31.4405Z" fill="#F5F9FB"/>
<path d="M69.185 33.1985C69.185 32.0961 69.2135 30.9811 69.185 29.8882C69.1598 29.1596 69.5008 28.6211 70.1609 28.9093C71.1999 29.3497 72.0558 29.0139 73.0032 28.7415C73.5306 28.5926 74.298 28.5799 74.4023 29.2926C74.5159 30.0719 74.0328 30.5091 73.139 30.4457C71.9894 30.3665 71.462 31.0793 71.2252 32.1215C70.8841 33.6294 71.1083 35.1562 71.0515 36.6736C71.0262 37.2755 71.0736 37.8109 70.1925 37.8299C69.3114 37.8489 69.144 37.4117 69.1661 36.6641C69.2103 35.511 69.185 34.3548 69.185 33.1985Z" fill="#F5F9FB"/>
<path d="M27.1725 36.5312C25.7166 36.5312 24.6681 36.4963 24.646 35.1817C24.6145 33.696 25.7387 33.6643 26.8567 33.5978C27.9747 33.5312 28.5179 33.7752 28.5211 35.1246C28.5116 36.6484 27.6652 36.5502 27.1725 36.5312Z" fill="#21A2DC"/>
<path d="M84.8178 32.3908C84.8178 31.1426 85.3515 30.3855 86.4884 30.1733C87.4674 29.9991 88.2633 30.357 88.6454 31.3264C88.8728 31.8998 88.996 32.4573 88.0138 32.3971C87.0316 32.3369 85.9168 32.3908 84.8178 32.3908Z" fill="#24A3DD"/>
<path d="M39.9187 32.4605C39.2871 32.1025 38.087 32.9547 37.9954 31.8745C37.9038 30.7942 38.8544 30.148 40.0166 30.1543C41.1788 30.1607 41.9747 30.8386 41.8547 31.8555C41.722 32.9674 40.5567 32.1025 39.9187 32.4605Z" fill="#24A3DD"/>
<path d="M65.6827 33.2619C65.6827 35.6441 65.0511 36.4804 63.5036 36.5152C63.0857 36.5493 62.6683 36.4434 62.3169 36.2141C61.9654 35.9848 61.6997 35.6451 61.5613 35.2481C61.1235 34.1736 61.0798 32.9781 61.4382 31.8744C61.754 30.7245 62.4772 30.0592 63.7215 30.1986C64.9658 30.338 65.5058 31.149 65.6322 32.3147C65.6732 32.6727 65.6732 33.0401 65.6827 33.2619Z" fill="#1FA2DC"/>
</g>
<defs>
<clipPath id="clip0_7_148">
<rect width="101" height="71" fill="white"/>
</clipPath>
</defs>
</svg>
