<svg id="Layer_1" data-name="Layer 1" xmlns="http://www.w3.org/2000/svg" viewBox="0 0 317.68 386.02"><defs><style>.cls-1{fill:#bfbfbf;}.cls-2{fill:#fefefe;}.cls-3{fill:#f9e600;}</style></defs><g id="Servare_Icon" data-name="Servare Icon"><path d="M104.68,278.87c-.23-.7-.25-1-.36-1-11.95-4-13.3-12.93-13.11-24.23.59-35.88.22-71.78,0-107.67,0-5.46,1.57-8.81,6.46-11.61Q169.83,93,241.75,51.15c5-2.91,8.92-2.88,13.86,0q73.39,42.93,147,85.46c4.11,2.37,6,5.21,5.91,10.11-.26,13.91-.45,27.84.11,41.73.29,7-1.85,11.59-8.34,14.23a36.19,36.19,0,0,0-5.11,3.09c.34.53.46,1,.7,1.06,10.7,3.83,13.18,11.3,12.94,22.43-.76,35.87-.35,71.78,0,107.67.07,6.67-1.92,10.52-7.83,13.9q-70.68,40.35-141,81.4c-6.07,3.53-10.93,3.79-17.2.1q-72-42.31-144.36-84c-4.95-2.85-7.22-6.13-7.06-12,.35-13.1.55-26.24-.11-39.31-.39-7.72,1.81-12.84,9.06-15.67A30.42,30.42,0,0,0,104.68,278.87Z" transform="translate(-91.17 -48.98)"/><path class="cls-1" d="M113,142.28,214,83.94c10.45-6,20.95-12,31.33-18.17,2.34-1.38,4.09-1.53,6.52-.11Q318,104.3,384.34,142.79c.51.3,1,.65,2.19,1.46-7,4.13-13.29,7.89-19.63,11.55Q311,188.1,255.07,220.39c-2.79,1.62-4.9,2.15-8.08.29q-65.62-38.42-131.43-76.52C114.89,143.77,114.31,143.24,113,142.28Z" transform="translate(-91.17 -48.98)"/><path class="cls-2" d="M394.08,157.17c0,10.1-.26,19.58.13,29,.16,3.88-2.41,4.73-4.67,6-24.71,14.29-49.4,28.63-74.25,42.66-5.17,2.92-7.76,6.36-7.32,12.43.42,5.82.08,11.69.12,17.54.06,9.74,5.15,12.78,13.53,8q33.47-19.22,66.88-38.54c1.68-1,3.39-1.9,5.74-3.22,0,23.33,0,45.88,0,68.42,0,11.3,0,22.59.12,33.89,0,2.82-.41,4.85-3.17,6.43q-65.1,37.4-130.1,75a18.51,18.51,0,0,1-2.56.89c0-10.46,0-20.58,0-30.69,0-2.59,2.56-2.89,4.19-3.83,24.86-14.43,49.69-28.91,74.7-43.07,5-2.84,7.37-6.13,6.94-12-.46-6.42-.05-12.9-.15-19.36-.13-8.43-5-11.22-12.37-7q-35.33,20.22-70.56,40.61l-2.07,1.2c-1.34-1.62-.77-3.28-.77-4.76q-.23-48.11-.38-96.21c0-3.1.06-5.52,3.44-7.45q65.14-37.32,130.1-75A21.8,21.8,0,0,1,394.08,157.17Z" transform="translate(-91.17 -48.98)"/><path class="cls-3" d="M243.65,342l-58.58-34.1Q147.5,286,109.9,264.23c-2.3-1.34-4.16-2.38-4.15-5.76.12-33.47,0-66.94,0-100.4a7.24,7.24,0,0,1,.4-1.67c2.38-.46,3.84,1.24,5.49,2.2q63.42,36.79,126.84,73.62c3.77,2.18,5.3,4.45,5.28,8.91C243.56,274.37,243.65,307.61,243.65,342Z" transform="translate(-91.17 -48.98)"/><path class="cls-3" d="M105.93,303.36c18.24,10.58,35.59,20.63,52.93,30.71,26.78,15.57,53.49,31.25,80.38,46.62,3.72,2.12,4.95,4.43,4.82,8.52-.29,8.62-.09,17.26-.09,25.89-2.11.32-3.33-.91-4.66-1.69Q174.87,376,110.41,338.59c-3.43-2-4.72-4.1-4.58-8C106.15,321.9,105.93,313.23,105.93,303.36Z" transform="translate(-91.17 -48.98)"/><path class="cls-1" d="M113.69,291.1c3.87-4.09,7.07-4.09,11.49-1.49C164.72,312.85,204.47,335.73,244,359c5.23,3.07,9.2,3.07,14.35,0,17.25-10.34,34.89-20,52.11-30.43,4.72-2.85,7.94-2.34,11.76,1.52-22.86,13.19-45.53,26.2-68.1,39.38-3.22,1.89-5.28.23-7.69-1.17L125.9,298.22Z" transform="translate(-91.17 -48.98)"/><path class="cls-1" d="M323.14,255.32c-1.61-5.9.42-8.68,5-11.21q23.5-12.92,46.43-26.84c4.64-2.82,8-2.66,11.85,1.47Z" transform="translate(-91.17 -48.98)"/></g></svg>