<svg width="79" height="79" viewBox="0 0 79 79" fill="none" xmlns="http://www.w3.org/2000/svg">
<g clip-path="url(#clip0_7_212)">
<path d="M39.6514 -6.46358e-05C29.1717 -0.0316288 19.1084 4.10064 11.6735 11.4884C4.2387 18.8761 0.0408887 28.9146 0.00289018 39.3972C-0.185158 61.0363 17.4938 78.9009 39.4287 78.9975C49.8277 78.9141 59.774 74.731 67.1083 67.3564C74.4426 59.9819 78.5728 50.0111 78.6021 39.6089C78.6315 29.2067 74.5576 19.2127 67.265 11.7969C59.9723 4.38106 50.0497 0.141955 39.6514 -6.46358e-05Z" fill="white"/>
<path d="M39.6514 -6.46358e-05C50.0497 0.141955 59.9723 4.38106 67.265 11.7969C74.5576 19.2127 78.6315 29.2067 78.6021 39.6089C78.5728 50.0111 74.4426 59.9819 67.1083 67.3564C59.774 74.731 49.8277 78.9141 39.4287 78.9975C17.4938 78.8985 -0.185158 61.0338 0.00289018 39.3972C0.0408887 28.9146 4.2387 18.8761 11.6735 11.4884C19.1084 4.10064 29.1717 -0.0316288 39.6514 -6.46358e-05ZM34.2079 42.1643L25.6294 33.3928L18.7879 40.1521L34.339 55.767L60.2723 29.8461C58.0677 27.6384 55.7789 25.3515 53.3591 22.9309L34.2079 42.1643Z" fill="black"/>
<path d="M34.2074 42.1642L53.3586 22.9309C55.7785 25.3515 58.0598 27.6334 60.2719 29.8461L34.3386 55.7669L18.7875 40.1521L25.629 33.3928L34.2074 42.1642Z" fill="white"/>
</g>
<defs>
<clipPath id="clip0_7_212">
<rect width="79" height="79" fill="white"/>
</clipPath>
</defs>
</svg>
