<svg id="Layer_1" data-name="Layer 1" xmlns="http://www.w3.org/2000/svg" viewBox="0 0 448.24 447.89"><defs><style>.cls-1{fill:#fec530;}.cls-2{fill:#ac988f;}.cls-3{fill:#93350f;}.cls-4{fill:#6e5f5c;}.cls-5{fill:#ac9890;}.cls-6{fill:#a2c7bd;}.cls-7{fill:#fdc430;}.cls-8{fill:#f7f9fa;}.cls-9{fill:#fee077;}.cls-10{fill:#ecf3f4;}.cls-11{fill:#fed05b;}.cls-12{fill:#010000;}.cls-13{fill:#010100;}.cls-14{fill:#dceaef;}.cls-15{fill:#e5c969;}.cls-16{fill:#fddf76;}.cls-17{fill:#efd370;}.cls-18{fill:#f3d671;}.cls-19{fill:#ecd06e;}.cls-20{fill:#f4d772;}.cls-21{fill:#fdd05a;}.cls-22{fill:#7ba0b0;}.cls-23{fill:#fdcf59;}.cls-24{fill:#fdcf5a;}</style></defs><path class="cls-1" d="M227.84,397.28l-50.63,0c-1.77-3.21,1.09-4.67,2.68-6.26Q225.84,344.8,272,298.83c1.88-1.88,3.86-3.62,6.61-4.17a410.8,410.8,0,0,1,47.08,0c3.23.93,3.45,2.84,1.69,5.37a46,46,0,0,1-5.35,5.81l-84.92,84.9C234.38,393.49,231.9,396.51,227.84,397.28Z" transform="translate(-67.92 -58.11)"/><path class="cls-1" d="M97,397.77l-20.89-.54c-1.77-3.21,1.09-4.67,2.68-6.26q45.94-46.17,92.08-92.14c1.88-1.88,3.86-3.62,6.61-4.17a410.8,410.8,0,0,1,47.08,0c3.23.93,3.45,2.84,1.69,5.37a46,46,0,0,1-5.35,5.81l-84.92,84.9c-2.7,2.7-5.18,5.72-9.25,6.49l0,.26A41.12,41.12,0,0,1,97,397.77Z" transform="translate(-67.92 -58.11)"/><path class="cls-1" d="M97,267.76l-20.89-.54c-1.85-3.21,1.09-4.64,2.65-6.21q45-45.25,90.23-90.33a13.36,13.36,0,0,1,6.71-4l50.62,0c1.77,4.16-2.06,5.62-4,7.61q-42.46,42.73-85.18,85.23C133.68,263,130.8,267,126.23,269a13.7,13.7,0,0,1-2.36.55C114.88,269.19,105.69,271.78,97,267.76Z" transform="translate(-67.92 -58.11)"/><path class="cls-1" d="M276.8,166.71l50.62,0c1.67,4.15-2.09,5.66-4.09,7.68q-44.46,44.7-89.12,89.2c-2.36,2.36-4.6,5-8.15,5.69a408.54,408.54,0,0,1-47.08-.05c-3.23-.93-3.45-2.84-1.69-5.36a44.62,44.62,0,0,1,5.35-5.81q42.45-42.47,84.92-84.9C270.26,170.5,272.74,167.48,276.8,166.71Z" transform="translate(-67.92 -58.11)"/><path class="cls-1" d="M377.94,166.71l50.62,0c1.67,4.15-2.09,5.66-4.09,7.68q-44.46,44.7-89.11,89.2c-2.37,2.36-4.61,5-8.15,5.69a408.71,408.71,0,0,1-47.09-.05c-3.22-.93-3.45-2.84-1.69-5.36a44.62,44.62,0,0,1,5.35-5.81q42.45-42.47,84.92-84.9C371.4,170.5,373.88,167.48,377.94,166.71Z" transform="translate(-67.92 -58.11)"/><path class="cls-1" d="M329,397.28l-50.63,0c-1.77-3.21,1.09-4.67,2.68-6.26Q327,344.8,373.12,298.83c1.88-1.88,3.86-3.62,6.6-4.17a410.8,410.8,0,0,1,47.08,0c3.23.93,3.46,2.84,1.69,5.37a46,46,0,0,1-5.35,5.81l-84.92,84.9C335.52,393.49,333,396.51,329,397.28Z" transform="translate(-67.92 -58.11)"/><path class="cls-1" d="M487.15,166.21c7.66.07,15.33.43,23,.11,4.75-.19,6.51,1.34,5.94,6-.37,3.07-.23,6.21-.33,9.31-.67,3.51-3.08,5.85-5.47,8.23q-36.88,36.87-73.77,73.74c-2.37,2.36-4.6,5-8.14,5.68a408.88,408.88,0,0,1-47.1-.05c-3.27-.95-3.4-2.89-1.65-5.4a36.07,36.07,0,0,1,4.35-4.81q43.62-43.62,87.26-87.23c2.21-2.2,4.36-4.49,7.24-5.9C481.39,164.69,484.32,164.1,487.15,166.21Z" transform="translate(-67.92 -58.11)"/><path class="cls-1" d="M430.12,397.28l-50.63,0c-1.83-3.21,1.09-4.64,2.66-6.22q45.5-45.7,91.19-91.22a19,19,0,0,1,5.18-3.87c2.92-1.23,5.83-1.79,8.63.3,7.66.07,15.33.43,23,.11,4.75-.19,6.51,1.34,5.94,6-.37,3.08-.23,6.21-.33,9.31-.67,3.52-3.11,5.85-5.49,8.24q-36,35.93-71.88,71.86C436,394.17,433.64,396.61,430.12,397.28Z" transform="translate(-67.92 -58.11)"/><path d="M126.69,397.28q41.57-41.79,83.13-83.59c5.56-5.6,11-11.3,16.53-17,1.79-2.37,4.46-2.61,7.06-2.66q18.18-.39,36.36,0c2.6.05,5.28.29,7.07,2.66q-47.17,47.37-94.32,94.73c-1.85,1.85-3.55,3.85-5.31,5.77Z" transform="translate(-67.92 -58.11)"/><path d="M276.8,166.71q-41.56,41.78-83.13,83.58c-5.56,5.6-11,11.3-16.53,17-1.81,2.4-4.52,2.61-7.15,2.66q-18,.38-36,0c-2.63-.06-5.33-.26-7.18-2.62q21.8-22.1,43.59-44.17,27.92-28.22,55.89-56.38Z" transform="translate(-67.92 -58.11)"/><path d="M377.94,166.71q-41.56,41.78-83.12,83.58c-5.57,5.6-11,11.3-16.54,17-1.79,2.37-4.46,2.61-7.06,2.66q-18.18.39-36.36,0c-2.6-.05-5.27-.29-7.06-2.66Q275,219.9,322.12,172.53c1.84-1.86,3.54-3.85,5.31-5.78Z" transform="translate(-67.92 -58.11)"/><path d="M478.88,167.65l-99.45,99.6c-1.79,2.37-4.47,2.61-7.07,2.66q-18.18.39-36.36,0c-2.6-.05-5.27-.29-7.06-2.66q47.16-47.35,94.32-94.72c1.84-1.86,3.54-3.85,5.31-5.78l29.54-.53C465.25,163.57,472.34,161.59,478.88,167.65Z" transform="translate(-67.92 -58.11)"/><path d="M378,296.73q-47.16,47.37-94.32,94.73c-1.84,1.85-3.55,3.85-5.31,5.77l-50.51,0q41.57-41.79,83.12-83.59c5.56-5.6,11-11.3,16.53-17,1.79-2.37,4.47-2.61,7.07-2.66q18.17-.39,36.35,0C373.51,294.12,376.19,294.36,378,296.73Z" transform="translate(-67.92 -58.11)"/><path d="M478.88,297.66l-99.39,99.57-50.51,0q41.56-41.79,83.12-83.59c5.57-5.6,11-11.3,16.53-16.95,2-2.63,5-2.6,7.79-2.64,7.12-.09,14.25-.37,21.36.16a112.12,112.12,0,0,1,14.08,0C474.58,294.4,477.68,294.21,478.88,297.66Z" transform="translate(-67.92 -58.11)"/><path d="M175.69,296.73q-47.16,47.37-94.31,94.73c-1.85,1.85-3.55,3.85-5.32,5.77-6.79,2-8.42-.87-8.1-7.41.59-12.11.36-24.26.48-36.4a29.55,29.55,0,0,1,3.84-5.16c17.53-17.35,34.7-35.06,52.46-52.19a9.8,9.8,0,0,1,3.4-1.46c13.7-1.14,27.4-.47,41.1-.41C171.63,294.21,174.1,294.49,175.69,296.73Z" transform="translate(-67.92 -58.11)"/><path d="M175.66,166.71q-41.57,41.78-83.1,83.55c-5.56,5.6-11,11.31-16.5,17-6.79,2-8.42-.87-8.1-7.41.59-12.11.36-24.26.48-36.4a29.92,29.92,0,0,1,4.85-6.19c16.67-16.52,33.09-33.29,49.88-49.69a4.67,4.67,0,0,1,2.76-1.19Z" transform="translate(-67.92 -58.11)"/><path d="M430.08,267.25l85.65-85.58-.06,50.54c-10.72,13.19-23.11,24.72-35.61,36.18-7.47,2.49-15.15,1-22.75,1.31-6.46.54-12.92.27-19.38.17C435.1,269.83,432.1,269.9,430.08,267.25Z" transform="translate(-67.92 -58.11)"/><path d="M430.12,397.28l85.61-85.59-.06,50.54c-10.7,13.18-23.11,24.68-35.57,36.15-7.39,1.84-14.75,2.7-22-.61Z" transform="translate(-67.92 -58.11)"/><path class="cls-2" d="M458.11,397.77c7.65-1.08,15.48,1.18,23.05-1.27,2.2-.55,4.38-1,6,1.27q.08,43.16.14,86.31a36.25,36.25,0,0,1-29.22,0Z" transform="translate(-67.92 -58.11)"/><path class="cls-2" d="M97,397.77l29.68-.23C125,404,126,410.46,126,416.91c-.09,22.39,0,44.78.11,67.17a36.27,36.27,0,0,1-29.23,0Q96.91,440.93,97,397.77Z" transform="translate(-67.92 -58.11)"/><path class="cls-1" d="M124.65,297.43l-56.21,56c-.11-17.49-.12-35-.41-52.45-.07-4.14,1.84-4.64,5.21-4.59,7.91.09,15.81-.1,23.72-.17C106.32,293.58,115.66,291.42,124.65,297.43Z" transform="translate(-67.92 -58.11)"/><path class="cls-1" d="M124.65,167.42l-56.21,56c-.11-17.48-.12-35-.41-52.44-.07-4.14,1.84-4.64,5.21-4.6,7.91.1,15.81-.09,23.72-.16C106.32,163.57,115.66,161.4,124.65,167.42Z" transform="translate(-67.92 -58.11)"/><path class="cls-3" d="M90,101.28c-.07-7.21-.36-14.43-.15-21.64.35-12.36,9.71-21.53,21.6-21.53s21.24,9.14,21.61,21.53c.21,7.21-.08,14.43-.15,21.64a3.73,3.73,0,0,1-2.27,1.64,168.61,168.61,0,0,1-38.37,0A3.73,3.73,0,0,1,90,101.28Z" transform="translate(-67.92 -58.11)"/><path class="cls-3" d="M451.21,101.28c-.06-7.21-.36-14.43-.15-21.64.35-12.36,9.71-21.53,21.6-21.53s21.24,9.14,21.61,21.53c.22,7.21-.08,14.43-.15,21.64a3.73,3.73,0,0,1-2.27,1.64,168.61,168.61,0,0,1-38.37,0A3.73,3.73,0,0,1,451.21,101.28Z" transform="translate(-67.92 -58.11)"/><path class="cls-4" d="M458.06,484.08h29.22a31.66,31.66,0,0,1,5.71.49c5.55,1.46,8.7,5.22,8.41,10.95-.31,6.09-4,10-10,10.2-12.45.37-24.94.38-37.4,0-6-.18-9.77-4.1-10-10.19s3.17-9.83,9.11-11.09A34.8,34.8,0,0,1,458.06,484.08Z" transform="translate(-67.92 -58.11)"/><path class="cls-4" d="M96.83,484.08h29.23a31.66,31.66,0,0,1,5.71.49c5.55,1.46,8.7,5.22,8.41,10.95-.31,6.09-4,10-10,10.2q-18.69.55-37.4,0c-6-.18-9.77-4.1-10-10.19s3.17-9.83,9.11-11.09A34.66,34.66,0,0,1,96.83,484.08Z" transform="translate(-67.92 -58.11)"/><path class="cls-5" d="M451.21,101.28h42.91c9.9,7.72,10.06,15.25.44,20.67-7,5.06-36.74,5.07-43.79,0C441.14,116.52,441.3,109,451.21,101.28Z" transform="translate(-67.92 -58.11)"/><path class="cls-5" d="M90,101.28H132.9c9.9,7.72,10.06,15.25.44,20.67-7,5.06-36.74,5.07-43.79,0C79.92,116.52,80.08,109,90,101.28Z" transform="translate(-67.92 -58.11)"/><path class="cls-2" d="M458.11,267.75c7.65-1.07,15.48,1.19,23.05-1.26,2.2-.55,4.38-1,6,1.27q0,14.24,0,28.46c-2.75.54-5.76-.44-8.27,1.44-6.77-2.71-13.89-.36-20.77-1.43A39.52,39.52,0,0,1,458.11,267.75Z" transform="translate(-67.92 -58.11)"/><path class="cls-2" d="M124.65,297.43c-9.15-2.38-18.49-.13-27.69-1.21V267.76l29.92-.34c1.86,9.71,3.09,19.41-.95,28.93Z" transform="translate(-67.92 -58.11)"/><path class="cls-6" d="M450.77,122a174.38,174.38,0,0,0,43.79,0l-7.62,22.88a39.09,39.09,0,0,1-28.55,0Z" transform="translate(-67.92 -58.11)"/><path class="cls-6" d="M89.55,122a174.38,174.38,0,0,0,43.79,0l-7.62,22.88a39.09,39.09,0,0,1-28.55,0Z" transform="translate(-67.92 -58.11)"/><path class="cls-7" d="M487.14,397.77c-2-.52-4.25.4-6-1.27l34.5-34.28c.11,10.28.13,20.57.39,30.84.09,3.4-1.07,4.61-4.51,4.55C503.42,397.49,495.28,397.7,487.14,397.77Z" transform="translate(-67.92 -58.11)"/><path class="cls-7" d="M487.14,267.76c-2-.52-4.25.4-6-1.28l34.5-34.27c.11,10.28.13,20.56.39,30.84.09,3.4-1.07,4.61-4.51,4.55C503.42,267.48,495.28,267.69,487.14,267.76Z" transform="translate(-67.92 -58.11)"/><path class="cls-2" d="M458.39,144.83h28.55l.21,21.38c-2.75.54-5.76-.44-8.27,1.44-6.77-2.7-13.89-.37-20.77-1.43Q458.25,155.53,458.39,144.83Z" transform="translate(-67.92 -58.11)"/><path class="cls-2" d="M97.17,144.83h28.55l.21,21.51-1.29,1.08c-9.14-2.38-18.48-.13-27.68-1.21Z" transform="translate(-67.92 -58.11)"/><path class="cls-8" d="M125.93,296.35c.52-9.64-1.25-19.35.94-28.93l-.06-.12,50.33-.05H430.08l28,.5v28.48l-29.47.5H175.69Z" transform="translate(-67.92 -58.11)"/><path class="cls-9" d="M393.63,362.05h-9.69c-3-1.87-6.35-2-9.76-2q-92.18,0-184.35,0a33.66,33.66,0,0,1-8.08-.49c-3.53-.87-6.26-2.59-6.88-6.53-.09-34.38,0-68.77,0-103.15,0-5.42.68-6.1,6.09-6.11q109.24,0,218.49,0c5.25,0,6.23.89,6.26,6.12.12,16,.08,31.94,0,47.92,0,3.08-.61,5.74-4.39,6.1-1.1.47-2.23.91-3.31,1.46a7.46,7.46,0,0,0-4.4,6.76c-.11,3.12,1.54,5.33,4.26,6.8,2,1.08,4.2,1.84,6.25,2.85,1.46.71,3.14,1.64,2.69,3.56-.52,2.21-2.49,2.61-4.5,2.58a9.43,9.43,0,0,1-4.85-1.85c-1.45-.9-3.06-1.6-4.28.16s0,3.05,1.21,4.21c1.9,1.86,4.35,2.62,6.86,3.26,3.35.44,4.4,2.58,4.36,5.68s0,6.46,0,9.69c-.06,7.8-1,9-8.49,10.4C395.74,360.06,395,361.54,393.63,362.05Z" transform="translate(-67.92 -58.11)"/><path d="M427.9,205.79c0-9.29-5.93-15.13-15.26-15.16-11.1,0-22.2-.06-33.3,0a7,7,0,0,1-3.15-.66,56.49,56.49,0,0,1-8.23.06,30.59,30.59,0,0,1-6.5-.26,7.2,7.2,0,0,1-1.13-.27c-2.64,0-5.29,0-7.9,0a7.53,7.53,0,0,1-1-.11c-19,.18-37.95.6-56.92.16-6.22,1.3-12.82,1.15-19.47.62-5.53.49-11.06.2-16.64.31s-11.23.61-16.78,0a7.22,7.22,0,0,1-.81.33,1.83,1.83,0,0,1-.25.06,14.81,14.81,0,0,1-2.43.28,7.16,7.16,0,0,1-3.64-1l-.67-.52c-4.45-.18-8.9-.16-13.35-.14l-3,2.66c-1.31,5.39,0,7.26,5.32,7.76,2,.19,4,.11,6.08.11H395.73a51.1,51.1,0,0,0,6.89-.15c3,.15,6,.08,8.93.15,5.52.13,7.4,1.8,7.59,7.27.28,8,0,16,.11,23.94,0,3.18-1.48,4.33-4.47,4.24-4.87-.13-9.73.2-14.6.2H184.23c-.95,0-1.9,0-2.84,0-4.21-.1-5-.84-5-5q-.08-9.94,0-19.89c0-2.15-.3-4.34.55-6.43,1-3.47,3.48-4.49,6.79-4.49,5.68,0,11.35.18,17-.09,4.31-.21,5.72-1.52,6.17-5.2-.68-3-2.61-4.07-5.63-4-6.09.14-12.18,0-18.27,0-9.28.06-15.11,5.92-15.11,15.32q0,72.29,0,144.58c0,9.6,5.77,15.43,15.4,15.43q97.26,0,194.54.06c3.1,0,5.27-.82,6.12-4-1-3.86-4.05-3.64-7.11-3.64q-95.28,0-190.55,0a31.46,31.46,0,0,1-4.86-.19c-2.86-.45-5.08-1.79-5.53-5-.55-1.16-.3-2.4-.3-3.61q0-50.34,0-100.7c0-4.35,0-4.36,4.44-4.36,35.6,0,71.2-.21,106.8,0,42.19.31,84.4-1.18,126.58.9,5.37.26,5.8.41,5.81,5.35,0,32.35.08,64.7,0,97,0,6.88-2.42,9.2-9.35,9.41-4.84.14-9.58,1.07-14.39,1.45-.61,1.1-1.21,2.2-1.82,3.29.63,3.11,2.71,4,5.65,4,4.46-.11,8.93,0,13.4,0,9.38-.12,15.22-5.88,15.22-15.21Q427.95,278.28,427.9,205.79Z" transform="translate(-67.92 -58.11)"/><path class="cls-10" d="M217.48,192.15c-.78,5.34.15,6.28,6.31,6.28H397.88c1.61,0,3.23.13,4.84.2,1.36,1.21,2.72,2.55,1.79,4.51-.84,1.77-2.74,1.42-4.33,1.5s-3.25,0-4.87,0q-101.37,0-202.73,0c-2.15,0-4.35-.32-6.41.57-2.4.8-3.28,2.54-3.27,5,0,4.86,0,9.72,0,14.57,0,2,.63,3.72,2.67,4.58s4,.58,6,.58H396.77a33.54,33.54,0,0,1,5.67.2c2.12.36,2.93,1.74,2.8,3.79s-1.54,2.6-3.38,2.46c-.68-.05-1.36,0-2,0H180.46c-4.86,0-4.93,0-4.85-4.71.16-9.47-.42-18.93.3-28.39.64-3.83,3.35-4.85,6.72-4.87,6.18,0,12.35-.06,18.52,0,2.86,0,5-.86,5.74-3.87,2,0,3.94-.14,5.89,0C215,194.81,216.54,194.19,217.48,192.15Z" transform="translate(-67.92 -58.11)"/><path class="cls-11" d="M175.89,353.22c-1-1.34-.54-2.89-.54-4.33,0-33.45,0-66.89-.12-100.33,0-3.7,1-4.4,4.52-4.39q118.22.17,236.42,0c3.81,0,4.34,1.2,4.33,4.57-.12,33.31-.07,66.62-.07,99.93,0,7.55-2.13,9.68-9.57,9.76-5.14.06-10.27.22-15.41.33.87-1.19,2.2-1,3.33-.85,4.07.53,5.33-2,5.49-5.23.24-5-.12-10,.14-14.92.18-3.42-2.92-2-4.1-3.26,1.16-1.56,2.91-1.1,4.46-1.29,4.23-.53,7.34-3.18,8-6.86s-1.15-6.86-4.88-8.89c-2-1.1-4.3-1.64-6.24-2.89-1.47-.95-2.74-2.08-.54-3.65a8.73,8.73,0,0,1,3.69-.37,28.34,28.34,0,0,1,3.86,1,2.41,2.41,0,0,0,2.83-.95,2.54,2.54,0,0,0-.64-3.27c-1.89-1.91-4.34-2.47-6.91-2.74-1.54-.16-3.27.3-4.45-1.21,5.05-.21,5-3.55,4.92-7.4q-.24-23.56,0-47.13c0-3-.87-3.92-3.91-3.91q-110.31.11-220.62,0c-3.52,0-3.92,1.4-3.91,4.31q.1,49.36,0,98.73C176,349.7,175.93,351.46,175.89,353.22Z" transform="translate(-67.92 -58.11)"/><path d="M218.72,273.38c1.09-3.63,1.94-6.61,2.88-9.55.65-2,1.72-3.77,4.23-3.64,2.24.12,3.19,1.65,3.76,3.64.88,3,1.88,6.05,3.17,10.15.8-3.9,1.4-6.76,2-9.63s1.86-4.75,4.94-3.94c2.69.71,3.17,2.76,2.57,5.44q-2.42,10.86-4.41,21.81c-.47,2.53-1.83,4.08-4.15,4.26s-3.9-1.47-4.6-3.78c-1-3.29-2-6.57-3.25-10.5-1.9,3.4-2.47,6.56-3.39,9.58-.77,2.5-1.93,4.81-4.77,4.7-3-.12-4.05-2.37-4.54-5.26-1.19-7.05-2.66-14.05-4.12-21.05-.55-2.63-.13-4.7,2.75-5.3s4.08,1.28,4.7,3.8C217.18,267,217.15,270,218.72,273.38Z" transform="translate(-67.92 -58.11)"/><path d="M379.21,276.34c0-4.66,0-8.14,0-11.63,0-2.74.78-5,4-5,3,0,3.58,2.28,3.61,4.82.09,7.31.22,14.62.35,21.93,0,2.48-.55,4.7-3.19,5.48s-4-1.06-5.25-2.91c-2.87-4.17-5.76-8.34-9.28-13.45,0,4.84,0,8.56,0,12.29,0,2.52-.93,4.28-3.69,4.31S362,290.5,362,288q0-12,0-24c0-2,.62-3.48,2.54-4.12s3.42.27,4.52,1.84C372.23,266.25,375.37,270.8,379.21,276.34Z" transform="translate(-67.92 -58.11)"/><path d="M262.19,292.31A16,16,0,0,1,246,276.64c-.08-8.54,7.39-16,16-16a16,16,0,0,1,15.89,16A15.62,15.62,0,0,1,262.19,292.31Z" transform="translate(-67.92 -58.11)"/><path d="M251.16,336.17a15.84,15.84,0,0,1-15.71-15.76,16.1,16.1,0,0,1,15.84-15.72,15.87,15.87,0,0,1,15.81,16.06A15.64,15.64,0,0,1,251.16,336.17Z" transform="translate(-67.92 -58.11)"/><path class="cls-12" d="M295,323.11a25.69,25.69,0,0,1-3.16-.54,3.54,3.54,0,0,1-2.89-3.85,3.43,3.43,0,0,1,3.31-3.49,43,43,0,0,1,7.69,0c3.06.3,3.81,2.48,3.67,5.26-.45,9-6.89,14.74-15.84,14a15.59,15.59,0,0,1-14.05-16.79c1.22-11.3,12.83-17.86,22.76-12.86,2.35,1.18,4.36,2.74,3.05,5.67s-3.66,2.4-6.15,1.31c-4.94-2.16-9.77-.35-11.5,4.12a8.16,8.16,0,0,0,4.77,10.63C290.34,328,292.81,327,295,323.11Z" transform="translate(-67.92 -58.11)"/><path class="cls-12" d="M224.11,322.57c1.54,1.76,2.95,3.4,4.37,5,1.71,1.95,2.46,4.2.28,6s-4.25,1.09-6-1c-1.55-1.84-3.17-3.6-4.85-5.49-1,1.25-.46,2.49-.64,3.6-.38,2.27-1.45,3.79-4,3.75-2.77,0-3.81-1.87-3.88-4.26-.12-4.33,0-8.67,0-13a31.58,31.58,0,0,1,0-4.46c.48-3.42-2-8.21,3.54-9.48,7.43-1.7,13.69.65,16.09,5.51,2.29,4.64.85,9.27-4,13Z" transform="translate(-67.92 -58.11)"/><path d="M291.58,283.69a29.89,29.89,0,0,1-.3,5c-.5,2-1.92,3.44-4.06,3.2a3.46,3.46,0,0,1-3.36-3.45q-.09-12.34,0-24.69a3.16,3.16,0,0,1,2.84-3.42c3.74-.35,7.57-.82,11.21.55a9.71,9.71,0,0,1,2.65,17c-2.2,1.73-1.92,2.57-.26,4.14a28.56,28.56,0,0,1,3.19,3.66,3.62,3.62,0,0,1-.54,5.39c-1.74,1.51-3.55,1.15-5-.38C295.86,288.57,294,286.35,291.58,283.69Z" transform="translate(-67.92 -58.11)"/><path d="M325.25,322.62c1.67,1.94,3.29,3.75,4.83,5.62s1.68,3.81-.19,5.39a3.71,3.71,0,0,1-5.45-.37c-1.87-1.95-3.61-4-5.58-6.23-1.11,1.28-.49,2.65-.63,3.86-.27,2.42-1.54,3.72-4,3.61a3.28,3.28,0,0,1-3.47-3.64q0-12,0-24c0-1.86.94-3.28,2.73-3.49,3.62-.43,7.37-.82,10.87.37,7.53,2.56,9.16,11.64,3.18,17C326.85,321.36,326.1,321.92,325.25,322.62Z" transform="translate(-67.92 -58.11)"/><path class="cls-12" d="M400.71,311.49c-1.41,1.85.6,2,1.39,2.38,1.92.94,4,1.48,6,2.42,4.7,2.29,6.71,5.94,5.9,10.38-.77,4.26-4.76,7.51-9.62,7.81-1.34.08-2.7,0-4,0a15.39,15.39,0,0,1-7.47-3.83C391,328.94,390.3,327,392,325s3.73-1.84,5.67-.12A7.56,7.56,0,0,0,404,327a2.81,2.81,0,0,0,2.41-1.92c.25-1-.81-1.6-1.68-2-1.48-.66-3-1.34-4.48-1.85-4.26-1.41-7.78-3.74-7.92-8.61s3-7.58,7.16-9.3c3.79-.3,7.49-.16,10.84,2,2.17,1.37,4.11,3,2.54,5.81s-3.79,2.55-6.15.95a5.85,5.85,0,0,0-1.47-.54A7,7,0,0,0,400.71,311.49Z" transform="translate(-67.92 -58.11)"/><path d="M372.51,334.53a13.08,13.08,0,0,1-9.09-4c-1.83-1.78-2.11-3.84-.44-5.73s3.59-1.57,5.37,0a7.88,7.88,0,0,0,6.25,2.28,2.71,2.71,0,0,0,2.47-1.8c.39-1.35-.83-1.84-1.81-2.25-2.1-.9-4.24-1.71-6.35-2.59-3.74-1.56-5.92-4.32-5.72-8.42a8.66,8.66,0,0,1,6.63-8.27,13.69,13.69,0,0,1,12.61,2.53,3.6,3.6,0,0,1,.92,5.35,3.46,3.46,0,0,1-5,1c-1.52-.89-3-1.84-4.87-1.74-1,.06-2.11.1-2.41,1.11-.39,1.27.92,1.46,1.72,1.8,1.61.69,3.28,1.22,4.89,1.9,5.48,2.34,8.23,6.74,7.1,11.28C383.59,331.69,379,334.75,372.51,334.53Z" transform="translate(-67.92 -58.11)"/><path d="M317.52,283.77c0,4,.51,8.13-3.82,8.06-4.67-.08-3.73-4.38-3.76-7.51-.05-5.8,0-11.61,0-17.42,0-2.92-.61-6.58,3.79-6.64,4.07-.05,3.74,3.42,3.83,6.55,2.55-1.15,4.12-3.22,6-4.85,2-1.8,4.12-2.32,6-.18,1.73,2,1.07,4-.78,5.69-2.2,2-4.24,4.19-6.59,6-2.14,1.65-1.78,2.68.06,4.26,2.66,2.27,5.11,4.81,7.6,7.28,1.78,1.77,2.15,3.81.36,5.72s-3.85,1.44-5.65-.27C322.4,288.44,320.28,286.41,317.52,283.77Z" transform="translate(-67.92 -58.11)"/><path class="cls-13" d="M337.91,319.36c0-3.52,0-7,0-10.56,0-3.35,1.65-5,5-5,2.57,0,5.15-.06,7.72,0s5.05.7,4.94,4c-.1,3-2.28,3.68-4.83,3.68-1.09,0-2.17.06-3.25,0-1.61-.09-1.66.91-1.65,2.09s.06,2.17,1.66,2.08a23.53,23.53,0,0,1,3.66,0c2.32.26,3.78,1.55,3.69,4-.08,2.22-1.46,3.4-3.65,3.56a22,22,0,0,1-3.25,0c-1.58-.11-2.16.55-2.13,2.12s.3,2.35,2,2.24a36.66,36.66,0,0,1,4.06,0,3.49,3.49,0,0,1,3.71,3.49,3.4,3.4,0,0,1-3.21,4,66.73,66.73,0,0,1-10.95,0c-2.5-.22-3.47-2.3-3.47-4.73Z" transform="translate(-67.92 -58.11)"/><path d="M189.72,303.17c1.81.08,4-.16,6.08.65a10.6,10.6,0,0,1,6.9,10.82,10,10,0,0,1-9.51,9.44c-4.08.26-4.64,2-4.16,5.2a11,11,0,0,1,0,1.62c0,2.31-1.26,3.55-3.5,3.61-2.43.06-3.82-1.22-3.83-3.71,0-7.85-.1-15.71,0-23.56C181.79,303.63,182.9,303.15,189.72,303.17Z" transform="translate(-67.92 -58.11)"/><path class="cls-13" d="M346.4,275.85c0-3.79,0-7.58,0-11.37,0-2.58.76-4.75,3.72-4.76s3.91,1.92,3.9,4.61c0,7.86,0,15.71,0,23.56,0,2.51-1,4.24-3.72,4.31s-3.83-1.68-3.86-4.16C346.36,284,346.4,279.91,346.4,275.85Z" transform="translate(-67.92 -58.11)"/><path class="cls-14" d="M175.91,203.32c0,9.61.2,19.23.05,28.84,0,3.05.89,3.9,3.92,3.9q110.31-.12,220.63-.07c1.84,0,4,.49,3.83-2.62s-2.65-2.14-4.27-2.14q-105.43-.07-210.88-.07c-1.7,0-3.54.6-5.07-.72,2-2,4.55-1.45,6.91-1.45q44.08-.08,88.15,0H404.3c8.35,0,8.41-.07,8.42-8.31,0-3.12.07-6.23,0-9.35-.14-4.56-.9-5.3-5.56-5.54-1.9-.09-3.79,0-5.69,0q-104.4,0-208.81,0c-2.61,0-5.47.73-7.71-1.46,1.55-1.26,3.39-.67,5.08-.67q104.45,0,208.9,0c5.39,0,5.39,0,3.81-4.87,3.65-.06,7.3-.26,10.95-.14,4.19.12,6.61,2.36,6.69,6.58.18,9.75,0,19.5.11,29.25,0,2.07-.85,2.48-2.67,2.45-5.55-.08-11.11,0-16.66,0q-110.52,0-221,.1c-3.9,0-5-.88-4.87-4.85.34-8.11.08-16.25.12-24.38C175.36,206.2,174.91,204.65,175.91,203.32Z" transform="translate(-67.92 -58.11)"/><path d="M184.93,204.21c1.48,0,3,.13,4.45.13H407.09c6.49,0,7,.5,7,6.83,0,4.88-.08,9.75,0,14.62.07,3.27-1.37,4.77-4.59,4.73-3,0-6,0-8.94,0H191.42c-2.43,0-4.87,0-7.3,0-2-1-2.5-2.58-2.47-4.67.09-5.4.13-10.81,0-16.21C181.57,206.93,182.38,205.11,184.93,204.21Z" transform="translate(-67.92 -58.11)"/><path class="cls-15" d="M400.71,311.49a3.65,3.65,0,0,1,4.54.05Z" transform="translate(-67.92 -58.11)"/><path class="cls-16" d="M270.23,276.69A8.19,8.19,0,0,1,262,284.8a8.24,8.24,0,1,1,8.28-8.11Z" transform="translate(-67.92 -58.11)"/><path class="cls-16" d="M251.48,312.42a8.14,8.14,0,0,1,8,8.35,8.37,8.37,0,0,1-8.15,7.91,8.14,8.14,0,0,1-8.13-8.24A7.92,7.92,0,0,1,251.48,312.42Z" transform="translate(-67.92 -58.11)"/><path class="cls-17" d="M217.31,313.42c-.18-1.68,0-2.86,2-2.64,1.55.17,3.06.43,3.09,2.35s-1.42,2.3-3,2.48C217.52,315.81,217,314.88,217.31,313.42Z" transform="translate(-67.92 -58.11)"/><path class="cls-18" d="M293.47,267.74c1.83-.11,3.26.73,3.27,2.36,0,1.91-1.59,2.47-3.42,2.58-2.2.14-1.86-1.26-1.93-2.6C291.3,268.48,291.61,267.37,293.47,267.74Z" transform="translate(-67.92 -58.11)"/><path class="cls-19" d="M318.24,313.06c-.29-1.67.32-2.45,2.17-2.3,1.68.14,3.09.66,3,2.49s-1.52,2.26-3.17,2.39C318.2,315.8,318.11,314.59,318.24,313.06Z" transform="translate(-67.92 -58.11)"/><path class="cls-20" d="M189.06,313.43c-.19-1.57-.08-2.8,2.19-2.68s3.89.79,3.79,3.14c-.09,2.09-1.71,2.68-3.74,2.77C188.63,316.79,189,315.11,189.06,313.43Z" transform="translate(-67.92 -58.11)"/><path class="cls-21" d="M338,223c1-3.29,1.95-6.22,2.75-9.18a2,2,0,0,1,2.23-1.78c4.86,0,9.71,0,14.56,0,1.53,0,2.08.34,1.7,2.14-1.88,8.81-1.81,8.82-10.8,8.82Z" transform="translate(-67.92 -58.11)"/><path class="cls-21" d="M245.45,223a19.62,19.62,0,0,1-2,0c-2.35-.24-6.65.66-6.7-.54-.13-3.17,1.48-6.42,2.51-9.61.29-.9,1.31-.79,2.12-.79,4.6,0,9.2,0,13.8,0,.65,0,1.83.15,1.86.37.52,3.2-1.54,5.85-2,8.86-.26,1.68-1.35,1.73-2.64,1.72C250.05,223,247.75,223,245.45,223Z" transform="translate(-67.92 -58.11)"/><path class="cls-21" d="M296.46,223a9.77,9.77,0,0,1-1.21,0c-2.6-.3-6.58,1.27-7.49-.7-1.16-2.52,1.36-5.77,2.08-8.76.38-1.58,1.7-1.48,2.93-1.49,4.45,0,8.9.07,13.35,0,2.11-.05,2.72.69,1.89,2.62a2.91,2.91,0,0,0-.12.39C305.83,223,305.83,223,296.46,223Z" transform="translate(-67.92 -58.11)"/><path class="cls-22" d="M219.64,223c-8.54,0-8.43,0-5.74-8.07.73-2.2,1.68-3,4-2.9,3.63.18,7.28.09,10.92,0,1.74,0,2.62.46,1.84,2.34a2.48,2.48,0,0,0-.1.39C228.47,223,228.47,223,219.64,223Z" transform="translate(-67.92 -58.11)"/><path class="cls-22" d="M274.14,212.12c8.23,0,8.09,0,5.85,7.74-.74,2.56-1.83,3.42-4.44,3.24-3.49-.24-7-.13-10.51,0-1.83.05-2.53-.53-1.92-2.33a2.91,2.91,0,0,0,.12-.39C265.07,212.12,265.07,212.12,274.14,212.12Z" transform="translate(-67.92 -58.11)"/><path class="cls-22" d="M313.9,223a3.84,3.84,0,0,1-.08-1.12c1.25-3.21.79-8.36,3.7-9.32,4.26-1.41,9.32-.41,14-.42.76,0,1.42.41,1.2,1.21-.82,3-1.4,6.11-2.79,8.81-1,1.85-3.46.72-5.26.8C321.1,223.14,317.48,223,313.9,223Z" transform="translate(-67.92 -58.11)"/><path class="cls-22" d="M372.71,223c-9.16,0-9.12,0-5.69-8.68.64-1.63,1.48-2.32,3.25-2.27,3.78.11,7.55.08,11.33,0,2,0,2.49.53,1.94,2.63C381.36,223,381.45,223,372.71,223Z" transform="translate(-67.92 -58.11)"/><path class="cls-23" d="M397.61,223c-9.47,0-9.95-.75-5.78-9.28.27-.57.72-1.5,1.11-1.5,4.3-.09,8.6-.09,12.89,0,1.06,0,.81,1.18.89,1.94C407.67,223,407.67,223,397.61,223Z" transform="translate(-67.92 -58.11)"/><path class="cls-24" d="M197.94,212.08h.4c9.07,0,9,0,5.9,8.67-.68,1.92-1.66,2.47-3.5,2.31-1.35-.12-2.71,0-4.06,0-8.47,0-8.4,0-7.69-8.73.14-1.83.82-2.3,2.45-2.24C193.61,212.15,195.77,212.09,197.94,212.08Z" transform="translate(-67.92 -58.11)"/></svg>